<svg width="402" height="134" viewBox="0 0 402 134" fill="none" xmlns="http://www.w3.org/2000/svg">
<g clip-path="url(#clip0_5466_90)">
<rect width="402" height="134" fill="#6A67FF"/>
<rect width="402" height="134" fill="url(#paint0_linear_5466_90)"/>
<rect x="19" y="43" width="40" height="40" rx="18" fill="#FF4775"/>
<path d="M31 62V66C31 69.2998 31 70.9497 32.0251 71.9749C33.0502 73 34.7002 73 38 73H40C43.2998 73 44.9497 73 45.9749 71.9749C47 70.9497 47 69.2998 47 66V62" stroke="#F1EDE1" stroke-width="1.5" stroke-linecap="round" stroke-linejoin="round"/>
<path d="M30 60C30 59.2523 30 58.8785 30.201 58.6C30.3326 58.4176 30.522 58.2661 30.75 58.1608C31.0981 58 31.5654 58 32.5 58H45.5C46.4346 58 46.9019 58 47.25 58.1608C47.478 58.2661 47.6674 58.4176 47.799 58.6C48 58.8785 48 59.2523 48 60C48 60.7477 48 61.1215 47.799 61.4C47.6674 61.5824 47.478 61.7339 47.25 61.8392C46.9019 62 46.4346 62 45.5 62H32.5C31.5654 62 31.0981 62 30.75 61.8392C30.522 61.7339 30.3326 61.5824 30.201 61.4C30 61.1215 30 60.7477 30 60Z" stroke="#F1EDE1" stroke-width="1.5" stroke-linejoin="round"/>
<path d="M33 54.7857C33 53.7995 33.7995 53 34.7857 53H35.1429C37.2731 53 39 54.7269 39 56.8571V58H36.2143C34.4391 58 33 56.5609 33 54.7857Z" stroke="#F1EDE1" stroke-width="1.5" stroke-linejoin="round"/>
<path d="M45 54.7857C45 53.7995 44.2005 53 43.2143 53H42.8571C40.7269 53 39 54.7269 39 56.8571V58H41.7857C43.5609 58 45 56.5609 45 54.7857Z" stroke="#F1EDE1" stroke-width="1.5" stroke-linejoin="round"/>
<path d="M39 62V73" stroke="#F1EDE1" stroke-width="1.5" stroke-linecap="round" stroke-linejoin="round"/>
<path d="M165.22 55H158.288V45.1973H165.22V46.4893H159.689V49.2852H163.777V50.5635H159.689V53.7148H165.22V55ZM169.889 55.1982C168.868 55.1982 168.05 54.8656 167.435 54.2002C166.819 53.5348 166.512 52.6439 166.512 51.5273C166.512 50.4473 166.826 49.5677 167.455 48.8887C168.089 48.2051 168.895 47.8633 169.875 47.8633C170.627 47.8633 171.256 48.0524 171.762 48.4307C172.268 48.8089 172.614 49.2897 172.801 49.873L171.563 50.2969C171.258 49.4264 170.691 48.9912 169.861 48.9912C169.292 48.9912 168.82 49.2122 168.446 49.6543C168.073 50.0918 167.886 50.7161 167.886 51.5273C167.886 52.3522 168.07 52.9811 168.439 53.4141C168.813 53.847 169.292 54.0635 169.875 54.0635C170.796 54.0635 171.411 53.5645 171.721 52.5664L172.965 52.9971C172.723 53.667 172.338 54.2025 171.81 54.6035C171.285 55 170.645 55.1982 169.889 55.1982ZM175.809 55H174.496V45.1973H175.809V55ZM179.883 55.1982C179.199 55.1982 178.655 55.0205 178.249 54.665C177.843 54.305 177.641 53.8197 177.641 53.209C177.641 51.6139 179.097 50.6979 182.009 50.4609V50.2559C182.009 49.3945 181.523 48.9639 180.553 48.9639C180.266 48.9639 180.013 49.0026 179.794 49.0801C179.575 49.153 179.397 49.2578 179.261 49.3945C179.129 49.5312 179.026 49.6634 178.953 49.791C178.88 49.9141 178.816 50.0553 178.762 50.2148L177.504 49.8047C177.632 49.276 177.957 48.8203 178.481 48.4375C179.01 48.0547 179.701 47.8633 180.553 47.8633C181.469 47.8633 182.159 48.0775 182.624 48.5059C183.093 48.9342 183.328 49.5312 183.328 50.2969V53.4756C183.328 53.6351 183.355 53.7422 183.41 53.7969C183.465 53.8516 183.572 53.8789 183.731 53.8789H184.449V55H183.438C183.196 55 182.993 54.9749 182.829 54.9248C182.665 54.8701 182.537 54.7926 182.446 54.6924C182.355 54.5876 182.289 54.4782 182.248 54.3643C182.207 54.2503 182.175 54.1113 182.152 53.9473C181.888 54.3529 181.576 54.6628 181.216 54.877C180.856 55.0911 180.411 55.1982 179.883 55.1982ZM180.231 54.1182C180.459 54.1182 180.676 54.0794 180.881 54.002C181.09 53.9199 181.28 53.8014 181.448 53.6465C181.621 53.4915 181.758 53.2842 181.858 53.0244C181.959 52.7601 182.009 52.4616 182.009 52.1289V51.418C181.662 51.4544 181.348 51.5 181.065 51.5547C180.787 51.6048 180.516 51.6755 180.252 51.7666C179.988 51.8532 179.767 51.9557 179.589 52.0742C179.411 52.1927 179.268 52.3385 179.158 52.5117C179.053 52.6849 179.001 52.8786 179.001 53.0928C179.001 53.4163 179.104 53.6693 179.309 53.8516C179.518 54.0293 179.826 54.1182 180.231 54.1182ZM187.04 46.7695H185.639V45.1973H187.04V46.7695ZM187.006 55H185.68V48.0547H187.006V55ZM190.602 55H189.289V48.0547H190.574V49.5244C190.629 49.4014 190.695 49.2783 190.772 49.1553C190.85 49.0322 190.957 48.8955 191.094 48.7451C191.23 48.5947 191.379 48.4648 191.538 48.3555C191.702 48.2415 191.9 48.1481 192.133 48.0752C192.37 47.9977 192.62 47.959 192.885 47.959C193.14 47.959 193.354 47.9818 193.527 48.0273V49.374C193.227 49.3376 192.98 49.3193 192.789 49.3193C192.037 49.3193 191.483 49.5358 191.128 49.9688C190.777 50.4017 190.602 51.0374 190.602 51.876V55ZM196.255 46.7695H194.854V45.1973H196.255V46.7695ZM196.221 55H194.895V48.0547H196.221V55ZM200.295 55.1982C199.611 55.1982 199.067 55.0205 198.661 54.665C198.256 54.305 198.053 53.8197 198.053 53.209C198.053 51.6139 199.509 50.6979 202.421 50.4609V50.2559C202.421 49.3945 201.936 48.9639 200.965 48.9639C200.678 48.9639 200.425 49.0026 200.206 49.0801C199.987 49.153 199.81 49.2578 199.673 49.3945C199.541 49.5312 199.438 49.6634 199.365 49.791C199.292 49.9141 199.229 50.0553 199.174 50.2148L197.916 49.8047C198.044 49.276 198.369 48.8203 198.894 48.4375C199.422 48.0547 200.113 47.8633 200.965 47.8633C201.881 47.8633 202.571 48.0775 203.036 48.5059C203.506 48.9342 203.74 49.5312 203.74 50.2969V53.4756C203.74 53.6351 203.768 53.7422 203.822 53.7969C203.877 53.8516 203.984 53.8789 204.144 53.8789H204.861V55H203.85C203.608 55 203.405 54.9749 203.241 54.9248C203.077 54.8701 202.95 54.7926 202.858 54.6924C202.767 54.5876 202.701 54.4782 202.66 54.3643C202.619 54.2503 202.587 54.1113 202.564 53.9473C202.3 54.3529 201.988 54.6628 201.628 54.877C201.268 55.0911 200.824 55.1982 200.295 55.1982ZM200.644 54.1182C200.871 54.1182 201.088 54.0794 201.293 54.002C201.503 53.9199 201.692 53.8014 201.86 53.6465C202.034 53.4915 202.17 53.2842 202.271 53.0244C202.371 52.7601 202.421 52.4616 202.421 52.1289V51.418C202.075 51.4544 201.76 51.5 201.478 51.5547C201.2 51.6048 200.928 51.6755 200.664 51.7666C200.4 51.8532 200.179 51.9557 200.001 52.0742C199.823 52.1927 199.68 52.3385 199.57 52.5117C199.465 52.6849 199.413 52.8786 199.413 53.0928C199.413 53.4163 199.516 53.6693 199.721 53.8516C199.93 54.0293 200.238 54.1182 200.644 54.1182ZM214.165 55H212.094L208.929 45.1973H210.487L212.49 51.6709C212.709 52.3818 212.923 53.0814 213.133 53.7695L213.789 51.6846L215.819 45.1973H217.357L214.165 55ZM221.644 55.1982C220.705 55.1982 219.919 54.8496 219.285 54.1523C218.656 53.4505 218.342 52.5801 218.342 51.541C218.342 50.4837 218.652 49.6064 219.271 48.9092C219.896 48.2119 220.687 47.8633 221.644 47.8633C222.601 47.8633 223.389 48.2119 224.009 48.9092C224.629 49.6019 224.938 50.4792 224.938 51.541C224.938 52.5938 224.622 53.4665 223.988 54.1592C223.359 54.8519 222.578 55.1982 221.644 55.1982ZM221.644 54.0635C222.231 54.0635 222.699 53.8516 223.045 53.4277C223.391 52.9993 223.564 52.375 223.564 51.5547C223.564 50.7253 223.391 50.0918 223.045 49.6543C222.699 49.2122 222.231 48.9912 221.644 48.9912C221.051 48.9912 220.582 49.21 220.235 49.6475C219.889 50.085 219.716 50.7207 219.716 51.5547C219.716 52.3796 219.889 53.0039 220.235 53.4277C220.582 53.8516 221.051 54.0635 221.644 54.0635ZM228.028 46.7695H226.627V45.1973H228.028V46.7695ZM227.994 55H226.668V48.0547H227.994V55ZM233.121 55.1982C232.1 55.1982 231.282 54.8656 230.667 54.2002C230.052 53.5348 229.744 52.6439 229.744 51.5273C229.744 50.4473 230.059 49.5677 230.688 48.8887C231.321 48.2051 232.128 47.8633 233.107 47.8633C233.859 47.8633 234.488 48.0524 234.994 48.4307C235.5 48.8089 235.846 49.2897 236.033 49.873L234.796 50.2969C234.491 49.4264 233.923 48.9912 233.094 48.9912C232.524 48.9912 232.052 49.2122 231.679 49.6543C231.305 50.0918 231.118 50.7161 231.118 51.5273C231.118 52.3522 231.303 52.9811 231.672 53.4141C232.046 53.847 232.524 54.0635 233.107 54.0635C234.028 54.0635 234.643 53.5645 234.953 52.5664L236.197 52.9971C235.956 53.667 235.571 54.2025 235.042 54.6035C234.518 55 233.878 55.1982 233.121 55.1982ZM240.415 55.1982C239.431 55.1982 238.649 54.8792 238.07 54.2412C237.496 53.6032 237.209 52.7077 237.209 51.5547C237.209 50.4382 237.503 49.5449 238.091 48.875C238.683 48.2005 239.44 47.8633 240.36 47.8633C241.039 47.8633 241.625 48.0387 242.117 48.3896C242.614 48.7406 242.974 49.2191 243.197 49.8252C243.421 50.4313 243.491 51.1104 243.409 51.8623H238.528C238.556 52.637 238.749 53.2021 239.109 53.5576C239.474 53.9131 239.923 54.0908 240.456 54.0908C241.299 54.0908 241.901 53.6465 242.261 52.7578L243.471 53.1953C243.22 53.8516 242.83 54.3506 242.302 54.6924C241.778 55.0296 241.149 55.1982 240.415 55.1982ZM238.556 50.8164H242.083C242.078 50.2194 241.91 49.7523 241.577 49.415C241.249 49.0778 240.843 48.9092 240.36 48.9092C239.896 48.9092 239.492 49.0824 239.15 49.4287C238.809 49.7705 238.61 50.2331 238.556 50.8164Z" fill="#F1EDE1"/>
<path d="M113.781 80H112.38V71.4893H108.907V70.1973H117.35V71.4893H113.781V80ZM121.328 80.1982C120.344 80.1982 119.562 79.8792 118.983 79.2412C118.409 78.6032 118.122 77.7077 118.122 76.5547C118.122 75.4382 118.416 74.5449 119.004 73.875C119.596 73.2005 120.353 72.8633 121.273 72.8633C121.952 72.8633 122.538 73.0387 123.03 73.3896C123.527 73.7406 123.887 74.2191 124.11 74.8252C124.334 75.4313 124.404 76.1104 124.322 76.8623H119.441C119.469 77.637 119.662 78.2021 120.022 78.5576C120.387 78.9131 120.836 79.0908 121.369 79.0908C122.212 79.0908 122.814 78.6465 123.174 77.7578L124.384 78.1953C124.133 78.8516 123.743 79.3506 123.215 79.6924C122.691 80.0296 122.062 80.1982 121.328 80.1982ZM119.469 75.8164H122.996C122.992 75.2194 122.823 74.7523 122.49 74.415C122.162 74.0778 121.757 73.9092 121.273 73.9092C120.809 73.9092 120.405 74.0824 120.063 74.4287C119.722 74.7705 119.523 75.2331 119.469 75.8164ZM127.487 80H126.175V73.0547H127.446V74.1074C127.533 73.957 127.631 73.818 127.74 73.6904C127.85 73.5583 127.989 73.4261 128.157 73.2939C128.326 73.1618 128.529 73.057 128.766 72.9795C129.007 72.902 129.269 72.8633 129.552 72.8633C130.053 72.8633 130.491 72.9909 130.864 73.2461C131.243 73.4967 131.523 73.8477 131.705 74.2988C131.787 74.1211 131.885 73.957 131.999 73.8066C132.118 73.6517 132.268 73.499 132.45 73.3486C132.632 73.1982 132.858 73.0798 133.127 72.9932C133.4 72.9066 133.701 72.8633 134.029 72.8633C134.804 72.8633 135.399 73.0798 135.813 73.5127C136.228 73.9456 136.436 74.5723 136.436 75.3926V80H135.109V75.7549C135.109 74.6019 134.624 74.0254 133.653 74.0254C133.425 74.0254 133.218 74.0618 133.031 74.1348C132.849 74.2031 132.699 74.2897 132.58 74.3945C132.466 74.4948 132.366 74.6292 132.279 74.7979C132.197 74.9619 132.133 75.1169 132.088 75.2627C132.047 75.404 132.015 75.5771 131.992 75.7822C131.969 75.9827 131.956 76.1468 131.951 76.2744C131.947 76.3975 131.944 76.5479 131.944 76.7256V80H130.652V75.7549C130.652 74.6019 130.162 74.0254 129.183 74.0254C128.959 74.0254 128.757 74.0596 128.574 74.1279C128.396 74.1963 128.248 74.2829 128.13 74.3877C128.016 74.4925 127.916 74.627 127.829 74.791C127.747 74.9551 127.683 75.1123 127.638 75.2627C127.597 75.4085 127.562 75.5817 127.535 75.7822C127.512 75.9782 127.499 76.1423 127.494 76.2744C127.49 76.4066 127.487 76.557 127.487 76.7256V80ZM139.929 82.7275H138.616V73.0547H139.888V74.1074C140.088 73.7611 140.375 73.4671 140.749 73.2256C141.127 72.984 141.592 72.8633 142.144 72.8633C142.978 72.8633 143.659 73.1937 144.188 73.8545C144.721 74.5153 144.987 75.4062 144.987 76.5273C144.987 77.6439 144.721 78.5348 144.188 79.2002C143.659 79.8656 142.978 80.1982 142.144 80.1982C141.155 80.1982 140.416 79.7812 139.929 78.9473V80.2803V82.7275ZM141.768 79.0771C142.346 79.0771 142.8 78.8743 143.128 78.4688C143.461 78.0586 143.627 77.4069 143.627 76.5137C143.627 74.8229 143.007 73.9775 141.768 73.9775C141.193 73.9775 140.731 74.194 140.38 74.627C140.034 75.0599 139.86 75.6888 139.86 76.5137C139.86 77.3431 140.034 77.9788 140.38 78.4209C140.731 78.8584 141.193 79.0771 141.768 79.0771ZM149.171 80.1982C148.41 80.1982 147.747 80.0251 147.182 79.6787C146.617 79.3324 146.263 78.8424 146.122 78.209L147.366 77.7988C147.594 78.6784 148.2 79.1182 149.185 79.1182C149.663 79.1182 150.03 79.0361 150.285 78.8721C150.54 78.7035 150.668 78.4642 150.668 78.1543C150.668 77.8945 150.575 77.6803 150.388 77.5117C150.201 77.3431 149.88 77.2155 149.424 77.1289L148.583 76.9785C148.255 76.9147 147.97 76.8372 147.729 76.7461C147.492 76.6549 147.266 76.5342 147.052 76.3838C146.842 76.2334 146.68 76.0397 146.566 75.8027C146.457 75.5612 146.402 75.2809 146.402 74.9619C146.402 74.3512 146.655 73.8499 147.161 73.458C147.667 73.0615 148.287 72.8633 149.021 72.8633C149.435 72.8633 149.809 72.9134 150.142 73.0137C150.479 73.1094 150.757 73.2438 150.976 73.417C151.199 73.5902 151.381 73.777 151.522 73.9775C151.664 74.1781 151.771 74.3945 151.844 74.627L150.682 75.0713C150.404 74.2965 149.845 73.9092 149.007 73.9092C148.569 73.9092 148.234 73.998 148.002 74.1758C147.774 74.349 147.66 74.5677 147.66 74.832C147.66 75.0736 147.74 75.2627 147.899 75.3994C148.063 75.5316 148.376 75.641 148.836 75.7275L149.663 75.8848C151.222 76.2174 152.001 76.9352 152.001 78.0381C152.001 78.7035 151.75 79.2298 151.249 79.6172C150.752 80.0046 150.06 80.1982 149.171 80.1982ZM158.604 80H157.292V73.0547H158.577V74.5244C158.632 74.4014 158.698 74.2783 158.775 74.1553C158.853 74.0322 158.96 73.8955 159.097 73.7451C159.233 73.5947 159.382 73.4648 159.541 73.3555C159.705 73.2415 159.903 73.1481 160.136 73.0752C160.373 72.9977 160.623 72.959 160.888 72.959C161.143 72.959 161.357 72.9818 161.53 73.0273V74.374C161.229 74.3376 160.983 74.3193 160.792 74.3193C160.04 74.3193 159.486 74.5358 159.131 74.9688C158.78 75.4017 158.604 76.0374 158.604 76.876V80ZM165.598 80.1982C164.613 80.1982 163.832 79.8792 163.253 79.2412C162.679 78.6032 162.392 77.7077 162.392 76.5547C162.392 75.4382 162.686 74.5449 163.273 73.875C163.866 73.2005 164.622 72.8633 165.543 72.8633C166.222 72.8633 166.808 73.0387 167.3 73.3896C167.797 73.7406 168.157 74.2191 168.38 74.8252C168.603 75.4313 168.674 76.1104 168.592 76.8623H163.711C163.738 77.637 163.932 78.2021 164.292 78.5576C164.657 78.9131 165.105 79.0908 165.639 79.0908C166.482 79.0908 167.083 78.6465 167.443 77.7578L168.653 78.1953C168.403 78.8516 168.013 79.3506 167.484 79.6924C166.96 80.0296 166.331 80.1982 165.598 80.1982ZM163.738 75.8164H167.266C167.261 75.2194 167.092 74.7523 166.76 74.415C166.432 74.0778 166.026 73.9092 165.543 73.9092C165.078 73.9092 164.675 74.0824 164.333 74.4287C163.991 74.7705 163.793 75.2331 163.738 75.8164ZM172.837 80.1982C172.076 80.1982 171.413 80.0251 170.848 79.6787C170.283 79.3324 169.929 78.8424 169.788 78.209L171.032 77.7988C171.26 78.6784 171.866 79.1182 172.851 79.1182C173.329 79.1182 173.696 79.0361 173.951 78.8721C174.206 78.7035 174.334 78.4642 174.334 78.1543C174.334 77.8945 174.241 77.6803 174.054 77.5117C173.867 77.3431 173.546 77.2155 173.09 77.1289L172.249 76.9785C171.921 76.9147 171.636 76.8372 171.395 76.7461C171.158 76.6549 170.932 76.5342 170.718 76.3838C170.508 76.2334 170.346 76.0397 170.232 75.8027C170.123 75.5612 170.068 75.2809 170.068 74.9619C170.068 74.3512 170.321 73.8499 170.827 73.458C171.333 73.0615 171.953 72.8633 172.687 72.8633C173.101 72.8633 173.475 72.9134 173.808 73.0137C174.145 73.1094 174.423 73.2438 174.642 73.417C174.865 73.5902 175.047 73.777 175.188 73.9775C175.33 74.1781 175.437 74.3945 175.51 74.627L174.348 75.0713C174.07 74.2965 173.511 73.9092 172.673 73.9092C172.235 73.9092 171.9 73.998 171.668 74.1758C171.44 74.349 171.326 74.5677 171.326 74.832C171.326 75.0736 171.406 75.2627 171.565 75.3994C171.729 75.5316 172.042 75.641 172.502 75.7275L173.329 75.8848C174.888 76.2174 175.667 76.9352 175.667 78.0381C175.667 78.7035 175.416 79.2298 174.915 79.6172C174.418 80.0046 173.726 80.1982 172.837 80.1982ZM181.519 80H179.81C178.643 80 178.06 79.4303 178.06 78.291V74.1484H176.48V73.0547H178.06V70.8877H179.379V73.0547H181.252V74.1484H179.379V78.1816C179.379 78.4186 179.431 78.5918 179.536 78.7012C179.646 78.8105 179.821 78.8652 180.062 78.8652H181.519V80ZM184.8 80.1982C184.116 80.1982 183.572 80.0205 183.166 79.665C182.76 79.305 182.558 78.8197 182.558 78.209C182.558 76.6139 184.014 75.6979 186.926 75.4609V75.2559C186.926 74.3945 186.44 73.9639 185.47 73.9639C185.183 73.9639 184.93 74.0026 184.711 74.0801C184.492 74.153 184.314 74.2578 184.178 74.3945C184.046 74.5312 183.943 74.6634 183.87 74.791C183.797 74.9141 183.733 75.0553 183.679 75.2148L182.421 74.8047C182.549 74.276 182.874 73.8203 183.398 73.4375C183.927 73.0547 184.618 72.8633 185.47 72.8633C186.386 72.8633 187.076 73.0775 187.541 73.5059C188.01 73.9342 188.245 74.5312 188.245 75.2969V78.4756C188.245 78.6351 188.272 78.7422 188.327 78.7969C188.382 78.8516 188.489 78.8789 188.648 78.8789H189.366V80H188.354C188.113 80 187.91 79.9749 187.746 79.9248C187.582 79.8701 187.454 79.7926 187.363 79.6924C187.272 79.5876 187.206 79.4782 187.165 79.3643C187.124 79.2503 187.092 79.1113 187.069 78.9473C186.805 79.3529 186.493 79.6628 186.133 79.877C185.773 80.0911 185.328 80.1982 184.8 80.1982ZM185.148 79.1182C185.376 79.1182 185.593 79.0794 185.798 79.002C186.007 78.9199 186.197 78.8014 186.365 78.6465C186.538 78.4915 186.675 78.2842 186.775 78.0244C186.876 77.7601 186.926 77.4616 186.926 77.1289V76.418C186.579 76.4544 186.265 76.5 185.982 76.5547C185.704 76.6048 185.433 76.6755 185.169 76.7666C184.905 76.8532 184.684 76.9557 184.506 77.0742C184.328 77.1927 184.185 77.3385 184.075 77.5117C183.97 77.6849 183.918 77.8786 183.918 78.0928C183.918 78.4163 184.021 78.6693 184.226 78.8516C184.435 79.0293 184.743 79.1182 185.148 79.1182ZM191.923 80H190.61V73.0547H191.882V74.2168C191.914 74.1348 191.962 74.0436 192.025 73.9434C192.094 73.8431 192.192 73.7269 192.319 73.5947C192.451 73.4626 192.597 73.3441 192.757 73.2393C192.921 73.1344 193.126 73.0456 193.372 72.9727C193.618 72.8997 193.878 72.8633 194.151 72.8633C194.972 72.8633 195.578 73.0934 195.97 73.5537C196.362 74.0094 196.558 74.6406 196.558 75.4473V80H195.245V75.7549C195.245 74.5882 194.755 74.0049 193.775 74.0049C193.525 74.0049 193.299 74.0459 193.099 74.1279C192.903 74.2054 192.741 74.3034 192.613 74.4219C192.486 74.5404 192.376 74.6953 192.285 74.8867C192.194 75.0736 192.126 75.249 192.08 75.4131C192.035 75.5726 191.998 75.7663 191.971 75.9941C191.948 76.2174 191.934 76.3952 191.93 76.5273C191.925 76.6595 191.923 76.819 191.923 77.0059V80ZM202.888 80H201.179C200.012 80 199.429 79.4303 199.429 78.291V74.1484H197.85V73.0547H199.429V70.8877H200.748V73.0547H202.621V74.1484H200.748V78.1816C200.748 78.4186 200.8 78.5918 200.905 78.7012C201.015 78.8105 201.19 78.8652 201.432 78.8652H202.888V80Z" fill="#F1EDE1"/>
<circle cx="215.5" cy="75.5" r="2" fill="#F1EDE1"/>
<path d="M232.95 76.3291H228.917V74.9756H232.95V76.3291ZM238.631 80.1982C237.432 80.1982 236.478 79.7539 235.767 78.8652C235.056 77.972 234.7 76.7074 234.7 75.0713C234.7 74.2555 234.803 73.5218 235.008 72.8701C235.217 72.2139 235.502 71.6807 235.862 71.2705C236.222 70.8604 236.637 70.5482 237.106 70.334C237.576 70.1152 238.084 70.0059 238.631 70.0059C239.173 70.0059 239.677 70.1152 240.142 70.334C240.611 70.5482 241.026 70.8604 241.386 71.2705C241.746 71.6807 242.028 72.2139 242.233 72.8701C242.438 73.5218 242.541 74.2555 242.541 75.0713C242.541 76.7074 242.186 77.972 241.475 78.8652C240.768 79.7539 239.82 80.1982 238.631 80.1982ZM238.631 78.9473C239.392 78.9473 239.989 78.6146 240.422 77.9492C240.855 77.2793 241.071 76.32 241.071 75.0713C241.071 73.9001 240.848 72.9704 240.401 72.2822C239.959 71.5941 239.369 71.25 238.631 71.25C237.879 71.25 237.28 71.5941 236.833 72.2822C236.391 72.9704 236.17 73.9001 236.17 75.0713C236.17 76.32 236.386 77.2793 236.819 77.9492C237.257 78.6146 237.861 78.9473 238.631 78.9473ZM250.737 80H244.175V78.4619C244.603 78.1976 244.981 77.9583 245.31 77.7441C245.642 77.5254 245.989 77.2861 246.349 77.0264C246.713 76.7666 247.025 76.5251 247.285 76.3018C247.549 76.0739 247.805 75.8301 248.051 75.5703C248.297 75.306 248.497 75.0508 248.652 74.8047C248.807 74.5586 248.93 74.2988 249.021 74.0254C249.113 73.7474 249.158 73.4717 249.158 73.1982C249.158 72.5876 248.987 72.1136 248.646 71.7764C248.308 71.4346 247.887 71.2637 247.381 71.2637C246.829 71.2637 246.378 71.4551 246.027 71.8379C245.676 72.2161 245.501 72.7425 245.501 73.417L244.093 73.2256C244.102 72.2777 244.403 71.5052 244.995 70.9082C245.592 70.3066 246.392 70.0059 247.395 70.0059C248.388 70.0059 249.174 70.2884 249.753 70.8535C250.336 71.4186 250.628 72.1478 250.628 73.041C250.628 74.0527 250.282 74.9642 249.589 75.7754C249.188 76.2357 248.673 76.7005 248.044 77.1699C247.415 77.6393 246.638 78.1543 245.713 78.7148H247.996H250.737V80ZM254.237 74.8594H252.446V73.041H254.237V74.8594ZM254.237 80H252.446V78.1816H254.237V80ZM259.597 80H258.209V73.3896V72.0225C257.936 72.4782 257.56 72.8724 257.081 73.2051C256.607 73.5332 256.106 73.736 255.577 73.8135V72.3574C256.188 72.2116 256.746 71.9564 257.252 71.5918C257.758 71.2272 258.161 70.7624 258.462 70.1973H259.597V80ZM265.756 80.1982C264.557 80.1982 263.603 79.7539 262.892 78.8652C262.181 77.972 261.825 76.7074 261.825 75.0713C261.825 74.2555 261.928 73.5218 262.133 72.8701C262.342 72.2139 262.627 71.6807 262.987 71.2705C263.347 70.8604 263.762 70.5482 264.231 70.334C264.701 70.1152 265.209 70.0059 265.756 70.0059C266.298 70.0059 266.802 70.1152 267.267 70.334C267.736 70.5482 268.151 70.8604 268.511 71.2705C268.871 71.6807 269.153 72.2139 269.358 72.8701C269.563 73.5218 269.666 74.2555 269.666 75.0713C269.666 76.7074 269.311 77.972 268.6 78.8652C267.893 79.7539 266.945 80.1982 265.756 80.1982ZM265.756 78.9473C266.517 78.9473 267.114 78.6146 267.547 77.9492C267.98 77.2793 268.196 76.32 268.196 75.0713C268.196 73.9001 267.973 72.9704 267.526 72.2822C267.084 71.5941 266.494 71.25 265.756 71.25C265.004 71.25 264.405 71.5941 263.958 72.2822C263.516 72.9704 263.295 73.9001 263.295 75.0713C263.295 76.32 263.511 77.2793 263.944 77.9492C264.382 78.6146 264.986 78.9473 265.756 78.9473ZM273.187 74.8594H271.396V73.041H273.187V74.8594ZM273.187 80H271.396V78.1816H273.187V80ZM278.854 80.1982C277.655 80.1982 276.7 79.7539 275.989 78.8652C275.278 77.972 274.923 76.7074 274.923 75.0713C274.923 74.2555 275.025 73.5218 275.23 72.8701C275.44 72.2139 275.725 71.6807 276.085 71.2705C276.445 70.8604 276.86 70.5482 277.329 70.334C277.799 70.1152 278.307 70.0059 278.854 70.0059C279.396 70.0059 279.899 70.1152 280.364 70.334C280.834 70.5482 281.248 70.8604 281.608 71.2705C281.968 71.6807 282.251 72.2139 282.456 72.8701C282.661 73.5218 282.764 74.2555 282.764 75.0713C282.764 76.7074 282.408 77.972 281.697 78.8652C280.991 79.7539 280.043 80.1982 278.854 80.1982ZM278.854 78.9473C279.615 78.9473 280.212 78.6146 280.645 77.9492C281.077 77.2793 281.294 76.32 281.294 75.0713C281.294 73.9001 281.071 72.9704 280.624 72.2822C280.182 71.5941 279.592 71.25 278.854 71.25C278.102 71.25 277.502 71.5941 277.056 72.2822C276.614 72.9704 276.393 73.9001 276.393 75.0713C276.393 76.32 276.609 77.2793 277.042 77.9492C277.479 78.6146 278.083 78.9473 278.854 78.9473ZM287.802 80.1982C286.69 80.1982 285.835 79.9339 285.238 79.4053C284.641 78.8766 284.343 78.2021 284.343 77.3818C284.343 76.7484 284.525 76.2152 284.89 75.7822C285.254 75.3447 285.71 75.0622 286.257 74.9346C285.765 74.766 285.366 74.4834 285.061 74.0869C284.76 73.6904 284.609 73.2074 284.609 72.6377C284.609 71.8584 284.903 71.2249 285.491 70.7373C286.079 70.2497 286.849 70.0059 287.802 70.0059C288.75 70.0059 289.518 70.2497 290.105 70.7373C290.693 71.2249 290.987 71.8584 290.987 72.6377C290.987 73.2119 290.837 73.6973 290.536 74.0938C290.235 74.4857 289.837 74.766 289.34 74.9346C289.9 75.0667 290.356 75.3516 290.707 75.7891C291.062 76.222 291.24 76.7529 291.24 77.3818C291.24 78.2021 290.942 78.8766 290.345 79.4053C289.752 79.9339 288.905 80.1982 287.802 80.1982ZM286.517 73.9502C286.858 74.2419 287.287 74.3877 287.802 74.3877C288.317 74.3877 288.743 74.2419 289.08 73.9502C289.422 73.6585 289.593 73.2666 289.593 72.7744C289.593 72.3141 289.426 71.9382 289.094 71.6465C288.761 71.3548 288.33 71.209 287.802 71.209C287.273 71.209 286.84 71.3548 286.503 71.6465C286.17 71.9382 286.004 72.3141 286.004 72.7744C286.004 73.2666 286.175 73.6585 286.517 73.9502ZM287.802 78.9746C288.417 78.9746 288.9 78.8197 289.251 78.5098C289.606 78.1999 289.784 77.7783 289.784 77.2451C289.784 76.7165 289.604 76.2904 289.244 75.9668C288.889 75.6387 288.408 75.4746 287.802 75.4746C287.196 75.4746 286.71 75.6387 286.346 75.9668C285.981 76.2904 285.799 76.7165 285.799 77.2451C285.799 77.7783 285.979 78.1999 286.339 78.5098C286.703 78.8197 287.191 78.9746 287.802 78.9746Z" fill="#F1EDE1"/>
<rect x="342.5" y="43.5" width="39" height="39" rx="17.5" stroke="#868276" stroke-opacity="0.36"/>
<path d="M363.925 72H360.075C355.445 72 353.13 72 352.276 70.4939C351.423 68.9879 352.607 66.9914 354.976 62.9985L356.901 59.7533C359.176 55.9178 360.313 54 362 54C363.687 54 364.824 55.9178 367.099 59.7533L369.024 62.9985C371.393 66.9914 372.577 68.9879 371.724 70.4939C370.87 72 368.555 72 363.925 72Z" stroke="#F1EDE1" stroke-width="1.5" stroke-linecap="round" stroke-linejoin="round"/>
<path d="M362 60V64.5" stroke="#F1EDE1" stroke-width="1.5" stroke-linecap="round" stroke-linejoin="round"/>
<path d="M362 67.9922V68.0022" stroke="#F1EDE1" stroke-width="1.8" stroke-linecap="round" stroke-linejoin="round"/>
</g>
<defs>
<linearGradient id="paint0_linear_5466_90" x1="13.0278" y1="134" x2="99.6599" y2="-125" gradientUnits="userSpaceOnUse">
<stop stop-color="#081134"/>
<stop offset="0.899477" stop-color="#0A1D60"/>
</linearGradient>
<clipPath id="clip0_5466_90">
<rect width="402" height="134" fill="white"/>
</clipPath>
</defs>
</svg>
