<svg width="402" height="129" viewBox="0 0 402 129" fill="none" xmlns="http://www.w3.org/2000/svg">
<g clip-path="url(#clip0_5466_372)">
<rect width="402" height="129" fill="#6A67FF"/>
<rect width="402" height="129" fill="url(#paint0_linear_5466_372)"/>
<rect x="171.5" y="34.7" width="59.8" height="59.8" rx="29.9" fill="url(#paint1_linear_5466_372)"/>
<rect x="171.5" y="34.7" width="59.8" height="59.8" rx="29.9" stroke="#F10F47"/>
<path d="M197.8 55.6001C193.605 57.0413 190.6 60.9302 190.6 65.5014C190.6 66.9496 190.901 68.3292 191.447 69.5842M205 55.6001C209.194 57.0413 212.2 60.9302 212.2 65.5014C212.2 66.7284 211.983 67.9063 211.585 69.001M206.8 74.5956C205.211 75.4889 203.367 76.0001 201.4 76.0001C199.433 76.0001 197.588 75.4889 196 74.5956" stroke="white" stroke-width="1.8"/>
<path d="M205 56.2001C205 58.1883 203.388 59.8001 201.4 59.8001C199.412 59.8001 197.8 58.1883 197.8 56.2001C197.8 54.2119 199.412 52.6001 201.4 52.6001C203.388 52.6001 205 54.2119 205 56.2001Z" fill="#11C54D" stroke="white" stroke-width="1.8"/>
<path d="M193 76.5999C194.988 76.5999 196.6 74.9881 196.6 72.9999C196.6 71.0117 194.988 69.3999 193 69.3999C191.012 69.3999 189.4 71.0117 189.4 72.9999C189.4 74.9881 191.012 76.5999 193 76.5999Z" fill="#D5B100" stroke="white" stroke-width="1.8"/>
<path d="M209.8 76.5999C211.788 76.5999 213.4 74.9881 213.4 72.9999C213.4 71.0117 211.788 69.3999 209.8 69.3999C207.812 69.3999 206.2 71.0117 206.2 72.9999C206.2 74.9881 207.812 76.5999 209.8 76.5999Z" fill="#590083" stroke="white" stroke-width="1.8"/>
</g>
<defs>
<linearGradient id="paint0_linear_5466_372" x1="13.0278" y1="129" x2="93.9114" y2="-122.187" gradientUnits="userSpaceOnUse">
<stop stop-color="#081134"/>
<stop offset="0.899477" stop-color="#0A1D60"/>
</linearGradient>
<linearGradient id="paint1_linear_5466_372" x1="203.064" y1="14.9285" x2="291.49" y2="46.7547" gradientUnits="userSpaceOnUse">
<stop stop-color="#FF4775"/>
<stop offset="1" stop-color="#F10F47"/>
</linearGradient>
<clipPath id="clip0_5466_372">
<rect width="402" height="129" fill="white"/>
</clipPath>
</defs>
</svg>
