<svg width="402" height="121" viewBox="0 0 402 121" fill="none" xmlns="http://www.w3.org/2000/svg">
<g clip-path="url(#clip0_5466_278)">
<rect width="402" height="121" fill="#6A67FF"/>
<rect width="402" height="121" fill="url(#paint0_linear_5466_278)"/>
<rect width="400" height="96" transform="translate(2 13)" fill="#0A1B5A"/>
<g style="mix-blend-mode:luminosity">
<line x1="2" y1="12.5" x2="402" y2="12.5" stroke="#590083"/>
</g>
<path d="M38 71C43.5228 71 48 66.5228 48 61C48 55.4772 43.5228 51 38 51C32.4772 51 28 55.4772 28 61C28 66.5228 32.4772 71 38 71Z" stroke="#F1EDE1" stroke-width="1.5"/>
<path d="M35.5 60.1998V61.8002C35.5 63.3195 35.5 64.0791 35.9558 64.3862C36.4115 64.6932 37.0348 64.3535 38.2815 63.6741L39.7497 62.8738C41.2499 62.0562 42 61.6474 42 61C42 60.3526 41.2499 59.9438 39.7497 59.1262L38.2815 58.3259C37.0348 57.6465 36.4115 57.3068 35.9558 57.6138C35.5 57.9209 35.5 58.6805 35.5 60.1998Z" fill="#F1EDE1"/>
<path d="M86.328 46V34.8H88.184V44.304H93.256V46H86.328ZM98.0444 46.192C97.2657 46.192 96.5724 46.016 95.9644 45.664C95.367 45.3013 94.8924 44.8053 94.5404 44.176C94.199 43.5467 94.0284 42.8213 94.0284 42C94.0284 41.1787 94.2044 40.4533 94.5564 39.824C94.9084 39.1947 95.3884 38.704 95.9964 38.352C96.615 37.9893 97.319 37.808 98.1084 37.808C98.823 37.808 99.4684 37.9947 100.044 38.368C100.62 38.7307 101.074 39.2587 101.404 39.952C101.746 40.6453 101.916 41.472 101.916 42.432H95.6284L95.8684 42.208C95.8684 42.6987 95.975 43.1253 96.1884 43.488C96.4017 43.84 96.6844 44.112 97.0364 44.304C97.3884 44.496 97.7777 44.592 98.2044 44.592C98.695 44.592 99.1004 44.4853 99.4204 44.272C99.7404 44.048 99.991 43.76 100.172 43.408L101.756 44.08C101.532 44.5067 101.244 44.88 100.892 45.2C100.551 45.52 100.14 45.7653 99.6604 45.936C99.191 46.1067 98.6524 46.192 98.0444 46.192ZM95.9804 41.28L95.7244 41.056H100.236L99.9964 41.28C99.9964 40.8427 99.9004 40.4853 99.7084 40.208C99.5164 39.92 99.271 39.7067 98.9724 39.568C98.6844 39.4187 98.3804 39.344 98.0604 39.344C97.7404 39.344 97.4204 39.4187 97.1004 39.568C96.7804 39.7067 96.5137 39.92 96.3004 40.208C96.087 40.4853 95.9804 40.8427 95.9804 41.28ZM110.892 46.192C110.071 46.192 109.346 46.016 108.716 45.664C108.087 45.3013 107.591 44.8053 107.228 44.176C106.876 43.5467 106.7 42.8213 106.7 42C106.7 41.1787 106.876 40.4533 107.228 39.824C107.591 39.1947 108.082 38.704 108.7 38.352C109.33 37.9893 110.05 37.808 110.86 37.808C111.65 37.808 112.364 38 113.004 38.384C113.644 38.7573 114.119 39.296 114.428 40L112.764 40.64C112.594 40.288 112.332 40.0053 111.98 39.792C111.628 39.5787 111.228 39.472 110.78 39.472C110.343 39.472 109.954 39.584 109.612 39.808C109.271 40.0213 109.004 40.32 108.812 40.704C108.62 41.0773 108.524 41.5093 108.524 42C108.524 42.4907 108.62 42.928 108.812 43.312C109.015 43.6853 109.287 43.984 109.628 44.208C109.98 44.4213 110.375 44.528 110.812 44.528C111.26 44.528 111.66 44.416 112.012 44.192C112.364 43.9573 112.626 43.6427 112.796 43.248L114.46 43.888C114.151 44.6133 113.676 45.1787 113.036 45.584C112.407 45.9893 111.692 46.192 110.892 46.192ZM115.867 46V34.8H117.659V46H115.867ZM121.291 46V41.904H123.083V46H121.291ZM121.291 41.904C121.291 41.264 121.217 40.7733 121.067 40.432C120.918 40.08 120.71 39.8347 120.443 39.696C120.187 39.5573 119.889 39.488 119.547 39.488C118.939 39.4773 118.47 39.6747 118.139 40.08C117.819 40.4853 117.659 41.0667 117.659 41.824H116.971C116.971 40.9813 117.094 40.2613 117.339 39.664C117.595 39.056 117.953 38.5973 118.411 38.288C118.87 37.968 119.414 37.808 120.043 37.808C120.673 37.808 121.217 37.936 121.675 38.192C122.134 38.448 122.481 38.848 122.715 39.392C122.961 39.9253 123.083 40.624 123.083 41.488V41.904H121.291ZM129.778 46L129.698 44.496V41.888C129.698 41.344 129.64 40.8907 129.522 40.528C129.416 40.1547 129.234 39.872 128.978 39.68C128.733 39.4773 128.402 39.376 127.986 39.376C127.602 39.376 127.266 39.456 126.978 39.616C126.69 39.776 126.445 40.0267 126.242 40.368L124.674 39.792C124.845 39.44 125.069 39.1147 125.346 38.816C125.634 38.5067 125.992 38.2613 126.418 38.08C126.856 37.8987 127.378 37.808 127.986 37.808C128.765 37.808 129.416 37.9627 129.938 38.272C130.461 38.5707 130.845 39.0027 131.09 39.568C131.346 40.1333 131.474 40.816 131.474 41.616L131.426 46H129.778ZM127.474 46.192C126.514 46.192 125.768 45.9787 125.234 45.552C124.712 45.1253 124.45 44.5227 124.45 43.744C124.45 42.912 124.728 42.2773 125.282 41.84C125.848 41.4027 126.632 41.184 127.634 41.184H129.778V42.56H128.21C127.496 42.56 126.994 42.6613 126.706 42.864C126.418 43.056 126.274 43.3333 126.274 43.696C126.274 44.0053 126.397 44.2507 126.642 44.432C126.898 44.6027 127.25 44.688 127.698 44.688C128.104 44.688 128.456 44.5973 128.754 44.416C129.053 44.2347 129.282 43.9947 129.442 43.696C129.613 43.3973 129.698 43.0613 129.698 42.688H130.226C130.226 43.776 130.008 44.6347 129.57 45.264C129.133 45.8827 128.434 46.192 127.474 46.192ZM133.289 46V38H134.969L135.081 39.472V46H133.289ZM138.713 46V41.904H140.505V46H138.713ZM138.713 41.904C138.713 41.264 138.638 40.7733 138.489 40.432C138.35 40.08 138.148 39.8347 137.881 39.696C137.625 39.5573 137.321 39.488 136.969 39.488C136.372 39.4773 135.908 39.6747 135.577 40.08C135.246 40.4853 135.081 41.0667 135.081 41.824H134.409C134.409 40.9813 134.532 40.2613 134.777 39.664C135.022 39.056 135.374 38.5973 135.833 38.288C136.292 37.968 136.836 37.808 137.465 37.808C138.105 37.808 138.649 37.936 139.097 38.192C139.556 38.448 139.902 38.848 140.137 39.392C140.382 39.9253 140.505 40.624 140.505 41.488V41.904H138.713ZM145.76 49.408C145.195 49.408 144.683 49.36 144.224 49.264C143.776 49.168 143.397 49.056 143.088 48.928C142.779 48.8 142.539 48.6773 142.368 48.56L143.056 47.12C143.205 47.1947 143.403 47.2853 143.648 47.392C143.904 47.5093 144.203 47.6107 144.544 47.696C144.885 47.7813 145.269 47.824 145.696 47.824C146.155 47.824 146.565 47.728 146.928 47.536C147.291 47.3547 147.573 47.072 147.776 46.688C147.979 46.304 148.08 45.8133 148.08 45.216V38H149.872V45.168C149.872 46.0747 149.701 46.8427 149.36 47.472C149.019 48.112 148.539 48.592 147.92 48.912C147.301 49.2427 146.581 49.408 145.76 49.408ZM145.488 45.84C144.763 45.84 144.128 45.6747 143.584 45.344C143.051 45.0133 142.629 44.5547 142.32 43.968C142.021 43.3707 141.872 42.6827 141.872 41.904C141.872 41.072 142.021 40.352 142.32 39.744C142.629 39.136 143.051 38.6613 143.584 38.32C144.128 37.9787 144.763 37.808 145.488 37.808C146.139 37.808 146.704 37.9787 147.184 38.32C147.675 38.6613 148.053 39.1413 148.32 39.76C148.587 40.368 148.72 41.088 148.72 41.92C148.72 42.7093 148.587 43.3973 148.32 43.984C148.053 44.5707 147.675 45.0293 147.184 45.36C146.704 45.68 146.139 45.84 145.488 45.84ZM145.984 44.32C146.389 44.32 146.741 44.2133 147.04 44C147.349 43.7867 147.589 43.4987 147.76 43.136C147.931 42.7627 148.016 42.336 148.016 41.856C148.016 41.3653 147.931 40.9387 147.76 40.576C147.589 40.2027 147.349 39.9147 147.04 39.712C146.731 39.4987 146.373 39.392 145.968 39.392C145.541 39.392 145.163 39.4987 144.832 39.712C144.512 39.9147 144.256 40.2027 144.064 40.576C143.883 40.9387 143.792 41.3653 143.792 41.856C143.792 42.336 143.883 42.7627 144.064 43.136C144.256 43.4987 144.517 43.7867 144.848 44C145.179 44.2133 145.557 44.32 145.984 44.32ZM155.419 46.192C154.641 46.192 153.947 46.016 153.339 45.664C152.742 45.3013 152.267 44.8053 151.915 44.176C151.574 43.5467 151.403 42.8213 151.403 42C151.403 41.1787 151.579 40.4533 151.931 39.824C152.283 39.1947 152.763 38.704 153.371 38.352C153.99 37.9893 154.694 37.808 155.483 37.808C156.198 37.808 156.843 37.9947 157.419 38.368C157.995 38.7307 158.449 39.2587 158.779 39.952C159.121 40.6453 159.291 41.472 159.291 42.432H153.003L153.243 42.208C153.243 42.6987 153.35 43.1253 153.563 43.488C153.777 43.84 154.059 44.112 154.411 44.304C154.763 44.496 155.153 44.592 155.579 44.592C156.07 44.592 156.475 44.4853 156.795 44.272C157.115 44.048 157.366 43.76 157.547 43.408L159.131 44.08C158.907 44.5067 158.619 44.88 158.267 45.2C157.926 45.52 157.515 45.7653 157.035 45.936C156.566 46.1067 156.027 46.192 155.419 46.192ZM153.355 41.28L153.099 41.056H157.611L157.371 41.28C157.371 40.8427 157.275 40.4853 157.083 40.208C156.891 39.92 156.646 39.7067 156.347 39.568C156.059 39.4187 155.755 39.344 155.435 39.344C155.115 39.344 154.795 39.4187 154.475 39.568C154.155 39.7067 153.889 39.92 153.675 40.208C153.462 40.4853 153.355 40.8427 153.355 41.28ZM160.664 46V38H162.344L162.424 39.072C162.669 38.656 162.984 38.3413 163.368 38.128C163.752 37.9147 164.189 37.808 164.68 37.808C165.32 37.808 165.864 37.952 166.312 38.24C166.76 38.528 167.085 38.9653 167.288 39.552C167.523 38.9867 167.853 38.5547 168.28 38.256C168.707 37.9573 169.208 37.808 169.784 37.808C170.712 37.808 171.427 38.1067 171.928 38.704C172.429 39.2907 172.675 40.1973 172.664 41.424V46H170.888V41.904C170.888 41.264 170.819 40.7733 170.68 40.432C170.541 40.08 170.355 39.8347 170.12 39.696C169.885 39.5573 169.613 39.488 169.304 39.488C168.749 39.4773 168.317 39.6747 168.008 40.08C167.709 40.4853 167.56 41.0667 167.56 41.824V46H165.768V41.904C165.768 41.264 165.699 40.7733 165.56 40.432C165.432 40.08 165.251 39.8347 165.016 39.696C164.781 39.5573 164.509 39.488 164.2 39.488C163.645 39.4773 163.213 39.6747 162.904 40.08C162.605 40.4853 162.456 41.0667 162.456 41.824V46H160.664ZM178.06 46.192C177.281 46.192 176.588 46.016 175.98 45.664C175.383 45.3013 174.908 44.8053 174.556 44.176C174.215 43.5467 174.044 42.8213 174.044 42C174.044 41.1787 174.22 40.4533 174.572 39.824C174.924 39.1947 175.404 38.704 176.012 38.352C176.631 37.9893 177.335 37.808 178.124 37.808C178.839 37.808 179.484 37.9947 180.06 38.368C180.636 38.7307 181.089 39.2587 181.42 39.952C181.761 40.6453 181.932 41.472 181.932 42.432H175.644L175.884 42.208C175.884 42.6987 175.991 43.1253 176.204 43.488C176.417 43.84 176.7 44.112 177.052 44.304C177.404 44.496 177.793 44.592 178.22 44.592C178.711 44.592 179.116 44.4853 179.436 44.272C179.756 44.048 180.007 43.76 180.188 43.408L181.772 44.08C181.548 44.5067 181.26 44.88 180.908 45.2C180.567 45.52 180.156 45.7653 179.676 45.936C179.207 46.1067 178.668 46.192 178.06 46.192ZM175.996 41.28L175.74 41.056H180.252L180.012 41.28C180.012 40.8427 179.916 40.4853 179.724 40.208C179.532 39.92 179.287 39.7067 178.988 39.568C178.7 39.4187 178.396 39.344 178.076 39.344C177.756 39.344 177.436 39.4187 177.116 39.568C176.796 39.7067 176.529 39.92 176.316 40.208C176.103 40.4853 175.996 40.8427 175.996 41.28ZM183.305 46V38H184.985L185.097 39.472V46H183.305ZM188.729 46V41.904H190.521V46H188.729ZM188.729 41.904C188.729 41.264 188.654 40.7733 188.505 40.432C188.366 40.08 188.163 39.8347 187.897 39.696C187.641 39.5573 187.337 39.488 186.985 39.488C186.387 39.4773 185.923 39.6747 185.593 40.08C185.262 40.4853 185.097 41.0667 185.097 41.824H184.424C184.424 40.9813 184.547 40.2613 184.793 39.664C185.038 39.056 185.39 38.5973 185.849 38.288C186.307 37.968 186.851 37.808 187.481 37.808C188.121 37.808 188.665 37.936 189.113 38.192C189.571 38.448 189.918 38.848 190.153 39.392C190.398 39.9253 190.521 40.624 190.521 41.488V41.904H188.729ZM195.52 46.192C194.677 46.192 194.032 45.984 193.584 45.568C193.146 45.1413 192.928 44.5333 192.928 43.744V35.504H194.704V43.408C194.704 43.7813 194.789 44.064 194.96 44.256C195.141 44.448 195.402 44.544 195.744 44.544C195.85 44.544 195.968 44.5227 196.096 44.48C196.224 44.4373 196.368 44.3573 196.528 44.24L197.184 45.6C196.906 45.792 196.629 45.936 196.352 46.032C196.074 46.1387 195.797 46.192 195.52 46.192ZM191.6 39.536V38H196.864V39.536H191.6ZM202.556 49.2V38H204.236L204.348 39.472V49.2H202.556ZM206.876 46.192C206.204 46.192 205.623 46.0213 205.132 45.68C204.652 45.328 204.284 44.8373 204.028 44.208C203.772 43.5787 203.644 42.8427 203.644 42C203.644 41.1467 203.772 40.4107 204.028 39.792C204.284 39.1627 204.652 38.6773 205.132 38.336C205.623 37.984 206.204 37.808 206.876 37.808C207.602 37.808 208.231 37.984 208.764 38.336C209.308 38.6773 209.73 39.1627 210.028 39.792C210.338 40.4107 210.492 41.1467 210.492 42C210.492 42.8427 210.338 43.5787 210.028 44.208C209.73 44.8373 209.308 45.328 208.764 45.68C208.231 46.0213 207.602 46.192 206.876 46.192ZM206.428 44.56C206.855 44.56 207.234 44.4533 207.564 44.24C207.895 44.016 208.156 43.712 208.348 43.328C208.551 42.944 208.652 42.5013 208.652 42C208.652 41.4987 208.556 41.056 208.364 40.672C208.183 40.288 207.927 39.9893 207.596 39.776C207.266 39.5627 206.882 39.456 206.444 39.456C206.039 39.456 205.676 39.5627 205.356 39.776C205.036 39.9893 204.786 40.288 204.604 40.672C204.434 41.056 204.348 41.4987 204.348 42C204.348 42.5013 204.434 42.944 204.604 43.328C204.786 43.712 205.031 44.016 205.34 44.24C205.66 44.4533 206.023 44.56 206.428 44.56ZM216.903 46L216.823 44.496V41.888C216.823 41.344 216.765 40.8907 216.647 40.528C216.541 40.1547 216.359 39.872 216.103 39.68C215.858 39.4773 215.527 39.376 215.111 39.376C214.727 39.376 214.391 39.456 214.103 39.616C213.815 39.776 213.57 40.0267 213.367 40.368L211.799 39.792C211.97 39.44 212.194 39.1147 212.471 38.816C212.759 38.5067 213.117 38.2613 213.543 38.08C213.981 37.8987 214.503 37.808 215.111 37.808C215.89 37.808 216.541 37.9627 217.063 38.272C217.586 38.5707 217.97 39.0027 218.215 39.568C218.471 40.1333 218.599 40.816 218.599 41.616L218.551 46H216.903ZM214.599 46.192C213.639 46.192 212.893 45.9787 212.359 45.552C211.837 45.1253 211.575 44.5227 211.575 43.744C211.575 42.912 211.853 42.2773 212.407 41.84C212.973 41.4027 213.757 41.184 214.759 41.184H216.903V42.56H215.335C214.621 42.56 214.119 42.6613 213.831 42.864C213.543 43.056 213.399 43.3333 213.399 43.696C213.399 44.0053 213.522 44.2507 213.767 44.432C214.023 44.6027 214.375 44.688 214.823 44.688C215.229 44.688 215.581 44.5973 215.879 44.416C216.178 44.2347 216.407 43.9947 216.567 43.696C216.738 43.3973 216.823 43.0613 216.823 42.688H217.351C217.351 43.776 217.133 44.6347 216.695 45.264C216.258 45.8827 215.559 46.192 214.599 46.192ZM223.326 46.192C222.793 46.192 222.302 46.112 221.854 45.952C221.406 45.792 221.022 45.568 220.702 45.28C220.382 44.9813 220.137 44.6347 219.966 44.24L221.518 43.552C221.678 43.8507 221.913 44.1013 222.222 44.304C222.542 44.5067 222.894 44.608 223.278 44.608C223.694 44.608 224.025 44.5387 224.27 44.4C224.526 44.2507 224.654 44.048 224.654 43.792C224.654 43.5467 224.558 43.36 224.366 43.232C224.174 43.0933 223.902 42.9813 223.55 42.896L222.798 42.688C222.041 42.496 221.449 42.192 221.022 41.776C220.595 41.3493 220.382 40.864 220.382 40.32C220.382 39.52 220.638 38.9013 221.15 38.464C221.673 38.0267 222.419 37.808 223.39 37.808C223.881 37.808 224.329 37.8827 224.734 38.032C225.15 38.1707 225.507 38.3733 225.806 38.64C226.105 38.896 226.313 39.2 226.43 39.552L224.942 40.224C224.835 39.9573 224.633 39.7547 224.334 39.616C224.035 39.4667 223.705 39.392 223.342 39.392C222.979 39.392 222.697 39.472 222.494 39.632C222.291 39.7813 222.19 39.9947 222.19 40.272C222.19 40.432 222.281 40.5813 222.462 40.72C222.643 40.848 222.905 40.9547 223.246 41.04L224.19 41.264C224.713 41.392 225.139 41.5947 225.47 41.872C225.801 42.1387 226.046 42.4427 226.206 42.784C226.366 43.1147 226.446 43.4507 226.446 43.792C226.446 44.272 226.307 44.6933 226.03 45.056C225.763 45.4187 225.395 45.7013 224.926 45.904C224.457 46.096 223.923 46.192 223.326 46.192ZM230.763 46.192C230.23 46.192 229.739 46.112 229.291 45.952C228.843 45.792 228.459 45.568 228.139 45.28C227.819 44.9813 227.574 44.6347 227.403 44.24L228.955 43.552C229.115 43.8507 229.35 44.1013 229.659 44.304C229.979 44.5067 230.331 44.608 230.715 44.608C231.131 44.608 231.462 44.5387 231.707 44.4C231.963 44.2507 232.091 44.048 232.091 43.792C232.091 43.5467 231.995 43.36 231.803 43.232C231.611 43.0933 231.339 42.9813 230.987 42.896L230.235 42.688C229.478 42.496 228.886 42.192 228.459 41.776C228.033 41.3493 227.819 40.864 227.819 40.32C227.819 39.52 228.075 38.9013 228.587 38.464C229.11 38.0267 229.857 37.808 230.827 37.808C231.318 37.808 231.766 37.8827 232.171 38.032C232.587 38.1707 232.945 38.3733 233.243 38.64C233.542 38.896 233.75 39.2 233.867 39.552L232.379 40.224C232.273 39.9573 232.07 39.7547 231.771 39.616C231.473 39.4667 231.142 39.392 230.779 39.392C230.417 39.392 230.134 39.472 229.931 39.632C229.729 39.7813 229.627 39.9947 229.627 40.272C229.627 40.432 229.718 40.5813 229.899 40.72C230.081 40.848 230.342 40.9547 230.683 41.04L231.627 41.264C232.15 41.392 232.577 41.5947 232.907 41.872C233.238 42.1387 233.483 42.4427 233.643 42.784C233.803 43.1147 233.883 43.4507 233.883 43.792C233.883 44.272 233.745 44.6933 233.467 45.056C233.201 45.4187 232.833 45.7013 232.363 45.904C231.894 46.096 231.361 46.192 230.763 46.192ZM238.873 46.192C238.094 46.192 237.401 46.016 236.793 45.664C236.195 45.3013 235.721 44.8053 235.368 44.176C235.027 43.5467 234.857 42.8213 234.857 42C234.857 41.1787 235.033 40.4533 235.385 39.824C235.737 39.1947 236.217 38.704 236.825 38.352C237.443 37.9893 238.147 37.808 238.937 37.808C239.651 37.808 240.297 37.9947 240.873 38.368C241.449 38.7307 241.902 39.2587 242.233 39.952C242.574 40.6453 242.745 41.472 242.745 42.432H236.457L236.697 42.208C236.697 42.6987 236.803 43.1253 237.017 43.488C237.23 43.84 237.513 44.112 237.865 44.304C238.217 44.496 238.606 44.592 239.033 44.592C239.523 44.592 239.929 44.4853 240.249 44.272C240.569 44.048 240.819 43.76 241.001 43.408L242.585 44.08C242.361 44.5067 242.073 44.88 241.721 45.2C241.379 45.52 240.969 45.7653 240.489 45.936C240.019 46.1067 239.481 46.192 238.873 46.192ZM236.809 41.28L236.553 41.056H241.065L240.825 41.28C240.825 40.8427 240.729 40.4853 240.537 40.208C240.345 39.92 240.099 39.7067 239.801 39.568C239.513 39.4187 239.209 39.344 238.889 39.344C238.569 39.344 238.249 39.4187 237.929 39.568C237.609 39.7067 237.342 39.92 237.129 40.208C236.915 40.4853 236.809 40.8427 236.809 41.28ZM245.301 41.744C245.301 40.88 245.466 40.1707 245.797 39.616C246.128 39.0613 246.554 38.6507 247.077 38.384C247.61 38.1067 248.165 37.968 248.741 37.968V39.68C248.25 39.68 247.786 39.7493 247.349 39.888C246.922 40.016 246.576 40.2293 246.309 40.528C246.042 40.8267 245.909 41.2213 245.909 41.712L245.301 41.744ZM244.117 46V38H245.909V46H244.117ZM254.81 46L254.73 44.496V41.888C254.73 41.344 254.671 40.8907 254.554 40.528C254.447 40.1547 254.266 39.872 254.01 39.68C253.764 39.4773 253.434 39.376 253.018 39.376C252.634 39.376 252.298 39.456 252.01 39.616C251.722 39.776 251.476 40.0267 251.274 40.368L249.706 39.792C249.876 39.44 250.1 39.1147 250.378 38.816C250.666 38.5067 251.023 38.2613 251.45 38.08C251.887 37.8987 252.41 37.808 253.018 37.808C253.796 37.808 254.447 37.9627 254.97 38.272C255.492 38.5707 255.876 39.0027 256.122 39.568C256.378 40.1333 256.506 40.816 256.506 41.616L256.458 46H254.81ZM252.506 46.192C251.546 46.192 250.799 45.9787 250.266 45.552C249.743 45.1253 249.482 44.5227 249.482 43.744C249.482 42.912 249.759 42.2773 250.314 41.84C250.879 41.4027 251.663 41.184 252.666 41.184H254.81V42.56H253.242C252.527 42.56 252.026 42.6613 251.738 42.864C251.45 43.056 251.306 43.3333 251.306 43.696C251.306 44.0053 251.428 44.2507 251.674 44.432C251.93 44.6027 252.282 44.688 252.73 44.688C253.135 44.688 253.487 44.5973 253.786 44.416C254.084 44.2347 254.314 43.9947 254.474 43.696C254.644 43.3973 254.73 43.0613 254.73 42.688H255.258C255.258 43.776 255.039 44.6347 254.602 45.264C254.164 45.8827 253.466 46.192 252.506 46.192ZM262.26 49.2V38H263.94L264.052 39.472V49.2H262.26ZM266.58 46.192C265.908 46.192 265.326 46.0213 264.836 45.68C264.356 45.328 263.988 44.8373 263.732 44.208C263.476 43.5787 263.348 42.8427 263.348 42C263.348 41.1467 263.476 40.4107 263.732 39.792C263.988 39.1627 264.356 38.6773 264.836 38.336C265.326 37.984 265.908 37.808 266.58 37.808C267.305 37.808 267.934 37.984 268.468 38.336C269.012 38.6773 269.433 39.1627 269.732 39.792C270.041 40.4107 270.196 41.1467 270.196 42C270.196 42.8427 270.041 43.5787 269.732 44.208C269.433 44.8373 269.012 45.328 268.468 45.68C267.934 46.0213 267.305 46.192 266.58 46.192ZM266.132 44.56C266.558 44.56 266.937 44.4533 267.268 44.24C267.598 44.016 267.86 43.712 268.052 43.328C268.254 42.944 268.356 42.5013 268.356 42C268.356 41.4987 268.26 41.056 268.068 40.672C267.886 40.288 267.63 39.9893 267.3 39.776C266.969 39.5627 266.585 39.456 266.148 39.456C265.742 39.456 265.38 39.5627 265.06 39.776C264.74 39.9893 264.489 40.288 264.308 40.672C264.137 41.056 264.052 41.4987 264.052 42C264.052 42.5013 264.137 42.944 264.308 43.328C264.489 43.712 264.734 44.016 265.044 44.24C265.364 44.4533 265.726 44.56 266.132 44.56ZM276.606 46L276.526 44.496V41.888C276.526 41.344 276.468 40.8907 276.35 40.528C276.244 40.1547 276.062 39.872 275.806 39.68C275.561 39.4773 275.23 39.376 274.814 39.376C274.43 39.376 274.094 39.456 273.806 39.616C273.518 39.776 273.273 40.0267 273.07 40.368L271.502 39.792C271.673 39.44 271.897 39.1147 272.174 38.816C272.462 38.5067 272.82 38.2613 273.246 38.08C273.684 37.8987 274.206 37.808 274.814 37.808C275.593 37.808 276.244 37.9627 276.766 38.272C277.289 38.5707 277.673 39.0027 277.918 39.568C278.174 40.1333 278.302 40.816 278.302 41.616L278.254 46H276.606ZM274.302 46.192C273.342 46.192 272.596 45.9787 272.062 45.552C271.54 45.1253 271.278 44.5227 271.278 43.744C271.278 42.912 271.556 42.2773 272.11 41.84C272.676 41.4027 273.46 41.184 274.462 41.184H276.606V42.56H275.038C274.324 42.56 273.822 42.6613 273.534 42.864C273.246 43.056 273.102 43.3333 273.102 43.696C273.102 44.0053 273.225 44.2507 273.47 44.432C273.726 44.6027 274.078 44.688 274.526 44.688C274.932 44.688 275.284 44.5973 275.582 44.416C275.881 44.2347 276.11 43.9947 276.27 43.696C276.441 43.3973 276.526 43.0613 276.526 42.688H277.054C277.054 43.776 276.836 44.6347 276.398 45.264C275.961 45.8827 275.262 46.192 274.302 46.192ZM281.301 41.744C281.301 40.88 281.466 40.1707 281.797 39.616C282.128 39.0613 282.554 38.6507 283.077 38.384C283.61 38.1067 284.165 37.968 284.741 37.968V39.68C284.25 39.68 283.786 39.7493 283.349 39.888C282.922 40.016 282.576 40.2293 282.309 40.528C282.042 40.8267 281.909 41.2213 281.909 41.712L281.301 41.744ZM280.117 46V38H281.909V46H280.117ZM289.789 46V38H291.469L291.581 39.472V46H289.789ZM295.213 46V41.904H297.005V46H295.213ZM295.213 41.904C295.213 41.264 295.138 40.7733 294.989 40.432C294.85 40.08 294.648 39.8347 294.381 39.696C294.125 39.5573 293.821 39.488 293.469 39.488C292.872 39.4773 292.408 39.6747 292.077 40.08C291.746 40.4853 291.581 41.0667 291.581 41.824H290.909C290.909 40.9813 291.032 40.2613 291.277 39.664C291.522 39.056 291.874 38.5973 292.333 38.288C292.792 37.968 293.336 37.808 293.965 37.808C294.605 37.808 295.149 37.936 295.597 38.192C296.056 38.448 296.402 38.848 296.637 39.392C296.882 39.9253 297.005 40.624 297.005 41.488V41.904H295.213ZM302.5 46.192C301.7 46.192 300.985 46.016 300.356 45.664C299.737 45.3013 299.252 44.8053 298.9 44.176C298.548 43.5467 298.372 42.8213 298.372 42C298.372 41.1787 298.543 40.4533 298.884 39.824C299.236 39.1947 299.721 38.704 300.34 38.352C300.959 37.9893 301.668 37.808 302.468 37.808C303.268 37.808 303.977 37.9893 304.596 38.352C305.215 38.704 305.695 39.1947 306.036 39.824C306.388 40.4533 306.564 41.1787 306.564 42C306.564 42.8213 306.393 43.5467 306.052 44.176C305.711 44.8053 305.231 45.3013 304.612 45.664C303.993 46.016 303.289 46.192 302.5 46.192ZM302.5 44.544C302.937 44.544 303.327 44.4373 303.668 44.224C304.009 44 304.276 43.7013 304.468 43.328C304.66 42.944 304.756 42.5013 304.756 42C304.756 41.4987 304.655 41.0613 304.452 40.688C304.26 40.304 303.993 40.0053 303.652 39.792C303.311 39.568 302.916 39.456 302.468 39.456C302.02 39.456 301.625 39.5627 301.284 39.776C300.943 39.9893 300.676 40.288 300.484 40.672C300.292 41.056 300.196 41.4987 300.196 42C300.196 42.5013 300.292 42.944 300.484 43.328C300.687 43.7013 300.959 44 301.3 44.224C301.652 44.4373 302.052 44.544 302.5 44.544ZM313.477 46L313.381 44.528V38H315.157V46H313.477ZM307.941 42.096V38H309.733V42.096H307.941ZM309.733 42.096C309.733 42.7253 309.808 43.216 309.957 43.568C310.106 43.92 310.309 44.1653 310.565 44.304C310.832 44.4427 311.136 44.512 311.477 44.512C312.085 44.5227 312.554 44.3253 312.885 43.92C313.216 43.5147 313.381 42.9333 313.381 42.176H314.053C314.053 43.0187 313.925 43.744 313.669 44.352C313.424 44.9493 313.072 45.408 312.613 45.728C312.165 46.0373 311.621 46.192 310.981 46.192C310.352 46.192 309.808 46.064 309.349 45.808C308.901 45.552 308.554 45.152 308.309 44.608C308.064 44.064 307.941 43.3653 307.941 42.512V42.096H309.733ZM320.06 46.192C319.527 46.192 319.036 46.112 318.588 45.952C318.14 45.792 317.756 45.568 317.436 45.28C317.116 44.9813 316.871 44.6347 316.7 44.24L318.252 43.552C318.412 43.8507 318.647 44.1013 318.956 44.304C319.276 44.5067 319.628 44.608 320.012 44.608C320.428 44.608 320.759 44.5387 321.004 44.4C321.26 44.2507 321.388 44.048 321.388 43.792C321.388 43.5467 321.292 43.36 321.1 43.232C320.908 43.0933 320.636 42.9813 320.284 42.896L319.532 42.688C318.775 42.496 318.183 42.192 317.756 41.776C317.33 41.3493 317.116 40.864 317.116 40.32C317.116 39.52 317.372 38.9013 317.884 38.464C318.407 38.0267 319.154 37.808 320.124 37.808C320.615 37.808 321.063 37.8827 321.468 38.032C321.884 38.1707 322.242 38.3733 322.54 38.64C322.839 38.896 323.047 39.2 323.164 39.552L321.676 40.224C321.57 39.9573 321.367 39.7547 321.068 39.616C320.77 39.4667 320.439 39.392 320.076 39.392C319.714 39.392 319.431 39.472 319.228 39.632C319.026 39.7813 318.924 39.9947 318.924 40.272C318.924 40.432 319.015 40.5813 319.196 40.72C319.378 40.848 319.639 40.9547 319.98 41.04L320.924 41.264C321.447 41.392 321.874 41.5947 322.204 41.872C322.535 42.1387 322.78 42.4427 322.94 42.784C323.1 43.1147 323.18 43.4507 323.18 43.792C323.18 44.272 323.042 44.6933 322.764 45.056C322.498 45.4187 322.13 45.7013 321.66 45.904C321.191 46.096 320.658 46.192 320.06 46.192Z" fill="#F1EDE1"/>
<line x1="85.75" y1="60" x2="85.75" y2="73" stroke="#FF4775" stroke-width="1.5"/>
<line x1="95.75" y1="60" x2="95.75" y2="73" stroke="#FF4775" stroke-width="1.5"/>
<line x1="105.75" y1="60" x2="105.75" y2="73" stroke="#FF4775" stroke-width="1.5"/>
<line x1="115.75" y1="60" x2="115.75" y2="73" stroke="#FF4775" stroke-width="1.5"/>
<line x1="125.75" y1="60" x2="125.75" y2="73" stroke="#FF4775" stroke-width="1.5"/>
<line x1="135.75" y1="60" x2="135.75" y2="73" stroke="#FF4775" stroke-width="1.5"/>
<line x1="145.75" y1="60" x2="145.75" y2="73" stroke="#FF4775" stroke-width="1.5"/>
<line x1="155.75" y1="60" x2="155.75" y2="73" stroke="#FF4775" stroke-width="1.5"/>
<line x1="165.75" y1="60" x2="165.75" y2="73" stroke="#868276" stroke-opacity="0.18" stroke-width="1.5"/>
<line x1="175.75" y1="60" x2="175.75" y2="73" stroke="#868276" stroke-opacity="0.18" stroke-width="1.5"/>
<line x1="185.75" y1="60" x2="185.75" y2="73" stroke="#868276" stroke-opacity="0.18" stroke-width="1.5"/>
<line x1="195.75" y1="60" x2="195.75" y2="73" stroke="#868276" stroke-opacity="0.18" stroke-width="1.5"/>
<line x1="205.75" y1="60" x2="205.75" y2="73" stroke="#868276" stroke-opacity="0.18" stroke-width="1.5"/>
<line x1="215.75" y1="60" x2="215.75" y2="73" stroke="#868276" stroke-opacity="0.18" stroke-width="1.5"/>
<line x1="225.75" y1="60" x2="225.75" y2="73" stroke="#868276" stroke-opacity="0.18" stroke-width="1.5"/>
<line x1="235.75" y1="60" x2="235.75" y2="73" stroke="#868276" stroke-opacity="0.18" stroke-width="1.5"/>
<line x1="245.75" y1="60" x2="245.75" y2="73" stroke="#868276" stroke-opacity="0.18" stroke-width="1.5"/>
<line x1="255.75" y1="60" x2="255.75" y2="73" stroke="#868276" stroke-opacity="0.18" stroke-width="1.5"/>
<line x1="265.75" y1="60" x2="265.75" y2="73" stroke="#868276" stroke-opacity="0.18" stroke-width="1.5"/>
<line x1="275.75" y1="60" x2="275.75" y2="73" stroke="#868276" stroke-opacity="0.18" stroke-width="1.5"/>
<line x1="285.75" y1="60" x2="285.75" y2="73" stroke="#868276" stroke-opacity="0.18" stroke-width="1.5"/>
<line x1="295.75" y1="60" x2="295.75" y2="73" stroke="#868276" stroke-opacity="0.18" stroke-width="1.5"/>
<line x1="305.75" y1="60" x2="305.75" y2="73" stroke="#868276" stroke-opacity="0.18" stroke-width="1.5"/>
<line x1="315.75" y1="60" x2="315.75" y2="73" stroke="#868276" stroke-opacity="0.18" stroke-width="1.5"/>
<line x1="325.75" y1="60" x2="325.75" y2="73" stroke="#868276" stroke-opacity="0.18" stroke-width="1.5"/>
<path d="M87.4722 90.0991C86.8729 90.0991 86.3955 89.877 86.04 89.4326C85.6846 88.986 85.5068 88.3537 85.5068 87.5356C85.5068 87.1278 85.5581 86.7609 85.6606 86.4351C85.7655 86.1069 85.9079 85.8403 86.0879 85.6353C86.2679 85.4302 86.4753 85.2741 86.71 85.167C86.9447 85.0576 87.1987 85.0029 87.4722 85.0029C87.7433 85.0029 87.9951 85.0576 88.2275 85.167C88.4622 85.2741 88.6696 85.4302 88.8496 85.6353C89.0296 85.8403 89.1709 86.1069 89.2734 86.4351C89.376 86.7609 89.4272 87.1278 89.4272 87.5356C89.4272 88.3537 89.2495 88.986 88.894 89.4326C88.5409 89.877 88.0669 90.0991 87.4722 90.0991ZM87.4722 89.4736C87.8527 89.4736 88.1512 89.3073 88.3677 88.9746C88.5841 88.6396 88.6924 88.16 88.6924 87.5356C88.6924 86.95 88.5807 86.4852 88.3574 86.1411C88.1364 85.797 87.8413 85.625 87.4722 85.625C87.0962 85.625 86.7965 85.797 86.5732 86.1411C86.3522 86.4852 86.2417 86.95 86.2417 87.5356C86.2417 88.16 86.3499 88.6396 86.5664 88.9746C86.7852 89.3073 87.0871 89.4736 87.4722 89.4736ZM91.1875 87.4297H90.292V86.5205H91.1875V87.4297ZM91.1875 90H90.292V89.0908H91.1875V90ZM95.3574 90H92.0762V89.231C92.2904 89.0988 92.4795 88.9792 92.6436 88.8721C92.8099 88.7627 92.9831 88.6431 93.1631 88.5132C93.3454 88.3833 93.5015 88.2625 93.6313 88.1509C93.7635 88.0369 93.8911 87.915 94.0142 87.7852C94.1372 87.653 94.2375 87.5254 94.3149 87.4023C94.3924 87.2793 94.4539 87.1494 94.4995 87.0127C94.5451 86.8737 94.5679 86.7358 94.5679 86.5991C94.5679 86.2938 94.4824 86.0568 94.3115 85.8882C94.1429 85.7173 93.9321 85.6318 93.6792 85.6318C93.4035 85.6318 93.1779 85.7275 93.0024 85.9189C92.827 86.1081 92.7393 86.3713 92.7393 86.7085L92.0352 86.6128C92.0397 86.1388 92.1901 85.7526 92.4863 85.4541C92.7848 85.1533 93.1847 85.0029 93.686 85.0029C94.1828 85.0029 94.5758 85.1442 94.8652 85.4268C95.1569 85.7093 95.3027 86.0739 95.3027 86.5205C95.3027 87.0264 95.1296 87.4821 94.7832 87.8877C94.5827 88.1178 94.3252 88.3503 94.0107 88.585C93.6963 88.8197 93.3078 89.0771 92.8452 89.3574H93.9868H95.3574V90ZM98.9292 90H98.249V88.6704H95.9453V88.0176L97.8867 85.0986H98.9292V88.0825H99.6504V88.6704H98.9292V90ZM97.5859 88.0825H98.249V86.8008V85.6523L96.6392 88.0825H97.5859Z" fill="#F1EDE1"/>
<path d="M283.107 90.0991C282.611 90.0991 282.207 89.984 281.897 89.7539C281.588 89.5215 281.396 89.223 281.323 88.8584L282.031 88.6294C282.09 88.9051 282.212 89.117 282.396 89.2651C282.581 89.4132 282.809 89.4873 283.08 89.4873C283.39 89.4873 283.635 89.3973 283.815 89.2173C283.997 89.0373 284.088 88.7946 284.088 88.4893C284.088 88.1862 283.997 87.9435 283.815 87.7612C283.635 87.5789 283.392 87.4878 283.087 87.4878C282.88 87.4878 282.698 87.5356 282.543 87.6313C282.389 87.7271 282.262 87.8558 282.164 88.0176L281.422 87.9014L281.843 85.0986H284.669V85.7446H282.359L282.205 86.7666L282.109 87.4229C282.399 87.0788 282.784 86.9067 283.265 86.9067C283.734 86.9067 284.109 87.0469 284.389 87.3271C284.669 87.6051 284.81 87.9845 284.81 88.4653C284.81 88.953 284.656 89.3472 284.348 89.6479C284.041 89.9487 283.627 90.0991 283.107 90.0991ZM288.908 90.0991C288.438 90.0991 288.045 89.9248 287.729 89.5762C287.414 89.2253 287.257 88.79 287.257 88.2705C287.257 87.7419 287.412 87.3032 287.722 86.9546C288.034 86.606 288.429 86.4316 288.908 86.4316C289.386 86.4316 289.78 86.606 290.09 86.9546C290.4 87.3009 290.555 87.7396 290.555 88.2705C290.555 88.7969 290.397 89.2332 290.08 89.5796C289.766 89.9259 289.375 90.0991 288.908 90.0991ZM288.908 89.5317C289.202 89.5317 289.435 89.4258 289.608 89.2139C289.782 88.9997 289.868 88.6875 289.868 88.2773C289.868 87.8626 289.782 87.5459 289.608 87.3271C289.435 87.1061 289.202 86.9956 288.908 86.9956C288.611 86.9956 288.377 87.105 288.204 87.3237C288.03 87.5425 287.944 87.8604 287.944 88.2773C287.944 88.6898 288.03 89.002 288.204 89.2139C288.377 89.4258 288.611 89.5317 288.908 89.5317ZM292.083 90H291.427V86.5273H292.062V87.1084C292.078 87.0674 292.102 87.0218 292.134 86.9717C292.168 86.9215 292.217 86.8634 292.281 86.7974C292.347 86.7313 292.42 86.672 292.5 86.6196C292.582 86.5672 292.685 86.5228 292.808 86.4863C292.931 86.4499 293.061 86.4316 293.197 86.4316C293.607 86.4316 293.91 86.5467 294.106 86.7769C294.302 87.0047 294.4 87.3203 294.4 87.7236V90H293.744V87.8774C293.744 87.2941 293.499 87.0024 293.009 87.0024C292.884 87.0024 292.771 87.0229 292.671 87.064C292.573 87.1027 292.492 87.1517 292.428 87.2109C292.364 87.2702 292.31 87.3477 292.264 87.4434C292.219 87.5368 292.184 87.6245 292.162 87.7065C292.139 87.7863 292.121 87.8831 292.107 87.9971C292.096 88.1087 292.089 88.1976 292.086 88.2637C292.084 88.3298 292.083 88.4095 292.083 88.5029V90ZM297.565 90H296.711C296.128 90 295.836 89.7152 295.836 89.1455V87.0742H295.046V86.5273H295.836V85.4438H296.496V86.5273H297.432V87.0742H296.496V89.0908C296.496 89.2093 296.522 89.2959 296.574 89.3506C296.629 89.4053 296.717 89.4326 296.837 89.4326H297.565V90ZM301.633 86.0317H301.202L301.551 85.0439H302.419L301.633 86.0317ZM301.438 90.0991C300.946 90.0991 300.555 89.9396 300.266 89.6206C299.979 89.3016 299.835 88.8538 299.835 88.2773C299.835 87.7191 299.982 87.2725 300.276 86.9375C300.572 86.6003 300.95 86.4316 301.411 86.4316C301.75 86.4316 302.043 86.5194 302.289 86.6948C302.537 86.8703 302.717 87.1095 302.829 87.4126C302.941 87.7157 302.976 88.0552 302.935 88.4312H300.495C300.508 88.8185 300.605 89.1011 300.785 89.2788C300.967 89.4565 301.192 89.5454 301.458 89.5454C301.88 89.5454 302.181 89.3232 302.361 88.8789L302.966 89.0977C302.84 89.4258 302.646 89.6753 302.381 89.8462C302.119 90.0148 301.805 90.0991 301.438 90.0991ZM300.508 87.9082H302.272C302.27 87.6097 302.185 87.3761 302.019 87.2075C301.855 87.0389 301.652 86.9546 301.411 86.9546C301.178 86.9546 300.977 87.0412 300.806 87.2144C300.635 87.3853 300.536 87.6165 300.508 87.9082ZM305.283 90.0991C304.773 90.0991 304.364 89.9328 304.056 89.6001C303.749 89.2674 303.595 88.8219 303.595 88.2637C303.595 87.7236 303.752 87.2839 304.066 86.9443C304.383 86.6025 304.786 86.4316 305.276 86.4316C305.652 86.4316 305.967 86.5262 306.22 86.7153C306.473 86.9045 306.646 87.1449 306.739 87.4365L306.121 87.6484C305.968 87.2132 305.684 86.9956 305.27 86.9956C304.985 86.9956 304.749 87.1061 304.562 87.3271C304.375 87.5459 304.282 87.8581 304.282 88.2637C304.282 88.6761 304.374 88.9906 304.559 89.207C304.745 89.4235 304.985 89.5317 305.276 89.5317C305.737 89.5317 306.044 89.2822 306.199 88.7832L306.821 88.9985C306.701 89.3335 306.508 89.6012 306.244 89.8018C305.982 90 305.661 90.0991 305.283 90.0991ZM308.964 90.0991C308.495 90.0991 308.102 89.9248 307.785 89.5762C307.471 89.2253 307.313 88.79 307.313 88.2705C307.313 87.7419 307.468 87.3032 307.778 86.9546C308.09 86.606 308.486 86.4316 308.964 86.4316C309.443 86.4316 309.837 86.606 310.147 86.9546C310.457 87.3009 310.612 87.7396 310.612 88.2705C310.612 88.7969 310.453 89.2332 310.137 89.5796C309.822 89.9259 309.431 90.0991 308.964 90.0991ZM308.964 89.5317C309.258 89.5317 309.492 89.4258 309.665 89.2139C309.838 88.9997 309.925 88.6875 309.925 88.2773C309.925 87.8626 309.838 87.5459 309.665 87.3271C309.492 87.1061 309.258 86.9956 308.964 86.9956C308.668 86.9956 308.433 87.105 308.26 87.3237C308.087 87.5425 308 87.8604 308 88.2773C308 88.6898 308.087 89.002 308.26 89.2139C308.433 89.4258 308.668 89.5317 308.964 89.5317ZM312.574 90.0991C312.193 90.0991 311.908 89.984 311.719 89.7539C311.53 89.5215 311.436 89.2048 311.436 88.8037V86.5273H312.092V88.6499C312.092 89.2332 312.33 89.5249 312.806 89.5249C312.927 89.5249 313.035 89.5067 313.131 89.4702C313.227 89.4315 313.305 89.3836 313.367 89.3267C313.428 89.2697 313.482 89.1968 313.527 89.1079C313.573 89.019 313.607 88.9347 313.63 88.855C313.655 88.7729 313.673 88.6784 313.685 88.5713C313.698 88.4619 313.706 88.3708 313.708 88.2979C313.713 88.2227 313.715 88.1372 313.715 88.0415V86.5273H314.375V90H313.729V89.4053C313.69 89.4736 313.646 89.5397 313.596 89.6035C313.546 89.6673 313.474 89.7414 313.38 89.8257C313.289 89.9077 313.173 89.9738 313.032 90.0239C312.893 90.0741 312.74 90.0991 312.574 90.0991ZM317.588 90H316.733C316.15 90 315.858 89.7152 315.858 89.1455V87.0742H315.069V86.5273H315.858V85.4438H316.518V86.5273H317.455V87.0742H316.518V89.0908C316.518 89.2093 316.544 89.2959 316.597 89.3506C316.651 89.4053 316.739 89.4326 316.86 89.4326H317.588V90ZM319.871 86.0317H319.44L319.789 85.0439H320.657L319.871 86.0317ZM319.676 90.0991C319.184 90.0991 318.793 89.9396 318.504 89.6206C318.217 89.3016 318.073 88.8538 318.073 88.2773C318.073 87.7191 318.22 87.2725 318.514 86.9375C318.81 86.6003 319.189 86.4316 319.649 86.4316C319.988 86.4316 320.281 86.5194 320.527 86.6948C320.776 86.8703 320.956 87.1095 321.067 87.4126C321.179 87.7157 321.214 88.0552 321.173 88.4312H318.733C318.747 88.8185 318.843 89.1011 319.023 89.2788C319.206 89.4565 319.43 89.5454 319.697 89.5454C320.118 89.5454 320.419 89.3232 320.599 88.8789L321.204 89.0977C321.079 89.4258 320.884 89.6753 320.62 89.8462C320.358 90.0148 320.043 90.0991 319.676 90.0991ZM318.747 87.9082H320.51C320.508 87.6097 320.424 87.3761 320.257 87.2075C320.093 87.0389 319.89 86.9546 319.649 86.9546C319.417 86.9546 319.215 87.0412 319.044 87.2144C318.873 87.3853 318.774 87.6165 318.747 87.9082ZM323.296 90.0991C322.915 90.0991 322.584 90.0125 322.301 89.8394C322.019 89.6662 321.842 89.4212 321.771 89.1045L322.394 88.8994C322.507 89.3392 322.811 89.5591 323.303 89.5591C323.542 89.5591 323.725 89.5181 323.853 89.436C323.981 89.3517 324.044 89.2321 324.044 89.0771C324.044 88.9473 323.998 88.8402 323.904 88.7559C323.811 88.6715 323.65 88.6077 323.422 88.5645L323.002 88.4893C322.838 88.4574 322.695 88.4186 322.575 88.373C322.456 88.3275 322.343 88.2671 322.236 88.1919C322.132 88.1167 322.051 88.0199 321.994 87.9014C321.939 87.7806 321.912 87.6405 321.912 87.481C321.912 87.1756 322.038 86.925 322.291 86.729C322.544 86.5308 322.854 86.4316 323.221 86.4316C323.428 86.4316 323.615 86.4567 323.781 86.5068C323.95 86.5547 324.089 86.6219 324.198 86.7085C324.31 86.7951 324.401 86.8885 324.472 86.9888C324.542 87.089 324.596 87.1973 324.632 87.3135L324.051 87.5356C323.912 87.1483 323.633 86.9546 323.214 86.9546C322.995 86.9546 322.828 86.999 322.711 87.0879C322.597 87.1745 322.541 87.2839 322.541 87.416C322.541 87.5368 322.58 87.6313 322.66 87.6997C322.742 87.7658 322.898 87.8205 323.128 87.8638L323.542 87.9424C324.321 88.1087 324.711 88.4676 324.711 89.019C324.711 89.3517 324.586 89.6149 324.335 89.8086C324.087 90.0023 323.74 90.0991 323.296 90.0991Z" fill="#F1EDE1"/>
<path d="M376.5 35.5L375.88 45.5251C375.722 48.0864 375.643 49.3671 375.001 50.2879C374.683 50.7431 374.275 51.1273 373.801 51.416C372.842 52 371.559 52 368.993 52C366.423 52 365.138 52 364.179 51.4149C363.705 51.1257 363.296 50.7408 362.979 50.2848C362.337 49.3626 362.259 48.0801 362.105 45.5152L361.5 35.5" stroke="#F1EDE1" stroke-width="1.5" stroke-linecap="round"/>
<path d="M360 35.5H378M373.056 35.5L372.373 34.0917C371.92 33.1563 371.693 32.6885 371.302 32.3968C371.215 32.3321 371.123 32.2745 371.027 32.2247C370.594 32 370.074 32 369.035 32C367.969 32 367.436 32 366.996 32.2341C366.898 32.286 366.805 32.3459 366.717 32.4132C366.322 32.7167 366.101 33.2015 365.659 34.1713L365.053 35.5" stroke="#F1EDE1" stroke-width="1.5" stroke-linecap="round"/>
<path d="M366.5 46.5V40.5" stroke="#F1EDE1" stroke-width="1.5" stroke-linecap="round"/>
<path d="M371.5 46.5V40.5" stroke="#F1EDE1" stroke-width="1.5" stroke-linecap="round"/>
<path d="M358.691 88H357.304V81.3896V80.0225C357.03 80.4782 356.654 80.8724 356.176 81.2051C355.702 81.5332 355.201 81.736 354.672 81.8135V80.3574C355.283 80.2116 355.841 79.9564 356.347 79.5918C356.853 79.2272 357.256 78.7624 357.557 78.1973H358.691V88ZM364.249 88.1982C363.233 88.1982 362.412 87.9271 361.788 87.3848C361.164 86.8424 360.817 86.1133 360.749 85.1973L362.219 84.8896C362.246 85.5277 362.442 86.0358 362.807 86.4141C363.176 86.7878 363.657 86.9746 364.249 86.9746C364.791 86.9746 365.238 86.8242 365.589 86.5234C365.94 86.2227 366.115 85.8193 366.115 85.3135C366.115 84.7894 365.94 84.377 365.589 84.0762C365.238 83.7708 364.782 83.6182 364.222 83.6182H363.524V82.4287H364.222C364.714 82.4287 365.126 82.2829 365.459 81.9912C365.792 81.695 365.958 81.3031 365.958 80.8154C365.958 80.3369 365.794 79.9518 365.466 79.6602C365.138 79.3685 364.732 79.2227 364.249 79.2227C363.729 79.2227 363.308 79.3844 362.984 79.708C362.665 80.027 362.481 80.4486 362.431 80.9727L360.988 80.7334C361.052 79.945 361.373 79.2933 361.952 78.7783C362.535 78.2633 363.301 78.0059 364.249 78.0059C365.215 78.0059 365.976 78.2497 366.532 78.7373C367.093 79.2204 367.373 79.8402 367.373 80.5967C367.373 81.18 367.209 81.6768 366.881 82.0869C366.557 82.4971 366.124 82.7887 365.582 82.9619C366.174 83.0986 366.651 83.3926 367.011 83.8438C367.371 84.2904 367.551 84.8395 367.551 85.4912C367.551 86.2568 367.252 86.8994 366.655 87.4189C366.058 87.9385 365.256 88.1982 364.249 88.1982ZM371.092 82.8594H369.301V81.041H371.092V82.8594ZM371.092 88H369.301V86.1816H371.092V88ZM376.451 88H375.063V81.3896V80.0225C374.79 80.4782 374.414 80.8724 373.936 81.2051C373.462 81.5332 372.96 81.736 372.432 81.8135V80.3574C373.042 80.2116 373.601 79.9564 374.106 79.5918C374.612 79.2272 375.016 78.7624 375.316 78.1973H376.451V88ZM382.303 88H380.915V81.3896V80.0225C380.642 80.4782 380.266 80.8724 379.787 81.2051C379.313 81.5332 378.812 81.736 378.283 81.8135V80.3574C378.894 80.2116 379.452 79.9564 379.958 79.5918C380.464 79.2272 380.867 78.7624 381.168 78.1973H382.303V88Z" fill="#F1EDE1"/>
<g style="mix-blend-mode:luminosity">
<line x1="2" y1="108.5" x2="402" y2="108.5" stroke="#590083"/>
</g>
</g>
<defs>
<linearGradient id="paint0_linear_5466_278" x1="13.0278" y1="121" x2="85.0031" y2="-117.3" gradientUnits="userSpaceOnUse">
<stop stop-color="#081134"/>
<stop offset="0.899477" stop-color="#0A1D60"/>
</linearGradient>
<clipPath id="clip0_5466_278">
<rect width="402" height="121" fill="white"/>
</clipPath>
</defs>
</svg>
