<svg width="402" height="329" viewBox="0 0 402 329" fill="none" xmlns="http://www.w3.org/2000/svg">
<g clip-path="url(#clip0_5466_466)">
<rect width="402" height="329" fill="#E3DFD3"/>
<rect width="402" height="329" fill="url(#paint0_linear_5466_466)"/>
<path d="M0 38C0 20.3269 14.3269 6 32 6H370C387.673 6 402 20.3269 402 38V329H0V38Z" fill="white"/>
<path d="M181 24H221" stroke="black" stroke-width="4" stroke-linecap="round"/>
<rect x="20" y="42" width="362" height="48" rx="24" fill="#09174C"/>
<path d="M26 66C26 56.0589 34.0589 48 44 48H66V84H44C34.0589 84 26 75.9411 26 66V66Z" fill="#0B2580"/>
<path d="M45 72H49.5C51.9853 72 54 69.9853 54 67.5C54 65.0147 51.9853 63 49.5 63H38" stroke="#F1EDE1" stroke-width="1.5" stroke-linecap="round" stroke-linejoin="round"/>
<path d="M41 66C41 66 38 63.7905 38 63C38 62.2094 41 60 41 60" stroke="#F1EDE1" stroke-width="1.5" stroke-linecap="round" stroke-linejoin="round"/>
<path d="M108 66C108 75.9411 99.9411 84 90 84L68 84L68 48L90 48C99.9411 48 108 56.0589 108 66V66Z" fill="#0B2580"/>
<path d="M89 72H84.5C82.0147 72 80 69.9853 80 67.5C80 65.0147 82.0147 63 84.5 63H96" stroke="#F1EDE1" stroke-width="1.5" stroke-linecap="round" stroke-linejoin="round"/>
<path d="M93 66C93 66 96 63.7905 96 63C96 62.2094 93 60 93 60" stroke="#F1EDE1" stroke-width="1.5" stroke-linecap="round" stroke-linejoin="round"/>
<path d="M156.082 72.2549C154.541 72.2549 153.313 71.6836 152.399 70.541C151.485 69.3926 151.028 67.7666 151.028 65.6631C151.028 64.6143 151.16 63.6709 151.424 62.833C151.693 61.9893 152.06 61.3037 152.522 60.7764C152.985 60.249 153.519 59.8477 154.122 59.5723C154.726 59.291 155.379 59.1504 156.082 59.1504C156.779 59.1504 157.427 59.291 158.024 59.5723C158.628 59.8477 159.161 60.249 159.624 60.7764C160.087 61.3037 160.45 61.9893 160.714 62.833C160.978 63.6709 161.109 64.6143 161.109 65.6631C161.109 67.7666 160.652 69.3926 159.738 70.541C158.83 71.6836 157.611 72.2549 156.082 72.2549ZM156.082 70.6465C157.061 70.6465 157.828 70.2188 158.385 69.3633C158.941 68.502 159.22 67.2686 159.22 65.6631C159.22 64.1572 158.933 62.9619 158.358 62.0771C157.79 61.1924 157.031 60.75 156.082 60.75C155.115 60.75 154.345 61.1924 153.771 62.0771C153.202 62.9619 152.918 64.1572 152.918 65.6631C152.918 67.2686 153.196 68.502 153.753 69.3633C154.315 70.2188 155.092 70.6465 156.082 70.6465ZM168.211 72.2549C166.67 72.2549 165.442 71.6836 164.528 70.541C163.614 69.3926 163.157 67.7666 163.157 65.6631C163.157 64.6143 163.289 63.6709 163.553 62.833C163.822 61.9893 164.188 61.3037 164.651 60.7764C165.114 60.249 165.647 59.8477 166.251 59.5723C166.854 59.291 167.508 59.1504 168.211 59.1504C168.908 59.1504 169.556 59.291 170.153 59.5723C170.757 59.8477 171.29 60.249 171.753 60.7764C172.216 61.3037 172.579 61.9893 172.843 62.833C173.106 63.6709 173.238 64.6143 173.238 65.6631C173.238 67.7666 172.781 69.3926 171.867 70.541C170.959 71.6836 169.74 72.2549 168.211 72.2549ZM168.211 70.6465C169.189 70.6465 169.957 70.2188 170.514 69.3633C171.07 68.502 171.349 67.2686 171.349 65.6631C171.349 64.1572 171.062 62.9619 170.487 62.0771C169.919 61.1924 169.16 60.75 168.211 60.75C167.244 60.75 166.474 61.1924 165.899 62.0771C165.331 62.9619 165.047 64.1572 165.047 65.6631C165.047 67.2686 165.325 68.502 165.882 69.3633C166.444 70.2188 167.221 70.6465 168.211 70.6465ZM182.353 65.3906H180.05V63.0527H182.353V65.3906ZM182.353 72H180.05V69.6621H182.353V72Z" fill="#868276"/>
<path d="M194.227 72.2549C192.686 72.2549 191.458 71.6836 190.544 70.541C189.63 69.3926 189.173 67.7666 189.173 65.6631C189.173 64.6143 189.305 63.6709 189.568 62.833C189.838 61.9893 190.204 61.3037 190.667 60.7764C191.13 60.249 191.663 59.8477 192.267 59.5723C192.87 59.291 193.523 59.1504 194.227 59.1504C194.924 59.1504 195.571 59.291 196.169 59.5723C196.772 59.8477 197.306 60.249 197.769 60.7764C198.231 61.3037 198.595 61.9893 198.858 62.833C199.122 63.6709 199.254 64.6143 199.254 65.6631C199.254 67.7666 198.797 69.3926 197.883 70.541C196.975 71.6836 195.756 72.2549 194.227 72.2549ZM194.227 70.6465C195.205 70.6465 195.973 70.2188 196.529 69.3633C197.086 68.502 197.364 67.2686 197.364 65.6631C197.364 64.1572 197.077 62.9619 196.503 62.0771C195.935 61.1924 195.176 60.75 194.227 60.75C193.26 60.75 192.489 61.1924 191.915 62.0771C191.347 62.9619 191.062 64.1572 191.062 65.6631C191.062 67.2686 191.341 68.502 191.897 69.3633C192.46 70.2188 193.236 70.6465 194.227 70.6465ZM206.355 72.2549C204.814 72.2549 203.587 71.6836 202.673 70.541C201.759 69.3926 201.302 67.7666 201.302 65.6631C201.302 64.6143 201.434 63.6709 201.697 62.833C201.967 61.9893 202.333 61.3037 202.796 60.7764C203.259 60.249 203.792 59.8477 204.396 59.5723C204.999 59.291 205.652 59.1504 206.355 59.1504C207.053 59.1504 207.7 59.291 208.298 59.5723C208.901 59.8477 209.435 60.249 209.897 60.7764C210.36 61.3037 210.724 61.9893 210.987 62.833C211.251 63.6709 211.383 64.6143 211.383 65.6631C211.383 67.7666 210.926 69.3926 210.012 70.541C209.104 71.6836 207.885 72.2549 206.355 72.2549ZM206.355 70.6465C207.334 70.6465 208.102 70.2188 208.658 69.3633C209.215 68.502 209.493 67.2686 209.493 65.6631C209.493 64.1572 209.206 62.9619 208.632 62.0771C208.063 61.1924 207.305 60.75 206.355 60.75C205.389 60.75 204.618 61.1924 204.044 62.0771C203.476 62.9619 203.191 64.1572 203.191 65.6631C203.191 67.2686 203.47 68.502 204.026 69.3633C204.589 70.2188 205.365 70.6465 206.355 70.6465ZM220.497 65.3906H218.194V63.0527H220.497V65.3906ZM220.497 72H218.194V69.6621H220.497V72ZM232.371 72.2549C230.83 72.2549 229.603 71.6836 228.688 70.541C227.774 69.3926 227.317 67.7666 227.317 65.6631C227.317 64.6143 227.449 63.6709 227.713 62.833C227.982 61.9893 228.349 61.3037 228.812 60.7764C229.274 60.249 229.808 59.8477 230.411 59.5723C231.015 59.291 231.668 59.1504 232.371 59.1504C233.068 59.1504 233.716 59.291 234.313 59.5723C234.917 59.8477 235.45 60.249 235.913 60.7764C236.376 61.3037 236.739 61.9893 237.003 62.833C237.267 63.6709 237.398 64.6143 237.398 65.6631C237.398 67.7666 236.941 69.3926 236.027 70.541C235.119 71.6836 233.9 72.2549 232.371 72.2549ZM232.371 70.6465C233.35 70.6465 234.117 70.2188 234.674 69.3633C235.23 68.502 235.509 67.2686 235.509 65.6631C235.509 64.1572 235.222 62.9619 234.647 62.0771C234.079 61.1924 233.32 60.75 232.371 60.75C231.404 60.75 230.634 61.1924 230.06 62.0771C229.491 62.9619 229.207 64.1572 229.207 65.6631C229.207 67.2686 229.485 68.502 230.042 69.3633C230.604 70.2188 231.381 70.6465 232.371 70.6465ZM243.727 72.2549C242.42 72.2549 241.365 71.9062 240.562 71.209C239.76 70.5117 239.314 69.5742 239.227 68.3965L241.116 68.001C241.151 68.8213 241.403 69.4746 241.872 69.9609C242.347 70.4414 242.965 70.6816 243.727 70.6816C244.424 70.6816 244.998 70.4883 245.449 70.1016C245.9 69.7148 246.126 69.1963 246.126 68.5459C246.126 67.8721 245.9 67.3418 245.449 66.9551C244.998 66.5625 244.412 66.3662 243.691 66.3662H242.795V64.8369H243.691C244.324 64.8369 244.854 64.6494 245.282 64.2744C245.71 63.8936 245.924 63.3896 245.924 62.7627C245.924 62.1475 245.713 61.6523 245.291 61.2773C244.869 60.9023 244.348 60.7148 243.727 60.7148C243.059 60.7148 242.517 60.9229 242.101 61.3389C241.69 61.749 241.453 62.291 241.389 62.9648L239.534 62.6572C239.616 61.6436 240.029 60.8057 240.773 60.1436C241.523 59.4814 242.508 59.1504 243.727 59.1504C244.969 59.1504 245.947 59.4639 246.662 60.0908C247.383 60.7119 247.743 61.5088 247.743 62.4814C247.743 63.2314 247.532 63.8701 247.11 64.3975C246.694 64.9248 246.138 65.2998 245.44 65.5225C246.202 65.6982 246.814 66.0762 247.277 66.6562C247.74 67.2305 247.972 67.9365 247.972 68.7744C247.972 69.7588 247.588 70.585 246.82 71.2529C246.053 71.9209 245.021 72.2549 243.727 72.2549Z" fill="#F1EDE1"/>
<rect x="292" y="48" width="36" height="36" rx="18" fill="#0B2580"/>
<path d="M306.065 65.3742C306.319 64.1626 307.673 63.2923 310.38 61.5519C313.325 59.6589 314.797 58.7124 315.989 59.0771C316.393 59.2006 316.765 59.4177 317.078 59.7124C318 60.5822 318 62.3882 318 66C318 69.6118 318 71.4178 317.078 72.2877C316.765 72.5823 316.393 72.7994 315.989 72.9229C314.797 73.2876 313.325 72.3411 310.38 70.4481C307.673 68.7077 306.319 67.8374 306.065 66.6258C305.978 66.2135 305.978 65.7865 306.065 65.3742Z" fill="#F1EDE1" stroke="#F1EDE1" stroke-width="1.5" stroke-linejoin="round"/>
<path d="M302 73V59" stroke="#F1EDE1" stroke-width="1.5" stroke-linecap="round"/>
<rect x="340" y="48" width="36" height="36" rx="18" fill="#FF4775"/>
<path d="M358 76C363.523 76 368 71.5228 368 66C368 60.4772 363.523 56 358 56C352.477 56 348 60.4772 348 66C348 71.5228 352.477 76 358 76Z" stroke="#F1EDE1" stroke-width="1.5"/>
<path d="M355.5 63V69M360.5 63V69" stroke="#F1EDE1" stroke-width="1.5" stroke-linecap="round" stroke-linejoin="round"/>
<path d="M21.488 130V118.8H22.848V128.768H28.128V130H21.488ZM34.3605 130L34.2965 128.688V125.776C34.2965 125.147 34.2272 124.629 34.0885 124.224C33.9498 123.808 33.7312 123.493 33.4325 123.28C33.1338 123.067 32.7445 122.96 32.2645 122.96C31.8272 122.96 31.4485 123.051 31.1285 123.232C30.8192 123.403 30.5632 123.68 30.3605 124.064L29.2085 123.616C29.4112 123.243 29.6565 122.923 29.9445 122.656C30.2325 122.379 30.5685 122.171 30.9525 122.032C31.3365 121.883 31.7738 121.808 32.2645 121.808C33.0112 121.808 33.6245 121.957 34.1045 122.256C34.5952 122.544 34.9632 122.976 35.2085 123.552C35.4538 124.117 35.5712 124.821 35.5605 125.664L35.5445 130H34.3605ZM31.9605 130.192C31.0218 130.192 30.2858 129.979 29.7525 129.552C29.2298 129.115 28.9685 128.512 28.9685 127.744C28.9685 126.933 29.2352 126.315 29.7685 125.888C30.3125 125.451 31.0698 125.232 32.0405 125.232H34.3285V126.304H32.3285C31.5818 126.304 31.0485 126.427 30.7285 126.672C30.4192 126.917 30.2645 127.269 30.2645 127.728C30.2645 128.144 30.4192 128.475 30.7285 128.72C31.0378 128.955 31.4698 129.072 32.0245 129.072C32.4832 129.072 32.8832 128.976 33.2245 128.784C33.5658 128.581 33.8272 128.299 34.0085 127.936C34.2005 127.563 34.2965 127.125 34.2965 126.624H34.8405C34.8405 127.712 34.5952 128.581 34.1045 129.232C33.6138 129.872 32.8992 130.192 31.9605 130.192ZM37.5888 130V122H38.7888L38.8688 123.472V130H37.5888ZM43.2048 130V125.904H44.4848V130H43.2048ZM43.2048 125.904C43.2048 125.115 43.1141 124.512 42.9328 124.096C42.7514 123.68 42.5008 123.397 42.1808 123.248C41.8608 123.088 41.4981 123.008 41.0928 123.008C40.3888 123.008 39.8394 123.259 39.4448 123.76C39.0608 124.251 38.8688 124.949 38.8688 125.856H38.2448C38.2448 125.013 38.3674 124.288 38.6128 123.68C38.8581 123.072 39.2154 122.608 39.6848 122.288C40.1541 121.968 40.7194 121.808 41.3808 121.808C42.0101 121.808 42.5541 121.936 43.0128 122.192C43.4821 122.437 43.8448 122.832 44.1008 123.376C44.3674 123.92 44.4954 124.635 44.4848 125.52V125.904H43.2048ZM50.0146 130.192C49.236 130.192 48.548 130.016 47.9506 129.664C47.3533 129.301 46.884 128.805 46.5426 128.176C46.212 127.547 46.0466 126.821 46.0466 126C46.0466 125.179 46.212 124.453 46.5426 123.824C46.884 123.195 47.348 122.704 47.9346 122.352C48.532 121.989 49.2146 121.808 49.9826 121.808C50.7293 121.808 51.3746 121.995 51.9186 122.368C52.4626 122.731 52.884 123.243 53.1826 123.904C53.4813 124.565 53.6306 125.344 53.6306 126.24H47.0226L47.3426 125.968C47.3426 126.608 47.4546 127.157 47.6786 127.616C47.9133 128.075 48.2386 128.427 48.6546 128.672C49.0706 128.907 49.5453 129.024 50.0786 129.024C50.644 129.024 51.1186 128.891 51.5026 128.624C51.8973 128.357 52.2013 128.005 52.4146 127.568L53.5186 128.128C53.316 128.544 53.044 128.907 52.7026 129.216C52.372 129.525 51.9773 129.765 51.5186 129.936C51.0706 130.107 50.5693 130.192 50.0146 130.192ZM47.4226 125.424L47.0866 125.168H52.6066L52.2706 125.44C52.2706 124.928 52.1693 124.485 51.9666 124.112C51.764 123.739 51.492 123.451 51.1506 123.248C50.8093 123.045 50.4146 122.944 49.9666 122.944C49.5293 122.944 49.1133 123.045 48.7186 123.248C48.3346 123.451 48.02 123.739 47.7746 124.112C47.54 124.475 47.4226 124.912 47.4226 125.424ZM60.0941 123.744C59.8488 123.744 59.6355 123.659 59.4541 123.488C59.2835 123.317 59.1981 123.109 59.1981 122.864C59.1981 122.619 59.2835 122.411 59.4541 122.24C59.6355 122.059 59.8488 121.968 60.0941 121.968C60.3288 121.968 60.5315 122.059 60.7021 122.24C60.8835 122.411 60.9741 122.619 60.9741 122.864C60.9741 123.109 60.8835 123.317 60.7021 123.488C60.5315 123.659 60.3288 123.744 60.0941 123.744ZM60.1101 130.032C59.8648 130.032 59.6568 129.947 59.4861 129.776C59.3155 129.595 59.2301 129.381 59.2301 129.136C59.2301 128.891 59.3155 128.683 59.4861 128.512C59.6568 128.341 59.8648 128.256 60.1101 128.256C60.3555 128.256 60.5635 128.341 60.7341 128.512C60.9155 128.683 61.0061 128.891 61.0061 129.136C61.0061 129.381 60.9155 129.595 60.7341 129.776C60.5635 129.947 60.3555 130.032 60.1101 130.032ZM66.9901 130V128.88C66.9901 128.528 67.0595 128.181 67.1981 127.84C67.3475 127.488 67.5555 127.141 67.8221 126.8C68.0995 126.459 68.4355 126.139 68.8301 125.84L71.1501 124.096C71.4275 123.904 71.6675 123.685 71.8701 123.44C72.0835 123.184 72.2488 122.923 72.3661 122.656C72.4835 122.379 72.5421 122.112 72.5421 121.856C72.5421 121.483 72.4515 121.147 72.2701 120.848C72.0888 120.539 71.8328 120.293 71.5021 120.112C71.1715 119.931 70.7821 119.84 70.3341 119.84C69.8968 119.84 69.5128 119.925 69.1821 120.096C68.8515 120.256 68.5795 120.475 68.3661 120.752C68.1528 121.019 67.9981 121.307 67.9021 121.616L66.5261 121.344C66.6541 120.864 66.8835 120.416 67.2141 120C67.5555 119.584 67.9875 119.248 68.5101 118.992C69.0328 118.736 69.6141 118.608 70.2541 118.608C71.0008 118.608 71.6461 118.752 72.1901 119.04C72.7341 119.317 73.1555 119.701 73.4541 120.192C73.7635 120.672 73.9181 121.221 73.9181 121.84C73.9181 122.427 73.7581 122.981 73.4381 123.504C73.1181 124.027 72.6541 124.533 72.0461 125.024L69.8541 126.688C69.4275 127.008 69.0968 127.344 68.8621 127.696C68.6381 128.048 68.5101 128.416 68.4781 128.8H74.0781V130H66.9901Z" fill="#868276"/>
<path d="M21.328 158V146.8H23.184V156.304H28.256V158H21.328ZM33.0444 158.192C32.2657 158.192 31.5724 158.016 30.9644 157.664C30.367 157.301 29.8924 156.805 29.5404 156.176C29.199 155.547 29.0284 154.821 29.0284 154C29.0284 153.179 29.2044 152.453 29.5564 151.824C29.9084 151.195 30.3884 150.704 30.9964 150.352C31.615 149.989 32.319 149.808 33.1084 149.808C33.823 149.808 34.4684 149.995 35.0444 150.368C35.6204 150.731 36.0737 151.259 36.4044 151.952C36.7457 152.645 36.9164 153.472 36.9164 154.432H30.6284L30.8684 154.208C30.8684 154.699 30.975 155.125 31.1884 155.488C31.4017 155.84 31.6844 156.112 32.0364 156.304C32.3884 156.496 32.7777 156.592 33.2044 156.592C33.695 156.592 34.1004 156.485 34.4204 156.272C34.7404 156.048 34.991 155.76 35.1724 155.408L36.7564 156.08C36.5324 156.507 36.2444 156.88 35.8924 157.2C35.551 157.52 35.1404 157.765 34.6604 157.936C34.191 158.107 33.6524 158.192 33.0444 158.192ZM30.9804 153.28L30.7244 153.056H35.2364L34.9964 153.28C34.9964 152.843 34.9004 152.485 34.7084 152.208C34.5164 151.92 34.271 151.707 33.9724 151.568C33.6844 151.419 33.3804 151.344 33.0604 151.344C32.7404 151.344 32.4204 151.419 32.1004 151.568C31.7804 151.707 31.5137 151.92 31.3004 152.208C31.087 152.485 30.9804 152.843 30.9804 153.28ZM45.8923 158.192C45.0709 158.192 44.3456 158.016 43.7163 157.664C43.0869 157.301 42.5909 156.805 42.2283 156.176C41.8763 155.547 41.7003 154.821 41.7003 154C41.7003 153.179 41.8763 152.453 42.2283 151.824C42.5909 151.195 43.0816 150.704 43.7003 150.352C44.3296 149.989 45.0496 149.808 45.8602 149.808C46.6496 149.808 47.3643 150 48.0043 150.384C48.6443 150.757 49.1189 151.296 49.4283 152L47.7643 152.64C47.5936 152.288 47.3323 152.005 46.9803 151.792C46.6283 151.579 46.2283 151.472 45.7803 151.472C45.3429 151.472 44.9536 151.584 44.6123 151.808C44.2709 152.021 44.0043 152.32 43.8123 152.704C43.6203 153.077 43.5243 153.509 43.5243 154C43.5243 154.491 43.6203 154.928 43.8123 155.312C44.0149 155.685 44.2869 155.984 44.6283 156.208C44.9803 156.421 45.3749 156.528 45.8123 156.528C46.2603 156.528 46.6603 156.416 47.0123 156.192C47.3643 155.957 47.6256 155.643 47.7963 155.248L49.4603 155.888C49.1509 156.613 48.6763 157.179 48.0363 157.584C47.4069 157.989 46.6923 158.192 45.8923 158.192ZM50.8674 158V146.8H52.6594V158H50.8674ZM56.2914 158V153.904H58.0834V158H56.2914ZM56.2914 153.904C56.2914 153.264 56.2167 152.773 56.0674 152.432C55.918 152.08 55.71 151.835 55.4434 151.696C55.1874 151.557 54.8887 151.488 54.5474 151.488C53.9394 151.477 53.47 151.675 53.1394 152.08C52.8194 152.485 52.6594 153.067 52.6594 153.824H51.9714C51.9714 152.981 52.094 152.261 52.3394 151.664C52.5954 151.056 52.9527 150.597 53.4114 150.288C53.87 149.968 54.414 149.808 55.0434 149.808C55.6727 149.808 56.2167 149.936 56.6754 150.192C57.134 150.448 57.4807 150.848 57.7154 151.392C57.9607 151.925 58.0834 152.624 58.0834 153.488V153.904H56.2914ZM64.7783 158L64.6983 156.496V153.888C64.6983 153.344 64.6396 152.891 64.5223 152.528C64.4156 152.155 64.2343 151.872 63.9783 151.68C63.7329 151.477 63.4023 151.376 62.9863 151.376C62.6023 151.376 62.2663 151.456 61.9783 151.616C61.6903 151.776 61.4449 152.027 61.2423 152.368L59.6743 151.792C59.8449 151.44 60.0689 151.115 60.3463 150.816C60.6343 150.507 60.9916 150.261 61.4183 150.08C61.8556 149.899 62.3783 149.808 62.9863 149.808C63.7649 149.808 64.4156 149.963 64.9383 150.272C65.4609 150.571 65.8449 151.003 66.0903 151.568C66.3463 152.133 66.4743 152.816 66.4743 153.616L66.4263 158H64.7783ZM62.4743 158.192C61.5143 158.192 60.7676 157.979 60.2343 157.552C59.7116 157.125 59.4503 156.523 59.4503 155.744C59.4503 154.912 59.7276 154.277 60.2823 153.84C60.8476 153.403 61.6316 153.184 62.6343 153.184H64.7783V154.56H63.2103C62.4956 154.56 61.9943 154.661 61.7063 154.864C61.4183 155.056 61.2743 155.333 61.2743 155.696C61.2743 156.005 61.3969 156.251 61.6423 156.432C61.8983 156.603 62.2503 156.688 62.6983 156.688C63.1036 156.688 63.4556 156.597 63.7543 156.416C64.0529 156.235 64.2823 155.995 64.4423 155.696C64.6129 155.397 64.6983 155.061 64.6983 154.688H65.2263C65.2263 155.776 65.0076 156.635 64.5703 157.264C64.1329 157.883 63.4343 158.192 62.4743 158.192ZM68.2889 158V150H69.9689L70.0809 151.472V158H68.2889ZM73.7129 158V153.904H75.5049V158H73.7129ZM73.7129 153.904C73.7129 153.264 73.6382 152.773 73.4889 152.432C73.3502 152.08 73.1475 151.835 72.8809 151.696C72.6249 151.557 72.3209 151.488 71.9689 151.488C71.3715 151.477 70.9075 151.675 70.5769 152.08C70.2462 152.485 70.0809 153.067 70.0809 153.824H69.4089C69.4089 152.981 69.5315 152.261 69.7769 151.664C70.0222 151.056 70.3742 150.597 70.8329 150.288C71.2915 149.968 71.8355 149.808 72.4649 149.808C73.1049 149.808 73.6489 149.936 74.0969 150.192C74.5555 150.448 74.9022 150.848 75.1369 151.392C75.3822 151.925 75.5049 152.624 75.5049 153.488V153.904H73.7129ZM80.7601 161.408C80.1948 161.408 79.6828 161.36 79.2241 161.264C78.7761 161.168 78.3975 161.056 78.0881 160.928C77.7788 160.8 77.5388 160.677 77.3681 160.56L78.0561 159.12C78.2055 159.195 78.4028 159.285 78.6481 159.392C78.9041 159.509 79.2028 159.611 79.5441 159.696C79.8855 159.781 80.2695 159.824 80.6961 159.824C81.1548 159.824 81.5655 159.728 81.9281 159.536C82.2908 159.355 82.5735 159.072 82.7761 158.688C82.9788 158.304 83.0801 157.813 83.0801 157.216V150H84.8721V157.168C84.8721 158.075 84.7015 158.843 84.3601 159.472C84.0188 160.112 83.5388 160.592 82.9201 160.912C82.3015 161.243 81.5815 161.408 80.7601 161.408ZM80.4881 157.84C79.7628 157.84 79.1281 157.675 78.5841 157.344C78.0508 157.013 77.6295 156.555 77.3201 155.968C77.0215 155.371 76.8721 154.683 76.8721 153.904C76.8721 153.072 77.0215 152.352 77.3201 151.744C77.6295 151.136 78.0508 150.661 78.5841 150.32C79.1281 149.979 79.7628 149.808 80.4881 149.808C81.1388 149.808 81.7041 149.979 82.1841 150.32C82.6748 150.661 83.0535 151.141 83.3201 151.76C83.5868 152.368 83.7201 153.088 83.7201 153.92C83.7201 154.709 83.5868 155.397 83.3201 155.984C83.0535 156.571 82.6748 157.029 82.1841 157.36C81.7041 157.68 81.1388 157.84 80.4881 157.84ZM80.9841 156.32C81.3895 156.32 81.7415 156.213 82.0401 156C82.3495 155.787 82.5895 155.499 82.7601 155.136C82.9308 154.763 83.0161 154.336 83.0161 153.856C83.0161 153.365 82.9308 152.939 82.7601 152.576C82.5895 152.203 82.3495 151.915 82.0401 151.712C81.7308 151.499 81.3735 151.392 80.9681 151.392C80.5415 151.392 80.1628 151.499 79.8321 151.712C79.5121 151.915 79.2561 152.203 79.0641 152.576C78.8828 152.939 78.7921 153.365 78.7921 153.856C78.7921 154.336 78.8828 154.763 79.0641 155.136C79.2561 155.499 79.5175 155.787 79.8481 156C80.1788 156.213 80.5575 156.32 80.9841 156.32ZM90.4194 158.192C89.6407 158.192 88.9474 158.016 88.3394 157.664C87.742 157.301 87.2674 156.805 86.9154 156.176C86.574 155.547 86.4034 154.821 86.4034 154C86.4034 153.179 86.5794 152.453 86.9314 151.824C87.2834 151.195 87.7634 150.704 88.3714 150.352C88.99 149.989 89.694 149.808 90.4834 149.808C91.198 149.808 91.8434 149.995 92.4194 150.368C92.9954 150.731 93.4487 151.259 93.7794 151.952C94.1207 152.645 94.2914 153.472 94.2914 154.432H88.0034L88.2434 154.208C88.2434 154.699 88.35 155.125 88.5634 155.488C88.7767 155.84 89.0594 156.112 89.4114 156.304C89.7634 156.496 90.1527 156.592 90.5794 156.592C91.07 156.592 91.4754 156.485 91.7954 156.272C92.1154 156.048 92.366 155.76 92.5474 155.408L94.1314 156.08C93.9074 156.507 93.6194 156.88 93.2674 157.2C92.926 157.52 92.5154 157.765 92.0354 157.936C91.566 158.107 91.0274 158.192 90.4194 158.192ZM88.3554 153.28L88.0994 153.056H92.6114L92.3714 153.28C92.3714 152.843 92.2754 152.485 92.0834 152.208C91.8914 151.92 91.646 151.707 91.3474 151.568C91.0594 151.419 90.7554 151.344 90.4354 151.344C90.1154 151.344 89.7954 151.419 89.4754 151.568C89.1554 151.707 88.8887 151.92 88.6754 152.208C88.462 152.485 88.3554 152.843 88.3554 153.28ZM95.6639 158V150H97.3439L97.4239 151.072C97.6692 150.656 97.9839 150.341 98.3679 150.128C98.7519 149.915 99.1892 149.808 99.6799 149.808C100.32 149.808 100.864 149.952 101.312 150.24C101.76 150.528 102.085 150.965 102.288 151.552C102.523 150.987 102.853 150.555 103.28 150.256C103.707 149.957 104.208 149.808 104.784 149.808C105.712 149.808 106.427 150.107 106.928 150.704C107.429 151.291 107.675 152.197 107.664 153.424V158H105.888V153.904C105.888 153.264 105.819 152.773 105.68 152.432C105.541 152.08 105.355 151.835 105.12 151.696C104.885 151.557 104.613 151.488 104.304 151.488C103.749 151.477 103.317 151.675 103.008 152.08C102.709 152.485 102.56 153.067 102.56 153.824V158H100.768V153.904C100.768 153.264 100.699 152.773 100.56 152.432C100.432 152.08 100.251 151.835 100.016 151.696C99.7812 151.557 99.5092 151.488 99.1999 151.488C98.6452 151.477 98.2132 151.675 97.9039 152.08C97.6052 152.485 97.4559 153.067 97.4559 153.824V158H95.6639ZM113.06 158.192C112.281 158.192 111.588 158.016 110.98 157.664C110.383 157.301 109.908 156.805 109.556 156.176C109.215 155.547 109.044 154.821 109.044 154C109.044 153.179 109.22 152.453 109.572 151.824C109.924 151.195 110.404 150.704 111.012 150.352C111.631 149.989 112.335 149.808 113.124 149.808C113.839 149.808 114.484 149.995 115.06 150.368C115.636 150.731 116.089 151.259 116.42 151.952C116.761 152.645 116.932 153.472 116.932 154.432H110.644L110.884 154.208C110.884 154.699 110.991 155.125 111.204 155.488C111.417 155.84 111.7 156.112 112.052 156.304C112.404 156.496 112.793 156.592 113.22 156.592C113.711 156.592 114.116 156.485 114.436 156.272C114.756 156.048 115.007 155.76 115.188 155.408L116.772 156.08C116.548 156.507 116.26 156.88 115.908 157.2C115.567 157.52 115.156 157.765 114.676 157.936C114.207 158.107 113.668 158.192 113.06 158.192ZM110.996 153.28L110.74 153.056H115.252L115.012 153.28C115.012 152.843 114.916 152.485 114.724 152.208C114.532 151.92 114.287 151.707 113.988 151.568C113.7 151.419 113.396 151.344 113.076 151.344C112.756 151.344 112.436 151.419 112.116 151.568C111.796 151.707 111.529 151.92 111.316 152.208C111.103 152.485 110.996 152.843 110.996 153.28ZM118.305 158V150H119.985L120.097 151.472V158H118.305ZM123.729 158V153.904H125.521V158H123.729ZM123.729 153.904C123.729 153.264 123.654 152.773 123.505 152.432C123.366 152.08 123.163 151.835 122.897 151.696C122.641 151.557 122.337 151.488 121.985 151.488C121.387 151.477 120.923 151.675 120.593 152.08C120.262 152.485 120.097 153.067 120.097 153.824H119.424C119.424 152.981 119.547 152.261 119.793 151.664C120.038 151.056 120.39 150.597 120.849 150.288C121.307 149.968 121.851 149.808 122.481 149.808C123.121 149.808 123.665 149.936 124.113 150.192C124.571 150.448 124.918 150.848 125.153 151.392C125.398 151.925 125.521 152.624 125.521 153.488V153.904H123.729ZM130.52 158.192C129.677 158.192 129.032 157.984 128.584 157.568C128.146 157.141 127.928 156.533 127.928 155.744V147.504H129.704V155.408C129.704 155.781 129.789 156.064 129.96 156.256C130.141 156.448 130.402 156.544 130.744 156.544C130.85 156.544 130.968 156.523 131.096 156.48C131.224 156.437 131.368 156.357 131.528 156.24L132.184 157.6C131.906 157.792 131.629 157.936 131.352 158.032C131.074 158.139 130.797 158.192 130.52 158.192ZM126.6 151.536V150H131.864V151.536H126.6ZM137.556 161.2V150H139.236L139.348 151.472V161.2H137.556ZM141.876 158.192C141.204 158.192 140.623 158.021 140.132 157.68C139.652 157.328 139.284 156.837 139.028 156.208C138.772 155.579 138.644 154.843 138.644 154C138.644 153.147 138.772 152.411 139.028 151.792C139.284 151.163 139.652 150.677 140.132 150.336C140.623 149.984 141.204 149.808 141.876 149.808C142.602 149.808 143.231 149.984 143.764 150.336C144.308 150.677 144.73 151.163 145.028 151.792C145.338 152.411 145.492 153.147 145.492 154C145.492 154.843 145.338 155.579 145.028 156.208C144.73 156.837 144.308 157.328 143.764 157.68C143.231 158.021 142.602 158.192 141.876 158.192ZM141.428 156.56C141.855 156.56 142.234 156.453 142.564 156.24C142.895 156.016 143.156 155.712 143.348 155.328C143.551 154.944 143.652 154.501 143.652 154C143.652 153.499 143.556 153.056 143.364 152.672C143.183 152.288 142.927 151.989 142.596 151.776C142.266 151.563 141.882 151.456 141.444 151.456C141.039 151.456 140.676 151.563 140.356 151.776C140.036 151.989 139.786 152.288 139.604 152.672C139.434 153.056 139.348 153.499 139.348 154C139.348 154.501 139.434 154.944 139.604 155.328C139.786 155.712 140.031 156.016 140.34 156.24C140.66 156.453 141.023 156.56 141.428 156.56ZM151.903 158L151.823 156.496V153.888C151.823 153.344 151.765 152.891 151.647 152.528C151.541 152.155 151.359 151.872 151.103 151.68C150.858 151.477 150.527 151.376 150.111 151.376C149.727 151.376 149.391 151.456 149.103 151.616C148.815 151.776 148.57 152.027 148.367 152.368L146.799 151.792C146.97 151.44 147.194 151.115 147.471 150.816C147.759 150.507 148.117 150.261 148.543 150.08C148.981 149.899 149.503 149.808 150.111 149.808C150.89 149.808 151.541 149.963 152.063 150.272C152.586 150.571 152.97 151.003 153.215 151.568C153.471 152.133 153.599 152.816 153.599 153.616L153.551 158H151.903ZM149.599 158.192C148.639 158.192 147.893 157.979 147.359 157.552C146.837 157.125 146.575 156.523 146.575 155.744C146.575 154.912 146.853 154.277 147.407 153.84C147.973 153.403 148.757 153.184 149.759 153.184H151.903V154.56H150.335C149.621 154.56 149.119 154.661 148.831 154.864C148.543 155.056 148.399 155.333 148.399 155.696C148.399 156.005 148.522 156.251 148.767 156.432C149.023 156.603 149.375 156.688 149.823 156.688C150.229 156.688 150.581 156.597 150.879 156.416C151.178 156.235 151.407 155.995 151.567 155.696C151.738 155.397 151.823 155.061 151.823 154.688H152.351C152.351 155.776 152.133 156.635 151.695 157.264C151.258 157.883 150.559 158.192 149.599 158.192ZM158.326 158.192C157.793 158.192 157.302 158.112 156.854 157.952C156.406 157.792 156.022 157.568 155.702 157.28C155.382 156.981 155.137 156.635 154.966 156.24L156.518 155.552C156.678 155.851 156.913 156.101 157.222 156.304C157.542 156.507 157.894 156.608 158.278 156.608C158.694 156.608 159.025 156.539 159.27 156.4C159.526 156.251 159.654 156.048 159.654 155.792C159.654 155.547 159.558 155.36 159.366 155.232C159.174 155.093 158.902 154.981 158.55 154.896L157.798 154.688C157.041 154.496 156.449 154.192 156.022 153.776C155.595 153.349 155.382 152.864 155.382 152.32C155.382 151.52 155.638 150.901 156.15 150.464C156.673 150.027 157.419 149.808 158.39 149.808C158.881 149.808 159.329 149.883 159.734 150.032C160.15 150.171 160.507 150.373 160.806 150.64C161.105 150.896 161.313 151.2 161.43 151.552L159.942 152.224C159.835 151.957 159.633 151.755 159.334 151.616C159.035 151.467 158.705 151.392 158.342 151.392C157.979 151.392 157.697 151.472 157.494 151.632C157.291 151.781 157.19 151.995 157.19 152.272C157.19 152.432 157.281 152.581 157.462 152.72C157.643 152.848 157.905 152.955 158.246 153.04L159.19 153.264C159.713 153.392 160.139 153.595 160.47 153.872C160.801 154.139 161.046 154.443 161.206 154.784C161.366 155.115 161.446 155.451 161.446 155.792C161.446 156.272 161.307 156.693 161.03 157.056C160.763 157.419 160.395 157.701 159.926 157.904C159.457 158.096 158.923 158.192 158.326 158.192ZM165.763 158.192C165.23 158.192 164.739 158.112 164.291 157.952C163.843 157.792 163.459 157.568 163.139 157.28C162.819 156.981 162.574 156.635 162.403 156.24L163.955 155.552C164.115 155.851 164.35 156.101 164.659 156.304C164.979 156.507 165.331 156.608 165.715 156.608C166.131 156.608 166.462 156.539 166.707 156.4C166.963 156.251 167.091 156.048 167.091 155.792C167.091 155.547 166.995 155.36 166.803 155.232C166.611 155.093 166.339 154.981 165.987 154.896L165.235 154.688C164.478 154.496 163.886 154.192 163.459 153.776C163.033 153.349 162.819 152.864 162.819 152.32C162.819 151.52 163.075 150.901 163.587 150.464C164.11 150.027 164.857 149.808 165.827 149.808C166.318 149.808 166.766 149.883 167.171 150.032C167.587 150.171 167.945 150.373 168.243 150.64C168.542 150.896 168.75 151.2 168.867 151.552L167.379 152.224C167.273 151.957 167.07 151.755 166.771 151.616C166.473 151.467 166.142 151.392 165.779 151.392C165.417 151.392 165.134 151.472 164.931 151.632C164.729 151.781 164.627 151.995 164.627 152.272C164.627 152.432 164.718 152.581 164.899 152.72C165.081 152.848 165.342 152.955 165.683 153.04L166.627 153.264C167.15 153.392 167.577 153.595 167.907 153.872C168.238 154.139 168.483 154.443 168.643 154.784C168.803 155.115 168.883 155.451 168.883 155.792C168.883 156.272 168.745 156.693 168.467 157.056C168.201 157.419 167.833 157.701 167.363 157.904C166.894 158.096 166.361 158.192 165.763 158.192ZM173.873 158.192C173.094 158.192 172.401 158.016 171.793 157.664C171.195 157.301 170.721 156.805 170.368 156.176C170.027 155.547 169.857 154.821 169.857 154C169.857 153.179 170.033 152.453 170.385 151.824C170.737 151.195 171.217 150.704 171.825 150.352C172.443 149.989 173.147 149.808 173.937 149.808C174.651 149.808 175.297 149.995 175.873 150.368C176.449 150.731 176.902 151.259 177.233 151.952C177.574 152.645 177.745 153.472 177.745 154.432H171.457L171.697 154.208C171.697 154.699 171.803 155.125 172.017 155.488C172.23 155.84 172.513 156.112 172.865 156.304C173.217 156.496 173.606 156.592 174.033 156.592C174.523 156.592 174.929 156.485 175.249 156.272C175.569 156.048 175.819 155.76 176.001 155.408L177.585 156.08C177.361 156.507 177.073 156.88 176.721 157.2C176.379 157.52 175.969 157.765 175.489 157.936C175.019 158.107 174.481 158.192 173.873 158.192ZM171.809 153.28L171.553 153.056H176.065L175.825 153.28C175.825 152.843 175.729 152.485 175.537 152.208C175.345 151.92 175.099 151.707 174.801 151.568C174.513 151.419 174.209 151.344 173.889 151.344C173.569 151.344 173.249 151.419 172.929 151.568C172.609 151.707 172.342 151.92 172.129 152.208C171.915 152.485 171.809 152.843 171.809 153.28ZM180.301 153.744C180.301 152.88 180.466 152.171 180.797 151.616C181.128 151.061 181.554 150.651 182.077 150.384C182.61 150.107 183.165 149.968 183.741 149.968V151.68C183.25 151.68 182.786 151.749 182.349 151.888C181.922 152.016 181.576 152.229 181.309 152.528C181.042 152.827 180.909 153.221 180.909 153.712L180.301 153.744ZM179.117 158V150H180.909V158H179.117ZM189.81 158L189.73 156.496V153.888C189.73 153.344 189.671 152.891 189.554 152.528C189.447 152.155 189.266 151.872 189.01 151.68C188.764 151.477 188.434 151.376 188.018 151.376C187.634 151.376 187.298 151.456 187.01 151.616C186.722 151.776 186.476 152.027 186.274 152.368L184.706 151.792C184.876 151.44 185.1 151.115 185.378 150.816C185.666 150.507 186.023 150.261 186.45 150.08C186.887 149.899 187.41 149.808 188.018 149.808C188.796 149.808 189.447 149.963 189.97 150.272C190.492 150.571 190.876 151.003 191.122 151.568C191.378 152.133 191.506 152.816 191.506 153.616L191.458 158H189.81ZM187.506 158.192C186.546 158.192 185.799 157.979 185.266 157.552C184.743 157.125 184.482 156.523 184.482 155.744C184.482 154.912 184.759 154.277 185.314 153.84C185.879 153.403 186.663 153.184 187.666 153.184H189.81V154.56H188.242C187.527 154.56 187.026 154.661 186.738 154.864C186.45 155.056 186.306 155.333 186.306 155.696C186.306 156.005 186.428 156.251 186.674 156.432C186.93 156.603 187.282 156.688 187.73 156.688C188.135 156.688 188.487 156.597 188.786 156.416C189.084 156.235 189.314 155.995 189.474 155.696C189.644 155.397 189.73 155.061 189.73 154.688H190.258C190.258 155.776 190.039 156.635 189.602 157.264C189.164 157.883 188.466 158.192 187.506 158.192ZM197.26 161.2V150H198.94L199.052 151.472V161.2H197.26ZM201.58 158.192C200.908 158.192 200.326 158.021 199.836 157.68C199.356 157.328 198.988 156.837 198.732 156.208C198.476 155.579 198.348 154.843 198.348 154C198.348 153.147 198.476 152.411 198.732 151.792C198.988 151.163 199.356 150.677 199.836 150.336C200.326 149.984 200.908 149.808 201.58 149.808C202.305 149.808 202.934 149.984 203.468 150.336C204.012 150.677 204.433 151.163 204.732 151.792C205.041 152.411 205.196 153.147 205.196 154C205.196 154.843 205.041 155.579 204.732 156.208C204.433 156.837 204.012 157.328 203.468 157.68C202.934 158.021 202.305 158.192 201.58 158.192ZM201.132 156.56C201.558 156.56 201.937 156.453 202.268 156.24C202.598 156.016 202.86 155.712 203.052 155.328C203.254 154.944 203.356 154.501 203.356 154C203.356 153.499 203.26 153.056 203.068 152.672C202.886 152.288 202.63 151.989 202.3 151.776C201.969 151.563 201.585 151.456 201.148 151.456C200.742 151.456 200.38 151.563 200.06 151.776C199.74 151.989 199.489 152.288 199.308 152.672C199.137 153.056 199.052 153.499 199.052 154C199.052 154.501 199.137 154.944 199.308 155.328C199.489 155.712 199.734 156.016 200.044 156.24C200.364 156.453 200.726 156.56 201.132 156.56ZM211.606 158L211.526 156.496V153.888C211.526 153.344 211.468 152.891 211.35 152.528C211.244 152.155 211.062 151.872 210.806 151.68C210.561 151.477 210.23 151.376 209.814 151.376C209.43 151.376 209.094 151.456 208.806 151.616C208.518 151.776 208.273 152.027 208.07 152.368L206.502 151.792C206.673 151.44 206.897 151.115 207.174 150.816C207.462 150.507 207.82 150.261 208.246 150.08C208.684 149.899 209.206 149.808 209.814 149.808C210.593 149.808 211.244 149.963 211.766 150.272C212.289 150.571 212.673 151.003 212.918 151.568C213.174 152.133 213.302 152.816 213.302 153.616L213.254 158H211.606ZM209.302 158.192C208.342 158.192 207.596 157.979 207.062 157.552C206.54 157.125 206.278 156.523 206.278 155.744C206.278 154.912 206.556 154.277 207.11 153.84C207.676 153.403 208.46 153.184 209.462 153.184H211.606V154.56H210.038C209.324 154.56 208.822 154.661 208.534 154.864C208.246 155.056 208.102 155.333 208.102 155.696C208.102 156.005 208.225 156.251 208.47 156.432C208.726 156.603 209.078 156.688 209.526 156.688C209.932 156.688 210.284 156.597 210.582 156.416C210.881 156.235 211.11 155.995 211.27 155.696C211.441 155.397 211.526 155.061 211.526 154.688H212.054C212.054 155.776 211.836 156.635 211.398 157.264C210.961 157.883 210.262 158.192 209.302 158.192ZM216.301 153.744C216.301 152.88 216.466 152.171 216.797 151.616C217.128 151.061 217.554 150.651 218.077 150.384C218.61 150.107 219.165 149.968 219.741 149.968V151.68C219.25 151.68 218.786 151.749 218.349 151.888C217.922 152.016 217.576 152.229 217.309 152.528C217.042 152.827 216.909 153.221 216.909 153.712L216.301 153.744ZM215.117 158V150H216.909V158H215.117ZM224.789 158V150H226.469L226.581 151.472V158H224.789ZM230.213 158V153.904H232.005V158H230.213ZM230.213 153.904C230.213 153.264 230.138 152.773 229.989 152.432C229.85 152.08 229.648 151.835 229.381 151.696C229.125 151.557 228.821 151.488 228.469 151.488C227.872 151.477 227.408 151.675 227.077 152.08C226.746 152.485 226.581 153.067 226.581 153.824H225.909C225.909 152.981 226.032 152.261 226.277 151.664C226.522 151.056 226.874 150.597 227.333 150.288C227.792 149.968 228.336 149.808 228.965 149.808C229.605 149.808 230.149 149.936 230.597 150.192C231.056 150.448 231.402 150.848 231.637 151.392C231.882 151.925 232.005 152.624 232.005 153.488V153.904H230.213ZM237.5 158.192C236.7 158.192 235.985 158.016 235.356 157.664C234.737 157.301 234.252 156.805 233.9 156.176C233.548 155.547 233.372 154.821 233.372 154C233.372 153.179 233.543 152.453 233.884 151.824C234.236 151.195 234.721 150.704 235.34 150.352C235.959 149.989 236.668 149.808 237.468 149.808C238.268 149.808 238.977 149.989 239.596 150.352C240.215 150.704 240.695 151.195 241.036 151.824C241.388 152.453 241.564 153.179 241.564 154C241.564 154.821 241.393 155.547 241.052 156.176C240.711 156.805 240.231 157.301 239.612 157.664C238.993 158.016 238.289 158.192 237.5 158.192ZM237.5 156.544C237.937 156.544 238.327 156.437 238.668 156.224C239.009 156 239.276 155.701 239.468 155.328C239.66 154.944 239.756 154.501 239.756 154C239.756 153.499 239.655 153.061 239.452 152.688C239.26 152.304 238.993 152.005 238.652 151.792C238.311 151.568 237.916 151.456 237.468 151.456C237.02 151.456 236.625 151.563 236.284 151.776C235.943 151.989 235.676 152.288 235.484 152.672C235.292 153.056 235.196 153.499 235.196 154C235.196 154.501 235.292 154.944 235.484 155.328C235.687 155.701 235.959 156 236.3 156.224C236.652 156.437 237.052 156.544 237.5 156.544ZM248.477 158L248.381 156.528V150H250.157V158H248.477ZM242.941 154.096V150H244.733V154.096H242.941ZM244.733 154.096C244.733 154.725 244.808 155.216 244.957 155.568C245.106 155.92 245.309 156.165 245.565 156.304C245.832 156.443 246.136 156.512 246.477 156.512C247.085 156.523 247.554 156.325 247.885 155.92C248.216 155.515 248.381 154.933 248.381 154.176H249.053C249.053 155.019 248.925 155.744 248.669 156.352C248.424 156.949 248.072 157.408 247.613 157.728C247.165 158.037 246.621 158.192 245.981 158.192C245.352 158.192 244.808 158.064 244.349 157.808C243.901 157.552 243.554 157.152 243.309 156.608C243.064 156.064 242.941 155.365 242.941 154.512V154.096H244.733ZM255.06 158.192C254.527 158.192 254.036 158.112 253.588 157.952C253.14 157.792 252.756 157.568 252.436 157.28C252.116 156.981 251.871 156.635 251.7 156.24L253.252 155.552C253.412 155.851 253.647 156.101 253.956 156.304C254.276 156.507 254.628 156.608 255.012 156.608C255.428 156.608 255.759 156.539 256.004 156.4C256.26 156.251 256.388 156.048 256.388 155.792C256.388 155.547 256.292 155.36 256.1 155.232C255.908 155.093 255.636 154.981 255.284 154.896L254.532 154.688C253.775 154.496 253.183 154.192 252.756 153.776C252.33 153.349 252.116 152.864 252.116 152.32C252.116 151.52 252.372 150.901 252.884 150.464C253.407 150.027 254.154 149.808 255.124 149.808C255.615 149.808 256.063 149.883 256.468 150.032C256.884 150.171 257.242 150.373 257.54 150.64C257.839 150.896 258.047 151.2 258.164 151.552L256.676 152.224C256.57 151.957 256.367 151.755 256.068 151.616C255.77 151.467 255.439 151.392 255.076 151.392C254.714 151.392 254.431 151.472 254.228 151.632C254.026 151.781 253.924 151.995 253.924 152.272C253.924 152.432 254.015 152.581 254.196 152.72C254.378 152.848 254.639 152.955 254.98 153.04L255.924 153.264C256.447 153.392 256.874 153.595 257.204 153.872C257.535 154.139 257.78 154.443 257.94 154.784C258.1 155.115 258.18 155.451 258.18 155.792C258.18 156.272 258.042 156.693 257.764 157.056C257.498 157.419 257.13 157.701 256.66 157.904C256.191 158.096 255.658 158.192 255.06 158.192Z" fill="#1B170B"/>
<path d="M283.425 144.605L284.415 143.615C285.235 142.795 286.565 142.795 287.385 143.615C288.205 144.435 288.205 145.765 287.385 146.585L286.395 147.575M283.425 144.605L276.766 151.264C276.258 151.772 275.898 152.408 275.724 153.104L275 156L277.896 155.276C278.592 155.102 279.228 154.742 279.736 154.234L286.395 147.575M283.425 144.605L286.395 147.575" stroke="#868276" stroke-width="1.5" stroke-linejoin="round"/>
<path d="M286 153.5C286 156.787 286 158.431 285.092 159.538C284.926 159.74 284.74 159.926 284.538 160.092C283.431 161 281.787 161 278.5 161H278C274.229 161 272.343 161 271.172 159.828C270 158.657 270 156.771 270 153V152.5C270 149.213 270 147.569 270.908 146.462C271.074 146.26 271.26 146.074 271.462 145.908C272.569 145 274.213 145 277.5 145" stroke="#868276" stroke-width="1.5" stroke-linecap="round" stroke-linejoin="round"/>
<line x1="20.75" y1="209" x2="20.75" y2="215" stroke="#868276" stroke-width="1.5"/>
<line x1="30.75" y1="209" x2="30.75" y2="215" stroke="#868276" stroke-width="1.5"/>
<line x1="40.75" y1="209" x2="40.75" y2="215" stroke="#868276" stroke-width="1.5"/>
<line x1="50.75" y1="209" x2="50.75" y2="215" stroke="#868276" stroke-width="1.5"/>
<line x1="60.75" y1="209" x2="60.75" y2="215" stroke="#868276" stroke-width="1.5"/>
<line x1="70.75" y1="209" x2="70.75" y2="215" stroke="#868276" stroke-width="1.5"/>
<line x1="80.75" y1="209" x2="80.75" y2="215" stroke="#868276" stroke-width="1.5"/>
<line x1="90.75" y1="209" x2="90.75" y2="215" stroke="#868276" stroke-width="1.5"/>
<path d="M100.5 184C98.2909 184 96.5 185.791 96.5 188C96.5 190.209 98.2909 192 100.5 192C102.709 192 104.5 190.209 104.5 188C104.5 185.791 102.709 184 100.5 184ZM100.5 232C98.2909 232 96.5 233.791 96.5 236C96.5 238.209 98.2909 240 100.5 240C102.709 240 104.5 238.209 104.5 236C104.5 233.791 102.709 232 100.5 232ZM100.5 188L99.75 188L99.75 236L100.5 236L101.25 236L101.25 188L100.5 188Z" fill="#1B170B"/>
<line x1="110.75" y1="205" x2="110.75" y2="223" stroke="#FF4775" stroke-width="1.5"/>
<line x1="120.75" y1="196" x2="120.75" y2="229" stroke="#FF4775" stroke-width="1.5"/>
<line x1="130.75" y1="202" x2="130.75" y2="225" stroke="#FF4775" stroke-width="1.5"/>
<line x1="140.75" y1="196" x2="140.75" y2="235" stroke="#FF4775" stroke-width="1.5"/>
<line x1="150.75" y1="196" x2="150.75" y2="235" stroke="#FF4775" stroke-width="1.5"/>
<line x1="160.75" y1="202" x2="160.75" y2="225" stroke="#FF4775" stroke-width="1.5"/>
<line x1="170.75" y1="205" x2="170.75" y2="223" stroke="#FF4775" stroke-width="1.5"/>
<line x1="180.75" y1="196" x2="180.75" y2="235" stroke="#FF4775" stroke-width="1.5"/>
<line x1="190.75" y1="205" x2="190.75" y2="223" stroke="#FF4775" stroke-width="1.5"/>
<line x1="200.75" y1="196" x2="200.75" y2="235" stroke="#FF4775" stroke-width="1.5"/>
<line x1="210.75" y1="205" x2="210.75" y2="223" stroke="#FF4775" stroke-width="1.5"/>
<line x1="220.75" y1="196" x2="220.75" y2="235" stroke="#FF4775" stroke-width="1.5"/>
<line x1="230.75" y1="196" x2="230.75" y2="235" stroke="#FF4775" stroke-width="1.5"/>
<line x1="240.75" y1="196" x2="240.75" y2="235" stroke="#FF4775" stroke-width="1.5"/>
<path d="M250.5 184C248.291 184 246.5 185.791 246.5 188C246.5 190.209 248.291 192 250.5 192C252.709 192 254.5 190.209 254.5 188C254.5 185.791 252.709 184 250.5 184ZM250.5 232C248.291 232 246.5 233.791 246.5 236C246.5 238.209 248.291 240 250.5 240C252.709 240 254.5 238.209 254.5 236C254.5 233.791 252.709 232 250.5 232ZM250.5 188L249.75 188L249.75 236L250.5 236L251.25 236L251.25 188L250.5 188Z" fill="#1B170B"/>
<line x1="260.75" y1="209" x2="260.75" y2="215" stroke="#868276" stroke-width="1.5"/>
<line x1="270.75" y1="209" x2="270.75" y2="215" stroke="#868276" stroke-width="1.5"/>
<line x1="280.75" y1="209" x2="280.75" y2="215" stroke="#868276" stroke-width="1.5"/>
<line x1="290.75" y1="209" x2="290.75" y2="215" stroke="#868276" stroke-width="1.5"/>
<line x1="300.75" y1="209" x2="300.75" y2="215" stroke="#868276" stroke-width="1.5"/>
<line x1="310.75" y1="209" x2="310.75" y2="215" stroke="#868276" stroke-width="1.5"/>
<line x1="320.75" y1="209" x2="320.75" y2="215" stroke="#868276" stroke-width="1.5"/>
<line x1="330.75" y1="209" x2="330.75" y2="215" stroke="#868276" stroke-width="1.5"/>
<line x1="340.75" y1="209" x2="340.75" y2="215" stroke="#868276" stroke-width="1.5"/>
<line x1="350.75" y1="209" x2="350.75" y2="215" stroke="#868276" stroke-width="1.5"/>
<line x1="360.75" y1="209" x2="360.75" y2="215" stroke="#868276" stroke-width="1.5"/>
<line x1="370.75" y1="209" x2="370.75" y2="215" stroke="#868276" stroke-width="1.5"/>
<line x1="380.75" y1="209" x2="380.75" y2="215" stroke="#868276" stroke-width="1.5"/>
<rect x="20.5" y="262.9" width="118" height="39" rx="17.5" stroke="#868276"/>
<path d="M55.5 275.9L54.8803 285.925C54.7219 288.486 54.6428 289.767 54.0008 290.688C53.6833 291.143 53.2747 291.527 52.8007 291.816C51.8421 292.4 50.559 292.4 47.9927 292.4C45.4231 292.4 44.1383 292.4 43.179 291.815C42.7048 291.526 42.296 291.141 41.9787 290.685C41.3369 289.763 41.2594 288.48 41.1046 285.915L40.5 275.9" stroke="#1B170B" stroke-width="1.5" stroke-linecap="round"/>
<path d="M39 275.9H57M52.0557 275.9L51.3731 274.492C50.9196 273.556 50.6928 273.088 50.3017 272.797C50.215 272.732 50.1231 272.674 50.027 272.625C49.5939 272.4 49.0741 272.4 48.0345 272.4C46.9688 272.4 46.436 272.4 45.9957 272.634C45.8981 272.686 45.805 272.746 45.7173 272.813C45.3216 273.117 45.1006 273.601 44.6586 274.571L44.0529 275.9" stroke="#1B170B" stroke-width="1.5" stroke-linecap="round"/>
<path d="M45.5 286.9V280.9" stroke="#1B170B" stroke-width="1.5" stroke-linecap="round"/>
<path d="M50.5 286.9V280.9" stroke="#1B170B" stroke-width="1.5" stroke-linecap="round"/>
<path d="M77.5234 287.4H69.6016V276.197H77.5234V277.673H71.2031V280.869H75.875V282.33H71.2031V285.931H77.5234V287.4ZM81.8359 280.712V287.4H80.3281V280.712H78.6016V279.462H80.3281V278.298C80.3281 276.897 80.9948 276.197 82.3281 276.197H84.1719V277.494H82.6172C82.3411 277.494 82.1406 277.556 82.0156 277.681C81.8958 277.806 81.8359 278.007 81.8359 278.283V279.462H83.8828V280.712H81.8359ZM87.6641 280.712V287.4H86.1562V280.712H84.4297V279.462H86.1562V278.298C86.1562 276.897 86.8229 276.197 88.1562 276.197H90V277.494H88.4453C88.1693 277.494 87.9688 277.556 87.8438 277.681C87.724 277.806 87.6641 278.007 87.6641 278.283V279.462H89.7109V280.712H87.6641ZM93.3125 287.626C92.5312 287.626 91.9089 287.423 91.4453 287.017C90.9818 286.606 90.75 286.051 90.75 285.353C90.75 283.53 92.4141 282.483 95.7422 282.212V281.978C95.7422 280.994 95.1875 280.501 94.0781 280.501C93.75 280.501 93.4609 280.546 93.2109 280.634C92.9609 280.718 92.7578 280.837 92.6016 280.994C92.4505 281.15 92.3333 281.301 92.25 281.447C92.1667 281.587 92.0938 281.749 92.0312 281.931L90.5938 281.462C90.7396 280.858 91.112 280.337 91.7109 279.9C92.3151 279.462 93.1042 279.244 94.0781 279.244C95.125 279.244 95.9141 279.488 96.4453 279.978C96.9818 280.468 97.25 281.15 97.25 282.025V285.658C97.25 285.84 97.2812 285.962 97.3438 286.025C97.4062 286.087 97.5286 286.119 97.7109 286.119H98.5312V287.4H97.375C97.099 287.4 96.8672 287.371 96.6797 287.314C96.4922 287.251 96.3464 287.163 96.2422 287.048C96.138 286.929 96.0625 286.804 96.0156 286.673C95.9688 286.543 95.9323 286.384 95.9062 286.197C95.6042 286.66 95.2474 287.014 94.8359 287.259C94.4245 287.504 93.9167 287.626 93.3125 287.626ZM93.7109 286.392C93.9714 286.392 94.2188 286.348 94.4531 286.259C94.6927 286.166 94.9089 286.03 95.1016 285.853C95.2995 285.676 95.4557 285.439 95.5703 285.142C95.6849 284.84 95.7422 284.499 95.7422 284.119V283.306C95.3464 283.348 94.987 283.4 94.6641 283.462C94.3464 283.52 94.0365 283.6 93.7344 283.705C93.4323 283.804 93.1797 283.921 92.9766 284.056C92.7734 284.192 92.6094 284.358 92.4844 284.556C92.3646 284.754 92.3047 284.975 92.3047 285.22C92.3047 285.59 92.4219 285.879 92.6562 286.087C92.8958 286.291 93.2474 286.392 93.7109 286.392ZM103.758 287.595L103.539 287.783C103.44 287.892 103.305 288.025 103.133 288.181H103.375C103.776 288.181 104.117 288.296 104.398 288.525C104.68 288.759 104.82 289.072 104.82 289.462C104.82 289.853 104.659 290.184 104.336 290.455C104.013 290.731 103.576 290.869 103.023 290.869C102.596 290.869 102.221 290.793 101.898 290.642C101.576 290.496 101.32 290.317 101.133 290.103L101.758 289.306C102.112 289.686 102.508 289.876 102.945 289.876C103.435 289.876 103.68 289.707 103.68 289.369C103.68 289.223 103.612 289.106 103.477 289.017C103.346 288.929 103.185 288.884 102.992 288.884C102.81 288.884 102.622 288.913 102.43 288.97L101.984 288.392L102.734 287.611C101.698 287.507 100.872 287.082 100.258 286.337C99.6484 285.587 99.3438 284.619 99.3438 283.431C99.3438 282.197 99.7031 281.192 100.422 280.416C101.146 279.634 102.068 279.244 103.188 279.244C104.047 279.244 104.766 279.46 105.344 279.892C105.922 280.324 106.318 280.874 106.531 281.541L105.117 282.025C104.768 281.03 104.12 280.533 103.172 280.533C102.521 280.533 101.982 280.785 101.555 281.291C101.128 281.791 100.914 282.504 100.914 283.431C100.914 284.374 101.125 285.093 101.547 285.587C101.974 286.082 102.521 286.33 103.188 286.33C104.24 286.33 104.943 285.759 105.297 284.619L106.719 285.111C106.479 285.788 106.104 286.348 105.594 286.791C105.089 287.233 104.477 287.501 103.758 287.595ZM111.539 287.626C110.414 287.626 109.521 287.262 108.859 286.533C108.203 285.804 107.875 284.78 107.875 283.462C107.875 282.186 108.211 281.166 108.883 280.4C109.56 279.629 110.424 279.244 111.477 279.244C112.253 279.244 112.922 279.444 113.484 279.845C114.052 280.246 114.464 280.793 114.719 281.486C114.974 282.179 115.055 282.955 114.961 283.814H109.383C109.414 284.699 109.635 285.345 110.047 285.751C110.464 286.158 110.977 286.361 111.586 286.361C112.549 286.361 113.237 285.853 113.648 284.837L115.031 285.337C114.745 286.087 114.299 286.658 113.695 287.048C113.096 287.434 112.378 287.626 111.539 287.626ZM109.414 282.619H113.445C113.44 281.936 113.247 281.403 112.867 281.017C112.492 280.632 112.029 280.439 111.477 280.439C110.945 280.439 110.484 280.637 110.094 281.033C109.703 281.423 109.477 281.952 109.414 282.619ZM118.578 287.4H117.078V279.462H118.547V281.142C118.609 281.001 118.685 280.861 118.773 280.72C118.862 280.58 118.984 280.423 119.141 280.251C119.297 280.08 119.466 279.931 119.648 279.806C119.836 279.676 120.062 279.569 120.328 279.486C120.599 279.397 120.885 279.353 121.188 279.353C121.479 279.353 121.724 279.379 121.922 279.431V280.97C121.578 280.929 121.297 280.908 121.078 280.908C120.219 280.908 119.586 281.155 119.18 281.65C118.779 282.145 118.578 282.871 118.578 283.83V287.4Z" fill="#868276"/>
<rect x="158.5" y="262.9" width="148" height="39" rx="17.5" stroke="#868276"/>
<path d="M191 277.4V281.4C191 284.161 188.761 286.4 186 286.4C183.239 286.4 181 284.161 181 281.4V277.4C181 274.638 183.239 272.4 186 272.4C188.761 272.4 191 274.638 191 277.4Z" fill="#FF4775" stroke="#FF4775" stroke-width="1.5"/>
<path d="M194 281.4C194 285.818 190.418 289.4 186 289.4M186 289.4C181.582 289.4 178 285.818 178 281.4M186 289.4V292.4M186 292.4H189M186 292.4H183" stroke="#FF4775" stroke-width="1.5" stroke-linecap="round"/>
<path d="M215.523 287.4H207.602V276.197H215.523V277.673H209.203V280.869H213.875V282.33H209.203V285.931H215.523V287.4ZM219.109 287.4H217.609V279.462H219.062V280.791C219.099 280.697 219.154 280.593 219.227 280.478C219.305 280.363 219.417 280.231 219.562 280.08C219.714 279.929 219.88 279.793 220.062 279.673C220.25 279.554 220.484 279.452 220.766 279.369C221.047 279.285 221.344 279.244 221.656 279.244C222.594 279.244 223.286 279.507 223.734 280.033C224.182 280.554 224.406 281.275 224.406 282.197V287.4H222.906V282.548C222.906 281.215 222.346 280.548 221.227 280.548C220.94 280.548 220.682 280.595 220.453 280.689C220.229 280.778 220.044 280.889 219.898 281.025C219.753 281.16 219.628 281.337 219.523 281.556C219.419 281.77 219.341 281.97 219.289 282.158C219.237 282.34 219.195 282.561 219.164 282.822C219.138 283.077 219.122 283.28 219.117 283.431C219.112 283.582 219.109 283.764 219.109 283.978V287.4ZM228.422 287.4H226.922V279.462H228.391V281.142C228.453 281.001 228.529 280.861 228.617 280.72C228.706 280.58 228.828 280.423 228.984 280.251C229.141 280.08 229.31 279.931 229.492 279.806C229.68 279.676 229.906 279.569 230.172 279.486C230.443 279.397 230.729 279.353 231.031 279.353C231.323 279.353 231.568 279.379 231.766 279.431V280.97C231.422 280.929 231.141 280.908 230.922 280.908C230.062 280.908 229.43 281.155 229.023 281.65C228.622 282.145 228.422 282.871 228.422 283.83V287.4ZM236.414 287.626C235.289 287.626 234.396 287.262 233.734 286.533C233.078 285.804 232.75 284.78 232.75 283.462C232.75 282.186 233.086 281.166 233.758 280.4C234.435 279.629 235.299 279.244 236.352 279.244C237.128 279.244 237.797 279.444 238.359 279.845C238.927 280.246 239.339 280.793 239.594 281.486C239.849 282.179 239.93 282.955 239.836 283.814H234.258C234.289 284.699 234.51 285.345 234.922 285.751C235.339 286.158 235.852 286.361 236.461 286.361C237.424 286.361 238.112 285.853 238.523 284.837L239.906 285.337C239.62 286.087 239.174 286.658 238.57 287.048C237.971 287.434 237.253 287.626 236.414 287.626ZM234.289 282.619H238.32C238.315 281.936 238.122 281.403 237.742 281.017C237.367 280.632 236.904 280.439 236.352 280.439C235.82 280.439 235.359 280.637 234.969 281.033C234.578 281.423 234.352 281.952 234.289 282.619ZM246.992 290.517H243.297C241.891 290.517 241.188 289.986 241.188 288.923C241.188 288.559 241.289 288.233 241.492 287.947C241.695 287.66 241.935 287.431 242.211 287.259C241.742 286.973 241.508 286.541 241.508 285.962C241.508 285.348 241.901 284.788 242.688 284.283C242.432 284.054 242.221 283.759 242.055 283.4C241.893 283.041 241.812 282.639 241.812 282.197C241.812 281.353 242.112 280.65 242.711 280.087C243.315 279.525 244.081 279.244 245.008 279.244C245.674 279.244 246.24 279.384 246.703 279.666C247.167 279.947 247.508 280.275 247.727 280.65C247.888 279.858 248.326 279.462 249.039 279.462H249.859V280.712H249.203C248.849 280.712 248.602 280.783 248.461 280.923C248.326 281.059 248.242 281.345 248.211 281.783L248.18 282.166C248.112 283.061 247.789 283.778 247.211 284.314C246.638 284.845 245.909 285.111 245.023 285.111C244.398 285.111 243.898 285.009 243.523 284.806C243.305 284.895 243.133 285.007 243.008 285.142C242.883 285.272 242.82 285.41 242.82 285.556C242.82 285.9 243.055 286.072 243.523 286.072H246.961C247.737 286.072 248.357 286.278 248.82 286.689C249.289 287.095 249.523 287.632 249.523 288.298C249.523 289.007 249.284 289.554 248.805 289.939C248.326 290.324 247.721 290.517 246.992 290.517ZM243.773 283.455C244.086 283.772 244.503 283.931 245.023 283.931C245.544 283.931 245.958 283.772 246.266 283.455C246.578 283.132 246.734 282.707 246.734 282.181C246.734 281.66 246.578 281.238 246.266 280.916C245.953 280.587 245.539 280.423 245.023 280.423C244.508 280.423 244.094 280.587 243.781 280.916C243.469 281.238 243.312 281.66 243.312 282.181C243.312 282.707 243.466 283.132 243.773 283.455ZM243.711 289.244H246.797C247.599 289.244 248 288.934 248 288.314C248 287.97 247.891 287.731 247.672 287.595C247.458 287.465 247.167 287.4 246.797 287.4H243.086C242.935 287.494 242.802 287.629 242.688 287.806C242.573 287.983 242.516 288.184 242.516 288.408C242.516 288.715 242.615 288.931 242.812 289.056C243.01 289.181 243.31 289.244 243.711 289.244ZM252.961 277.994H251.359V276.197H252.961V277.994ZM252.922 287.4H251.406V279.462H252.922V287.4ZM258.266 287.626C257.396 287.626 256.638 287.429 255.992 287.033C255.346 286.637 254.943 286.077 254.781 285.353L256.203 284.884C256.464 285.889 257.156 286.392 258.281 286.392C258.828 286.392 259.247 286.298 259.539 286.111C259.831 285.918 259.977 285.645 259.977 285.291C259.977 284.994 259.87 284.749 259.656 284.556C259.443 284.363 259.076 284.218 258.555 284.119L257.594 283.947C257.219 283.874 256.893 283.785 256.617 283.681C256.346 283.577 256.089 283.439 255.844 283.267C255.604 283.095 255.419 282.874 255.289 282.603C255.164 282.327 255.102 282.007 255.102 281.642C255.102 280.944 255.391 280.371 255.969 279.923C256.547 279.47 257.255 279.244 258.094 279.244C258.568 279.244 258.995 279.301 259.375 279.416C259.76 279.525 260.078 279.679 260.328 279.876C260.583 280.074 260.792 280.288 260.953 280.517C261.115 280.746 261.237 280.994 261.32 281.259L259.992 281.767C259.674 280.882 259.036 280.439 258.078 280.439C257.578 280.439 257.195 280.541 256.93 280.744C256.669 280.942 256.539 281.192 256.539 281.494C256.539 281.77 256.63 281.986 256.812 282.142C257 282.293 257.357 282.418 257.883 282.517L258.828 282.697C260.609 283.077 261.5 283.897 261.5 285.158C261.5 285.918 261.214 286.52 260.641 286.962C260.073 287.405 259.281 287.626 258.266 287.626ZM268.188 287.4H266.234C264.901 287.4 264.234 286.749 264.234 285.447V280.712H262.43V279.462H264.234V276.986H265.742V279.462H267.883V280.712H265.742V285.322C265.742 285.593 265.802 285.791 265.922 285.916C266.047 286.041 266.247 286.103 266.523 286.103H268.188V287.4ZM271.391 287.4H269.891V279.462H271.359V281.142C271.422 281.001 271.497 280.861 271.586 280.72C271.674 280.58 271.797 280.423 271.953 280.251C272.109 280.08 272.279 279.931 272.461 279.806C272.648 279.676 272.875 279.569 273.141 279.486C273.411 279.397 273.698 279.353 274 279.353C274.292 279.353 274.536 279.379 274.734 279.431V280.97C274.391 280.929 274.109 280.908 273.891 280.908C273.031 280.908 272.398 281.155 271.992 281.65C271.591 282.145 271.391 282.871 271.391 283.83V287.4ZM279.383 287.626C278.258 287.626 277.365 287.262 276.703 286.533C276.047 285.804 275.719 284.78 275.719 283.462C275.719 282.186 276.055 281.166 276.727 280.4C277.404 279.629 278.268 279.244 279.32 279.244C280.096 279.244 280.766 279.444 281.328 279.845C281.896 280.246 282.307 280.793 282.562 281.486C282.818 282.179 282.898 282.955 282.805 283.814H277.227C277.258 284.699 277.479 285.345 277.891 285.751C278.307 286.158 278.82 286.361 279.43 286.361C280.393 286.361 281.081 285.853 281.492 284.837L282.875 285.337C282.589 286.087 282.143 286.658 281.539 287.048C280.94 287.434 280.221 287.626 279.383 287.626ZM277.258 282.619H281.289C281.284 281.936 281.091 281.403 280.711 281.017C280.336 280.632 279.872 280.439 279.32 280.439C278.789 280.439 278.328 280.637 277.938 281.033C277.547 281.423 277.32 281.952 277.258 282.619ZM286.422 287.4H284.922V279.462H286.391V281.142C286.453 281.001 286.529 280.861 286.617 280.72C286.706 280.58 286.828 280.423 286.984 280.251C287.141 280.08 287.31 279.931 287.492 279.806C287.68 279.676 287.906 279.569 288.172 279.486C288.443 279.397 288.729 279.353 289.031 279.353C289.323 279.353 289.568 279.379 289.766 279.431V280.97C289.422 280.929 289.141 280.908 288.922 280.908C288.062 280.908 287.43 281.155 287.023 281.65C286.622 282.145 286.422 282.871 286.422 283.83V287.4Z" fill="#868276"/>
<rect x="337.8" y="260.6" width="43.6" height="43.6" rx="21.8" fill="url(#paint1_linear_5466_466)"/>
<rect x="337.8" y="260.6" width="43.6" height="43.6" rx="21.8" stroke="#F10F47" stroke-width="1.2"/>
<path d="M356 273.4C351.805 274.841 348.8 278.73 348.8 283.301C348.8 284.749 349.101 286.129 349.647 287.384M363.2 273.4C367.395 274.841 370.4 278.73 370.4 283.301C370.4 284.528 370.183 285.706 369.785 286.801M365 292.395C363.411 293.289 361.567 293.8 359.6 293.8C357.633 293.8 355.788 293.289 354.2 292.395" stroke="white" stroke-width="1.8"/>
<path d="M363.2 274C363.2 275.988 361.588 277.6 359.6 277.6C357.611 277.6 356 275.988 356 274C356 272.012 357.611 270.4 359.6 270.4C361.588 270.4 363.2 272.012 363.2 274Z" fill="#11C54D" stroke="white" stroke-width="1.8"/>
<path d="M351.2 294.4C353.188 294.4 354.8 292.788 354.8 290.8C354.8 288.812 353.188 287.2 351.2 287.2C349.212 287.2 347.6 288.812 347.6 290.8C347.6 292.788 349.212 294.4 351.2 294.4Z" fill="#D5B100" stroke="white" stroke-width="1.8"/>
<path d="M368 294.4C369.988 294.4 371.6 292.788 371.6 290.8C371.6 288.812 369.988 287.2 368 287.2C366.012 287.2 364.4 288.812 364.4 290.8C364.4 292.788 366.012 294.4 368 294.4Z" fill="#590083" stroke="white" stroke-width="1.8"/>
</g>
<defs>
<linearGradient id="paint0_linear_5466_466" x1="13.0278" y1="329" x2="359.806" y2="-93.2621" gradientUnits="userSpaceOnUse">
<stop stop-color="#081134"/>
<stop offset="0.899477" stop-color="#0A1D60"/>
</linearGradient>
<linearGradient id="paint1_linear_5466_466" x1="360.826" y1="245.8" x2="425.982" y2="269.251" gradientUnits="userSpaceOnUse">
<stop stop-color="#FF4775"/>
<stop offset="1" stop-color="#F10F47"/>
</linearGradient>
<clipPath id="clip0_5466_466">
<rect width="402" height="329" fill="white"/>
</clipPath>
</defs>
</svg>
