<svg width="402" height="102" viewBox="0 0 402 102" fill="none" xmlns="http://www.w3.org/2000/svg">
<g clip-path="url(#clip0_5466_278)">
<rect width="402" height="102" fill="#6A67FF"/>
<rect width="402" height="102" fill="url(#paint0_linear_5466_278)"/>
<rect width="400" height="96" transform="translate(2 3)" fill="#0A1B5A"/>
<g style="mix-blend-mode:luminosity">
<line x1="2" y1="2.5" x2="402" y2="2.49996" stroke="#590083"/>
</g>
<path d="M38 61C43.5228 61 48 56.5228 48 51C48 45.4772 43.5228 41 38 41C32.4772 41 28 45.4772 28 51C28 56.5228 32.4772 61 38 61Z" stroke="#F1EDE1" stroke-width="1.5"/>
<path d="M35.5 50.1998V51.8002C35.5 53.3195 35.5 54.0791 35.9558 54.3862C36.4115 54.6932 37.0348 54.3535 38.2815 53.6741L39.7497 52.8738C41.2499 52.0562 42 51.6474 42 51C42 50.3526 41.2499 49.9438 39.7497 49.1262L38.2815 48.3259C37.0348 47.6465 36.4115 47.3068 35.9558 47.6138C35.5 47.9209 35.5 48.6805 35.5 50.1998Z" fill="#F1EDE1"/>
<path d="M86.328 36V24.8H88.184V34.304H93.256V36H86.328ZM98.0444 36.192C97.2657 36.192 96.5724 36.016 95.9644 35.664C95.367 35.3013 94.8924 34.8053 94.5404 34.176C94.199 33.5467 94.0284 32.8213 94.0284 32C94.0284 31.1787 94.2044 30.4533 94.5564 29.824C94.9084 29.1947 95.3884 28.704 95.9964 28.352C96.615 27.9893 97.319 27.808 98.1084 27.808C98.823 27.808 99.4684 27.9947 100.044 28.368C100.62 28.7307 101.074 29.2587 101.404 29.952C101.746 30.6453 101.916 31.472 101.916 32.432H95.6284L95.8684 32.208C95.8684 32.6987 95.975 33.1253 96.1884 33.488C96.4017 33.84 96.6844 34.112 97.0364 34.304C97.3884 34.496 97.7777 34.592 98.2044 34.592C98.695 34.592 99.1004 34.4853 99.4204 34.272C99.7404 34.048 99.991 33.76 100.172 33.408L101.756 34.08C101.532 34.5067 101.244 34.88 100.892 35.2C100.551 35.52 100.14 35.7653 99.6604 35.936C99.191 36.1067 98.6524 36.192 98.0444 36.192ZM95.9804 31.28L95.7244 31.056H100.236L99.9964 31.28C99.9964 30.8427 99.9004 30.4853 99.7084 30.208C99.5164 29.92 99.271 29.7067 98.9724 29.568C98.6844 29.4187 98.3804 29.344 98.0604 29.344C97.7404 29.344 97.4204 29.4187 97.1004 29.568C96.7804 29.7067 96.5137 29.92 96.3004 30.208C96.087 30.4853 95.9804 30.8427 95.9804 31.28ZM110.892 36.192C110.071 36.192 109.346 36.016 108.716 35.664C108.087 35.3013 107.591 34.8053 107.228 34.176C106.876 33.5467 106.7 32.8213 106.7 32C106.7 31.1787 106.876 30.4533 107.228 29.824C107.591 29.1947 108.082 28.704 108.7 28.352C109.33 27.9893 110.05 27.808 110.86 27.808C111.65 27.808 112.364 28 113.004 28.384C113.644 28.7573 114.119 29.296 114.428 30L112.764 30.64C112.594 30.288 112.332 30.0053 111.98 29.792C111.628 29.5787 111.228 29.472 110.78 29.472C110.343 29.472 109.954 29.584 109.612 29.808C109.271 30.0213 109.004 30.32 108.812 30.704C108.62 31.0773 108.524 31.5093 108.524 32C108.524 32.4907 108.62 32.928 108.812 33.312C109.015 33.6853 109.287 33.984 109.628 34.208C109.98 34.4213 110.375 34.528 110.812 34.528C111.26 34.528 111.66 34.416 112.012 34.192C112.364 33.9573 112.626 33.6427 112.796 33.248L114.46 33.888C114.151 34.6133 113.676 35.1787 113.036 35.584C112.407 35.9893 111.692 36.192 110.892 36.192ZM115.867 36V24.8H117.659V36H115.867ZM121.291 36V31.904H123.083V36H121.291ZM121.291 31.904C121.291 31.264 121.217 30.7733 121.067 30.432C120.918 30.08 120.71 29.8347 120.443 29.696C120.187 29.5573 119.889 29.488 119.547 29.488C118.939 29.4773 118.47 29.6747 118.139 30.08C117.819 30.4853 117.659 31.0667 117.659 31.824H116.971C116.971 30.9813 117.094 30.2613 117.339 29.664C117.595 29.056 117.953 28.5973 118.411 28.288C118.87 27.968 119.414 27.808 120.043 27.808C120.673 27.808 121.217 27.936 121.675 28.192C122.134 28.448 122.481 28.848 122.715 29.392C122.961 29.9253 123.083 30.624 123.083 31.488V31.904H121.291ZM129.778 36L129.698 34.496V31.888C129.698 31.344 129.64 30.8907 129.522 30.528C129.416 30.1547 129.234 29.872 128.978 29.68C128.733 29.4773 128.402 29.376 127.986 29.376C127.602 29.376 127.266 29.456 126.978 29.616C126.69 29.776 126.445 30.0267 126.242 30.368L124.674 29.792C124.845 29.44 125.069 29.1147 125.346 28.816C125.634 28.5067 125.992 28.2613 126.418 28.08C126.856 27.8987 127.378 27.808 127.986 27.808C128.765 27.808 129.416 27.9627 129.938 28.272C130.461 28.5707 130.845 29.0027 131.09 29.568C131.346 30.1333 131.474 30.816 131.474 31.616L131.426 36H129.778ZM127.474 36.192C126.514 36.192 125.768 35.9787 125.234 35.552C124.712 35.1253 124.45 34.5227 124.45 33.744C124.45 32.912 124.728 32.2773 125.282 31.84C125.848 31.4027 126.632 31.184 127.634 31.184H129.778V32.56H128.21C127.496 32.56 126.994 32.6613 126.706 32.864C126.418 33.056 126.274 33.3333 126.274 33.696C126.274 34.0053 126.397 34.2507 126.642 34.432C126.898 34.6027 127.25 34.688 127.698 34.688C128.104 34.688 128.456 34.5973 128.754 34.416C129.053 34.2347 129.282 33.9947 129.442 33.696C129.613 33.3973 129.698 33.0613 129.698 32.688H130.226C130.226 33.776 130.008 34.6347 129.57 35.264C129.133 35.8827 128.434 36.192 127.474 36.192ZM133.289 36V28H134.969L135.081 29.472V36H133.289ZM138.713 36V31.904H140.505V36H138.713ZM138.713 31.904C138.713 31.264 138.638 30.7733 138.489 30.432C138.35 30.08 138.148 29.8347 137.881 29.696C137.625 29.5573 137.321 29.488 136.969 29.488C136.372 29.4773 135.908 29.6747 135.577 30.08C135.246 30.4853 135.081 31.0667 135.081 31.824H134.409C134.409 30.9813 134.532 30.2613 134.777 29.664C135.022 29.056 135.374 28.5973 135.833 28.288C136.292 27.968 136.836 27.808 137.465 27.808C138.105 27.808 138.649 27.936 139.097 28.192C139.556 28.448 139.902 28.848 140.137 29.392C140.382 29.9253 140.505 30.624 140.505 31.488V31.904H138.713ZM145.76 39.408C145.195 39.408 144.683 39.36 144.224 39.264C143.776 39.168 143.397 39.056 143.088 38.928C142.779 38.8 142.539 38.6773 142.368 38.56L143.056 37.12C143.205 37.1947 143.403 37.2853 143.648 37.392C143.904 37.5093 144.203 37.6107 144.544 37.696C144.885 37.7813 145.269 37.824 145.696 37.824C146.155 37.824 146.565 37.728 146.928 37.536C147.291 37.3547 147.573 37.072 147.776 36.688C147.979 36.304 148.08 35.8133 148.08 35.216V28H149.872V35.168C149.872 36.0747 149.701 36.8427 149.36 37.472C149.019 38.112 148.539 38.592 147.92 38.912C147.301 39.2427 146.581 39.408 145.76 39.408ZM145.488 35.84C144.763 35.84 144.128 35.6747 143.584 35.344C143.051 35.0133 142.629 34.5547 142.32 33.968C142.021 33.3707 141.872 32.6827 141.872 31.904C141.872 31.072 142.021 30.352 142.32 29.744C142.629 29.136 143.051 28.6613 143.584 28.32C144.128 27.9787 144.763 27.808 145.488 27.808C146.139 27.808 146.704 27.9787 147.184 28.32C147.675 28.6613 148.053 29.1413 148.32 29.76C148.587 30.368 148.72 31.088 148.72 31.92C148.72 32.7093 148.587 33.3973 148.32 33.984C148.053 34.5707 147.675 35.0293 147.184 35.36C146.704 35.68 146.139 35.84 145.488 35.84ZM145.984 34.32C146.389 34.32 146.741 34.2133 147.04 34C147.349 33.7867 147.589 33.4987 147.76 33.136C147.931 32.7627 148.016 32.336 148.016 31.856C148.016 31.3653 147.931 30.9387 147.76 30.576C147.589 30.2027 147.349 29.9147 147.04 29.712C146.731 29.4987 146.373 29.392 145.968 29.392C145.541 29.392 145.163 29.4987 144.832 29.712C144.512 29.9147 144.256 30.2027 144.064 30.576C143.883 30.9387 143.792 31.3653 143.792 31.856C143.792 32.336 143.883 32.7627 144.064 33.136C144.256 33.4987 144.517 33.7867 144.848 34C145.179 34.2133 145.557 34.32 145.984 34.32ZM155.419 36.192C154.641 36.192 153.947 36.016 153.339 35.664C152.742 35.3013 152.267 34.8053 151.915 34.176C151.574 33.5467 151.403 32.8213 151.403 32C151.403 31.1787 151.579 30.4533 151.931 29.824C152.283 29.1947 152.763 28.704 153.371 28.352C153.99 27.9893 154.694 27.808 155.483 27.808C156.198 27.808 156.843 27.9947 157.419 28.368C157.995 28.7307 158.449 29.2587 158.779 29.952C159.121 30.6453 159.291 31.472 159.291 32.432H153.003L153.243 32.208C153.243 32.6987 153.35 33.1253 153.563 33.488C153.777 33.84 154.059 34.112 154.411 34.304C154.763 34.496 155.153 34.592 155.579 34.592C156.07 34.592 156.475 34.4853 156.795 34.272C157.115 34.048 157.366 33.76 157.547 33.408L159.131 34.08C158.907 34.5067 158.619 34.88 158.267 35.2C157.926 35.52 157.515 35.7653 157.035 35.936C156.566 36.1067 156.027 36.192 155.419 36.192ZM153.355 31.28L153.099 31.056H157.611L157.371 31.28C157.371 30.8427 157.275 30.4853 157.083 30.208C156.891 29.92 156.646 29.7067 156.347 29.568C156.059 29.4187 155.755 29.344 155.435 29.344C155.115 29.344 154.795 29.4187 154.475 29.568C154.155 29.7067 153.889 29.92 153.675 30.208C153.462 30.4853 153.355 30.8427 153.355 31.28ZM160.664 36V28H162.344L162.424 29.072C162.669 28.656 162.984 28.3413 163.368 28.128C163.752 27.9147 164.189 27.808 164.68 27.808C165.32 27.808 165.864 27.952 166.312 28.24C166.76 28.528 167.085 28.9653 167.288 29.552C167.523 28.9867 167.853 28.5547 168.28 28.256C168.707 27.9573 169.208 27.808 169.784 27.808C170.712 27.808 171.427 28.1067 171.928 28.704C172.429 29.2907 172.675 30.1973 172.664 31.424V36H170.888V31.904C170.888 31.264 170.819 30.7733 170.68 30.432C170.541 30.08 170.355 29.8347 170.12 29.696C169.885 29.5573 169.613 29.488 169.304 29.488C168.749 29.4773 168.317 29.6747 168.008 30.08C167.709 30.4853 167.56 31.0667 167.56 31.824V36H165.768V31.904C165.768 31.264 165.699 30.7733 165.56 30.432C165.432 30.08 165.251 29.8347 165.016 29.696C164.781 29.5573 164.509 29.488 164.2 29.488C163.645 29.4773 163.213 29.6747 162.904 30.08C162.605 30.4853 162.456 31.0667 162.456 31.824V36H160.664ZM178.06 36.192C177.281 36.192 176.588 36.016 175.98 35.664C175.383 35.3013 174.908 34.8053 174.556 34.176C174.215 33.5467 174.044 32.8213 174.044 32C174.044 31.1787 174.22 30.4533 174.572 29.824C174.924 29.1947 175.404 28.704 176.012 28.352C176.631 27.9893 177.335 27.808 178.124 27.808C178.839 27.808 179.484 27.9947 180.06 28.368C180.636 28.7307 181.089 29.2587 181.42 29.952C181.761 30.6453 181.932 31.472 181.932 32.432H175.644L175.884 32.208C175.884 32.6987 175.991 33.1253 176.204 33.488C176.417 33.84 176.7 34.112 177.052 34.304C177.404 34.496 177.793 34.592 178.22 34.592C178.711 34.592 179.116 34.4853 179.436 34.272C179.756 34.048 180.007 33.76 180.188 33.408L181.772 34.08C181.548 34.5067 181.26 34.88 180.908 35.2C180.567 35.52 180.156 35.7653 179.676 35.936C179.207 36.1067 178.668 36.192 178.06 36.192ZM175.996 31.28L175.74 31.056H180.252L180.012 31.28C180.012 30.8427 179.916 30.4853 179.724 30.208C179.532 29.92 179.287 29.7067 178.988 29.568C178.7 29.4187 178.396 29.344 178.076 29.344C177.756 29.344 177.436 29.4187 177.116 29.568C176.796 29.7067 176.529 29.92 176.316 30.208C176.103 30.4853 175.996 30.8427 175.996 31.28ZM183.305 36V28H184.985L185.097 29.472V36H183.305ZM188.729 36V31.904H190.521V36H188.729ZM188.729 31.904C188.729 31.264 188.654 30.7733 188.505 30.432C188.366 30.08 188.163 29.8347 187.897 29.696C187.641 29.5573 187.337 29.488 186.985 29.488C186.387 29.4773 185.923 29.6747 185.593 30.08C185.262 30.4853 185.097 31.0667 185.097 31.824H184.424C184.424 30.9813 184.547 30.2613 184.793 29.664C185.038 29.056 185.39 28.5973 185.849 28.288C186.307 27.968 186.851 27.808 187.481 27.808C188.121 27.808 188.665 27.936 189.113 28.192C189.571 28.448 189.918 28.848 190.153 29.392C190.398 29.9253 190.521 30.624 190.521 31.488V31.904H188.729ZM195.52 36.192C194.677 36.192 194.032 35.984 193.584 35.568C193.146 35.1413 192.928 34.5333 192.928 33.744V25.504H194.704V33.408C194.704 33.7813 194.789 34.064 194.96 34.256C195.141 34.448 195.402 34.544 195.744 34.544C195.85 34.544 195.968 34.5227 196.096 34.48C196.224 34.4373 196.368 34.3573 196.528 34.24L197.184 35.6C196.906 35.792 196.629 35.936 196.352 36.032C196.074 36.1387 195.797 36.192 195.52 36.192ZM191.6 29.536V28H196.864V29.536H191.6ZM202.556 39.2V28H204.236L204.348 29.472V39.2H202.556ZM206.876 36.192C206.204 36.192 205.623 36.0213 205.132 35.68C204.652 35.328 204.284 34.8373 204.028 34.208C203.772 33.5787 203.644 32.8427 203.644 32C203.644 31.1467 203.772 30.4107 204.028 29.792C204.284 29.1627 204.652 28.6773 205.132 28.336C205.623 27.984 206.204 27.808 206.876 27.808C207.602 27.808 208.231 27.984 208.764 28.336C209.308 28.6773 209.73 29.1627 210.028 29.792C210.338 30.4107 210.492 31.1467 210.492 32C210.492 32.8427 210.338 33.5787 210.028 34.208C209.73 34.8373 209.308 35.328 208.764 35.68C208.231 36.0213 207.602 36.192 206.876 36.192ZM206.428 34.56C206.855 34.56 207.234 34.4533 207.564 34.24C207.895 34.016 208.156 33.712 208.348 33.328C208.551 32.944 208.652 32.5013 208.652 32C208.652 31.4987 208.556 31.056 208.364 30.672C208.183 30.288 207.927 29.9893 207.596 29.776C207.266 29.5627 206.882 29.456 206.444 29.456C206.039 29.456 205.676 29.5627 205.356 29.776C205.036 29.9893 204.786 30.288 204.604 30.672C204.434 31.056 204.348 31.4987 204.348 32C204.348 32.5013 204.434 32.944 204.604 33.328C204.786 33.712 205.031 34.016 205.34 34.24C205.66 34.4533 206.023 34.56 206.428 34.56ZM216.903 36L216.823 34.496V31.888C216.823 31.344 216.765 30.8907 216.647 30.528C216.541 30.1547 216.359 29.872 216.103 29.68C215.858 29.4773 215.527 29.376 215.111 29.376C214.727 29.376 214.391 29.456 214.103 29.616C213.815 29.776 213.57 30.0267 213.367 30.368L211.799 29.792C211.97 29.44 212.194 29.1147 212.471 28.816C212.759 28.5067 213.117 28.2613 213.543 28.08C213.981 27.8987 214.503 27.808 215.111 27.808C215.89 27.808 216.541 27.9627 217.063 28.272C217.586 28.5707 217.97 29.0027 218.215 29.568C218.471 30.1333 218.599 30.816 218.599 31.616L218.551 36H216.903ZM214.599 36.192C213.639 36.192 212.893 35.9787 212.359 35.552C211.837 35.1253 211.575 34.5227 211.575 33.744C211.575 32.912 211.853 32.2773 212.407 31.84C212.973 31.4027 213.757 31.184 214.759 31.184H216.903V32.56H215.335C214.621 32.56 214.119 32.6613 213.831 32.864C213.543 33.056 213.399 33.3333 213.399 33.696C213.399 34.0053 213.522 34.2507 213.767 34.432C214.023 34.6027 214.375 34.688 214.823 34.688C215.229 34.688 215.581 34.5973 215.879 34.416C216.178 34.2347 216.407 33.9947 216.567 33.696C216.738 33.3973 216.823 33.0613 216.823 32.688H217.351C217.351 33.776 217.133 34.6347 216.695 35.264C216.258 35.8827 215.559 36.192 214.599 36.192ZM223.326 36.192C222.793 36.192 222.302 36.112 221.854 35.952C221.406 35.792 221.022 35.568 220.702 35.28C220.382 34.9813 220.137 34.6347 219.966 34.24L221.518 33.552C221.678 33.8507 221.913 34.1013 222.222 34.304C222.542 34.5067 222.894 34.608 223.278 34.608C223.694 34.608 224.025 34.5387 224.27 34.4C224.526 34.2507 224.654 34.048 224.654 33.792C224.654 33.5467 224.558 33.36 224.366 33.232C224.174 33.0933 223.902 32.9813 223.55 32.896L222.798 32.688C222.041 32.496 221.449 32.192 221.022 31.776C220.595 31.3493 220.382 30.864 220.382 30.32C220.382 29.52 220.638 28.9013 221.15 28.464C221.673 28.0267 222.419 27.808 223.39 27.808C223.881 27.808 224.329 27.8827 224.734 28.032C225.15 28.1707 225.507 28.3733 225.806 28.64C226.105 28.896 226.313 29.2 226.43 29.552L224.942 30.224C224.835 29.9573 224.633 29.7547 224.334 29.616C224.035 29.4667 223.705 29.392 223.342 29.392C222.979 29.392 222.697 29.472 222.494 29.632C222.291 29.7813 222.19 29.9947 222.19 30.272C222.19 30.432 222.281 30.5813 222.462 30.72C222.643 30.848 222.905 30.9547 223.246 31.04L224.19 31.264C224.713 31.392 225.139 31.5947 225.47 31.872C225.801 32.1387 226.046 32.4427 226.206 32.784C226.366 33.1147 226.446 33.4507 226.446 33.792C226.446 34.272 226.307 34.6933 226.03 35.056C225.763 35.4187 225.395 35.7013 224.926 35.904C224.457 36.096 223.923 36.192 223.326 36.192ZM230.763 36.192C230.23 36.192 229.739 36.112 229.291 35.952C228.843 35.792 228.459 35.568 228.139 35.28C227.819 34.9813 227.574 34.6347 227.403 34.24L228.955 33.552C229.115 33.8507 229.35 34.1013 229.659 34.304C229.979 34.5067 230.331 34.608 230.715 34.608C231.131 34.608 231.462 34.5387 231.707 34.4C231.963 34.2507 232.091 34.048 232.091 33.792C232.091 33.5467 231.995 33.36 231.803 33.232C231.611 33.0933 231.339 32.9813 230.987 32.896L230.235 32.688C229.478 32.496 228.886 32.192 228.459 31.776C228.033 31.3493 227.819 30.864 227.819 30.32C227.819 29.52 228.075 28.9013 228.587 28.464C229.11 28.0267 229.857 27.808 230.827 27.808C231.318 27.808 231.766 27.8827 232.171 28.032C232.587 28.1707 232.945 28.3733 233.243 28.64C233.542 28.896 233.75 29.2 233.867 29.552L232.379 30.224C232.273 29.9573 232.07 29.7547 231.771 29.616C231.473 29.4667 231.142 29.392 230.779 29.392C230.417 29.392 230.134 29.472 229.931 29.632C229.729 29.7813 229.627 29.9947 229.627 30.272C229.627 30.432 229.718 30.5813 229.899 30.72C230.081 30.848 230.342 30.9547 230.683 31.04L231.627 31.264C232.15 31.392 232.577 31.5947 232.907 31.872C233.238 32.1387 233.483 32.4427 233.643 32.784C233.803 33.1147 233.883 33.4507 233.883 33.792C233.883 34.272 233.745 34.6933 233.467 35.056C233.201 35.4187 232.833 35.7013 232.363 35.904C231.894 36.096 231.361 36.192 230.763 36.192ZM238.873 36.192C238.094 36.192 237.401 36.016 236.793 35.664C236.195 35.3013 235.721 34.8053 235.368 34.176C235.027 33.5467 234.857 32.8213 234.857 32C234.857 31.1787 235.033 30.4533 235.385 29.824C235.737 29.1947 236.217 28.704 236.825 28.352C237.443 27.9893 238.147 27.808 238.937 27.808C239.651 27.808 240.297 27.9947 240.873 28.368C241.449 28.7307 241.902 29.2587 242.233 29.952C242.574 30.6453 242.745 31.472 242.745 32.432H236.457L236.697 32.208C236.697 32.6987 236.803 33.1253 237.017 33.488C237.23 33.84 237.513 34.112 237.865 34.304C238.217 34.496 238.606 34.592 239.033 34.592C239.523 34.592 239.929 34.4853 240.249 34.272C240.569 34.048 240.819 33.76 241.001 33.408L242.585 34.08C242.361 34.5067 242.073 34.88 241.721 35.2C241.379 35.52 240.969 35.7653 240.489 35.936C240.019 36.1067 239.481 36.192 238.873 36.192ZM236.809 31.28L236.553 31.056H241.065L240.825 31.28C240.825 30.8427 240.729 30.4853 240.537 30.208C240.345 29.92 240.099 29.7067 239.801 29.568C239.513 29.4187 239.209 29.344 238.889 29.344C238.569 29.344 238.249 29.4187 237.929 29.568C237.609 29.7067 237.342 29.92 237.129 30.208C236.915 30.4853 236.809 30.8427 236.809 31.28ZM245.301 31.744C245.301 30.88 245.466 30.1707 245.797 29.616C246.128 29.0613 246.554 28.6507 247.077 28.384C247.61 28.1067 248.165 27.968 248.741 27.968V29.68C248.25 29.68 247.786 29.7493 247.349 29.888C246.922 30.016 246.576 30.2293 246.309 30.528C246.042 30.8267 245.909 31.2213 245.909 31.712L245.301 31.744ZM244.117 36V28H245.909V36H244.117ZM254.81 36L254.73 34.496V31.888C254.73 31.344 254.671 30.8907 254.554 30.528C254.447 30.1547 254.266 29.872 254.01 29.68C253.764 29.4773 253.434 29.376 253.018 29.376C252.634 29.376 252.298 29.456 252.01 29.616C251.722 29.776 251.476 30.0267 251.274 30.368L249.706 29.792C249.876 29.44 250.1 29.1147 250.378 28.816C250.666 28.5067 251.023 28.2613 251.45 28.08C251.887 27.8987 252.41 27.808 253.018 27.808C253.796 27.808 254.447 27.9627 254.97 28.272C255.492 28.5707 255.876 29.0027 256.122 29.568C256.378 30.1333 256.506 30.816 256.506 31.616L256.458 36H254.81ZM252.506 36.192C251.546 36.192 250.799 35.9787 250.266 35.552C249.743 35.1253 249.482 34.5227 249.482 33.744C249.482 32.912 249.759 32.2773 250.314 31.84C250.879 31.4027 251.663 31.184 252.666 31.184H254.81V32.56H253.242C252.527 32.56 252.026 32.6613 251.738 32.864C251.45 33.056 251.306 33.3333 251.306 33.696C251.306 34.0053 251.428 34.2507 251.674 34.432C251.93 34.6027 252.282 34.688 252.73 34.688C253.135 34.688 253.487 34.5973 253.786 34.416C254.084 34.2347 254.314 33.9947 254.474 33.696C254.644 33.3973 254.73 33.0613 254.73 32.688H255.258C255.258 33.776 255.039 34.6347 254.602 35.264C254.164 35.8827 253.466 36.192 252.506 36.192ZM262.26 39.2V28H263.94L264.052 29.472V39.2H262.26ZM266.58 36.192C265.908 36.192 265.326 36.0213 264.836 35.68C264.356 35.328 263.988 34.8373 263.732 34.208C263.476 33.5787 263.348 32.8427 263.348 32C263.348 31.1467 263.476 30.4107 263.732 29.792C263.988 29.1627 264.356 28.6773 264.836 28.336C265.326 27.984 265.908 27.808 266.58 27.808C267.305 27.808 267.934 27.984 268.468 28.336C269.012 28.6773 269.433 29.1627 269.732 29.792C270.041 30.4107 270.196 31.1467 270.196 32C270.196 32.8427 270.041 33.5787 269.732 34.208C269.433 34.8373 269.012 35.328 268.468 35.68C267.934 36.0213 267.305 36.192 266.58 36.192ZM266.132 34.56C266.558 34.56 266.937 34.4533 267.268 34.24C267.598 34.016 267.86 33.712 268.052 33.328C268.254 32.944 268.356 32.5013 268.356 32C268.356 31.4987 268.26 31.056 268.068 30.672C267.886 30.288 267.63 29.9893 267.3 29.776C266.969 29.5627 266.585 29.456 266.148 29.456C265.742 29.456 265.38 29.5627 265.06 29.776C264.74 29.9893 264.489 30.288 264.308 30.672C264.137 31.056 264.052 31.4987 264.052 32C264.052 32.5013 264.137 32.944 264.308 33.328C264.489 33.712 264.734 34.016 265.044 34.24C265.364 34.4533 265.726 34.56 266.132 34.56ZM276.606 36L276.526 34.496V31.888C276.526 31.344 276.468 30.8907 276.35 30.528C276.244 30.1547 276.062 29.872 275.806 29.68C275.561 29.4773 275.23 29.376 274.814 29.376C274.43 29.376 274.094 29.456 273.806 29.616C273.518 29.776 273.273 30.0267 273.07 30.368L271.502 29.792C271.673 29.44 271.897 29.1147 272.174 28.816C272.462 28.5067 272.82 28.2613 273.246 28.08C273.684 27.8987 274.206 27.808 274.814 27.808C275.593 27.808 276.244 27.9627 276.766 28.272C277.289 28.5707 277.673 29.0027 277.918 29.568C278.174 30.1333 278.302 30.816 278.302 31.616L278.254 36H276.606ZM274.302 36.192C273.342 36.192 272.596 35.9787 272.062 35.552C271.54 35.1253 271.278 34.5227 271.278 33.744C271.278 32.912 271.556 32.2773 272.11 31.84C272.676 31.4027 273.46 31.184 274.462 31.184H276.606V32.56H275.038C274.324 32.56 273.822 32.6613 273.534 32.864C273.246 33.056 273.102 33.3333 273.102 33.696C273.102 34.0053 273.225 34.2507 273.47 34.432C273.726 34.6027 274.078 34.688 274.526 34.688C274.932 34.688 275.284 34.5973 275.582 34.416C275.881 34.2347 276.11 33.9947 276.27 33.696C276.441 33.3973 276.526 33.0613 276.526 32.688H277.054C277.054 33.776 276.836 34.6347 276.398 35.264C275.961 35.8827 275.262 36.192 274.302 36.192ZM281.301 31.744C281.301 30.88 281.466 30.1707 281.797 29.616C282.128 29.0613 282.554 28.6507 283.077 28.384C283.61 28.1067 284.165 27.968 284.741 27.968V29.68C284.25 29.68 283.786 29.7493 283.349 29.888C282.922 30.016 282.576 30.2293 282.309 30.528C282.042 30.8267 281.909 31.2213 281.909 31.712L281.301 31.744ZM280.117 36V28H281.909V36H280.117ZM289.789 36V28H291.469L291.581 29.472V36H289.789ZM295.213 36V31.904H297.005V36H295.213ZM295.213 31.904C295.213 31.264 295.138 30.7733 294.989 30.432C294.85 30.08 294.648 29.8347 294.381 29.696C294.125 29.5573 293.821 29.488 293.469 29.488C292.872 29.4773 292.408 29.6747 292.077 30.08C291.746 30.4853 291.581 31.0667 291.581 31.824H290.909C290.909 30.9813 291.032 30.2613 291.277 29.664C291.522 29.056 291.874 28.5973 292.333 28.288C292.792 27.968 293.336 27.808 293.965 27.808C294.605 27.808 295.149 27.936 295.597 28.192C296.056 28.448 296.402 28.848 296.637 29.392C296.882 29.9253 297.005 30.624 297.005 31.488V31.904H295.213ZM302.5 36.192C301.7 36.192 300.985 36.016 300.356 35.664C299.737 35.3013 299.252 34.8053 298.9 34.176C298.548 33.5467 298.372 32.8213 298.372 32C298.372 31.1787 298.543 30.4533 298.884 29.824C299.236 29.1947 299.721 28.704 300.34 28.352C300.959 27.9893 301.668 27.808 302.468 27.808C303.268 27.808 303.977 27.9893 304.596 28.352C305.215 28.704 305.695 29.1947 306.036 29.824C306.388 30.4533 306.564 31.1787 306.564 32C306.564 32.8213 306.393 33.5467 306.052 34.176C305.711 34.8053 305.231 35.3013 304.612 35.664C303.993 36.016 303.289 36.192 302.5 36.192ZM302.5 34.544C302.937 34.544 303.327 34.4373 303.668 34.224C304.009 34 304.276 33.7013 304.468 33.328C304.66 32.944 304.756 32.5013 304.756 32C304.756 31.4987 304.655 31.0613 304.452 30.688C304.26 30.304 303.993 30.0053 303.652 29.792C303.311 29.568 302.916 29.456 302.468 29.456C302.02 29.456 301.625 29.5627 301.284 29.776C300.943 29.9893 300.676 30.288 300.484 30.672C300.292 31.056 300.196 31.4987 300.196 32C300.196 32.5013 300.292 32.944 300.484 33.328C300.687 33.7013 300.959 34 301.3 34.224C301.652 34.4373 302.052 34.544 302.5 34.544ZM313.477 36L313.381 34.528V28H315.157V36H313.477ZM307.941 32.096V28H309.733V32.096H307.941ZM309.733 32.096C309.733 32.7253 309.808 33.216 309.957 33.568C310.106 33.92 310.309 34.1653 310.565 34.304C310.832 34.4427 311.136 34.512 311.477 34.512C312.085 34.5227 312.554 34.3253 312.885 33.92C313.216 33.5147 313.381 32.9333 313.381 32.176H314.053C314.053 33.0187 313.925 33.744 313.669 34.352C313.424 34.9493 313.072 35.408 312.613 35.728C312.165 36.0373 311.621 36.192 310.981 36.192C310.352 36.192 309.808 36.064 309.349 35.808C308.901 35.552 308.554 35.152 308.309 34.608C308.064 34.064 307.941 33.3653 307.941 32.512V32.096H309.733ZM320.06 36.192C319.527 36.192 319.036 36.112 318.588 35.952C318.14 35.792 317.756 35.568 317.436 35.28C317.116 34.9813 316.871 34.6347 316.7 34.24L318.252 33.552C318.412 33.8507 318.647 34.1013 318.956 34.304C319.276 34.5067 319.628 34.608 320.012 34.608C320.428 34.608 320.759 34.5387 321.004 34.4C321.26 34.2507 321.388 34.048 321.388 33.792C321.388 33.5467 321.292 33.36 321.1 33.232C320.908 33.0933 320.636 32.9813 320.284 32.896L319.532 32.688C318.775 32.496 318.183 32.192 317.756 31.776C317.33 31.3493 317.116 30.864 317.116 30.32C317.116 29.52 317.372 28.9013 317.884 28.464C318.407 28.0267 319.154 27.808 320.124 27.808C320.615 27.808 321.063 27.8827 321.468 28.032C321.884 28.1707 322.242 28.3733 322.54 28.64C322.839 28.896 323.047 29.2 323.164 29.552L321.676 30.224C321.57 29.9573 321.367 29.7547 321.068 29.616C320.77 29.4667 320.439 29.392 320.076 29.392C319.714 29.392 319.431 29.472 319.228 29.632C319.026 29.7813 318.924 29.9947 318.924 30.272C318.924 30.432 319.015 30.5813 319.196 30.72C319.378 30.848 319.639 30.9547 319.98 31.04L320.924 31.264C321.447 31.392 321.874 31.5947 322.204 31.872C322.535 32.1387 322.78 32.4427 322.94 32.784C323.1 33.1147 323.18 33.4507 323.18 33.792C323.18 34.272 323.042 34.6933 322.764 35.056C322.498 35.4187 322.13 35.7013 321.66 35.904C321.191 36.096 320.658 36.192 320.06 36.192Z" fill="#F1EDE1"/>
<line x1="85.75" y1="50" x2="85.75" y2="63" stroke="#FF4775" stroke-width="1.5"/>
<line x1="95.75" y1="50" x2="95.75" y2="63" stroke="#FF4775" stroke-width="1.5"/>
<line x1="105.75" y1="50" x2="105.75" y2="63" stroke="#FF4775" stroke-width="1.5"/>
<line x1="115.75" y1="50" x2="115.75" y2="63" stroke="#FF4775" stroke-width="1.5"/>
<line x1="125.75" y1="50" x2="125.75" y2="63" stroke="#FF4775" stroke-width="1.5"/>
<line x1="135.75" y1="50" x2="135.75" y2="63" stroke="#FF4775" stroke-width="1.5"/>
<line x1="145.75" y1="50" x2="145.75" y2="63" stroke="#FF4775" stroke-width="1.5"/>
<line x1="155.75" y1="50" x2="155.75" y2="63" stroke="#FF4775" stroke-width="1.5"/>
<line x1="165.75" y1="50" x2="165.75" y2="63" stroke="#868276" stroke-opacity="0.18" stroke-width="1.5"/>
<line x1="175.75" y1="50" x2="175.75" y2="63" stroke="#868276" stroke-opacity="0.18" stroke-width="1.5"/>
<line x1="185.75" y1="50" x2="185.75" y2="63" stroke="#868276" stroke-opacity="0.18" stroke-width="1.5"/>
<line x1="195.75" y1="50" x2="195.75" y2="63" stroke="#868276" stroke-opacity="0.18" stroke-width="1.5"/>
<line x1="205.75" y1="50" x2="205.75" y2="63" stroke="#868276" stroke-opacity="0.18" stroke-width="1.5"/>
<line x1="215.75" y1="50" x2="215.75" y2="63" stroke="#868276" stroke-opacity="0.18" stroke-width="1.5"/>
<line x1="225.75" y1="50" x2="225.75" y2="63" stroke="#868276" stroke-opacity="0.18" stroke-width="1.5"/>
<line x1="235.75" y1="50" x2="235.75" y2="63" stroke="#868276" stroke-opacity="0.18" stroke-width="1.5"/>
<line x1="245.75" y1="50" x2="245.75" y2="63" stroke="#868276" stroke-opacity="0.18" stroke-width="1.5"/>
<line x1="255.75" y1="50" x2="255.75" y2="63" stroke="#868276" stroke-opacity="0.18" stroke-width="1.5"/>
<line x1="265.75" y1="50" x2="265.75" y2="63" stroke="#868276" stroke-opacity="0.18" stroke-width="1.5"/>
<line x1="275.75" y1="50" x2="275.75" y2="63" stroke="#868276" stroke-opacity="0.18" stroke-width="1.5"/>
<line x1="285.75" y1="50" x2="285.75" y2="63" stroke="#868276" stroke-opacity="0.18" stroke-width="1.5"/>
<line x1="295.75" y1="50" x2="295.75" y2="63" stroke="#868276" stroke-opacity="0.18" stroke-width="1.5"/>
<line x1="305.75" y1="50" x2="305.75" y2="63" stroke="#868276" stroke-opacity="0.18" stroke-width="1.5"/>
<line x1="315.75" y1="50" x2="315.75" y2="63" stroke="#868276" stroke-opacity="0.18" stroke-width="1.5"/>
<line x1="325.75" y1="50" x2="325.75" y2="63" stroke="#868276" stroke-opacity="0.18" stroke-width="1.5"/>
<path d="M87.4722 80.0991C86.8729 80.0991 86.3955 79.877 86.04 79.4326C85.6846 78.986 85.5068 78.3537 85.5068 77.5356C85.5068 77.1278 85.5581 76.7609 85.6606 76.4351C85.7655 76.1069 85.9079 75.8403 86.0879 75.6353C86.2679 75.4302 86.4753 75.2741 86.71 75.167C86.9447 75.0576 87.1987 75.0029 87.4722 75.0029C87.7433 75.0029 87.9951 75.0576 88.2275 75.167C88.4622 75.2741 88.6696 75.4302 88.8496 75.6353C89.0296 75.8403 89.1709 76.1069 89.2734 76.4351C89.376 76.7609 89.4272 77.1278 89.4272 77.5356C89.4272 78.3537 89.2495 78.986 88.894 79.4326C88.5409 79.877 88.0669 80.0991 87.4722 80.0991ZM87.4722 79.4736C87.8527 79.4736 88.1512 79.3073 88.3677 78.9746C88.5841 78.6396 88.6924 78.16 88.6924 77.5356C88.6924 76.95 88.5807 76.4852 88.3574 76.1411C88.1364 75.797 87.8413 75.625 87.4722 75.625C87.0962 75.625 86.7965 75.797 86.5732 76.1411C86.3522 76.4852 86.2417 76.95 86.2417 77.5356C86.2417 78.16 86.3499 78.6396 86.5664 78.9746C86.7852 79.3073 87.0871 79.4736 87.4722 79.4736ZM91.1875 77.4297H90.292V76.5205H91.1875V77.4297ZM91.1875 80H90.292V79.0908H91.1875V80ZM95.3574 80H92.0762V79.231C92.2904 79.0988 92.4795 78.9792 92.6436 78.8721C92.8099 78.7627 92.9831 78.6431 93.1631 78.5132C93.3454 78.3833 93.5015 78.2625 93.6313 78.1509C93.7635 78.0369 93.8911 77.915 94.0142 77.7852C94.1372 77.653 94.2375 77.5254 94.3149 77.4023C94.3924 77.2793 94.4539 77.1494 94.4995 77.0127C94.5451 76.8737 94.5679 76.7358 94.5679 76.5991C94.5679 76.2938 94.4824 76.0568 94.3115 75.8882C94.1429 75.7173 93.9321 75.6318 93.6792 75.6318C93.4035 75.6318 93.1779 75.7275 93.0024 75.9189C92.827 76.1081 92.7393 76.3713 92.7393 76.7085L92.0352 76.6128C92.0397 76.1388 92.1901 75.7526 92.4863 75.4541C92.7848 75.1533 93.1847 75.0029 93.686 75.0029C94.1828 75.0029 94.5758 75.1442 94.8652 75.4268C95.1569 75.7093 95.3027 76.0739 95.3027 76.5205C95.3027 77.0264 95.1296 77.4821 94.7832 77.8877C94.5827 78.1178 94.3252 78.3503 94.0107 78.585C93.6963 78.8197 93.3078 79.0771 92.8452 79.3574H93.9868H95.3574V80ZM98.9292 80H98.249V78.6704H95.9453V78.0176L97.8867 75.0986H98.9292V78.0825H99.6504V78.6704H98.9292V80ZM97.5859 78.0825H98.249V76.8008V75.6523L96.6392 78.0825H97.5859Z" fill="#F1EDE1"/>
<path d="M283.107 80.0991C282.611 80.0991 282.207 79.984 281.897 79.7539C281.588 79.5215 281.396 79.223 281.323 78.8584L282.031 78.6294C282.09 78.9051 282.212 79.117 282.396 79.2651C282.581 79.4132 282.809 79.4873 283.08 79.4873C283.39 79.4873 283.635 79.3973 283.815 79.2173C283.997 79.0373 284.088 78.7946 284.088 78.4893C284.088 78.1862 283.997 77.9435 283.815 77.7612C283.635 77.5789 283.392 77.4878 283.087 77.4878C282.88 77.4878 282.698 77.5356 282.543 77.6313C282.389 77.7271 282.262 77.8558 282.164 78.0176L281.422 77.9014L281.843 75.0986H284.669V75.7446H282.359L282.205 76.7666L282.109 77.4229C282.399 77.0788 282.784 76.9067 283.265 76.9067C283.734 76.9067 284.109 77.0469 284.389 77.3271C284.669 77.6051 284.81 77.9845 284.81 78.4653C284.81 78.953 284.656 79.3472 284.348 79.6479C284.041 79.9487 283.627 80.0991 283.107 80.0991ZM288.908 80.0991C288.438 80.0991 288.045 79.9248 287.729 79.5762C287.414 79.2253 287.257 78.79 287.257 78.2705C287.257 77.7419 287.412 77.3032 287.722 76.9546C288.034 76.606 288.429 76.4316 288.908 76.4316C289.386 76.4316 289.78 76.606 290.09 76.9546C290.4 77.3009 290.555 77.7396 290.555 78.2705C290.555 78.7969 290.397 79.2332 290.08 79.5796C289.766 79.9259 289.375 80.0991 288.908 80.0991ZM288.908 79.5317C289.202 79.5317 289.435 79.4258 289.608 79.2139C289.782 78.9997 289.868 78.6875 289.868 78.2773C289.868 77.8626 289.782 77.5459 289.608 77.3271C289.435 77.1061 289.202 76.9956 288.908 76.9956C288.611 76.9956 288.377 77.105 288.204 77.3237C288.03 77.5425 287.944 77.8604 287.944 78.2773C287.944 78.6898 288.03 79.002 288.204 79.2139C288.377 79.4258 288.611 79.5317 288.908 79.5317ZM292.083 80H291.427V76.5273H292.062V77.1084C292.078 77.0674 292.102 77.0218 292.134 76.9717C292.168 76.9215 292.217 76.8634 292.281 76.7974C292.347 76.7313 292.42 76.672 292.5 76.6196C292.582 76.5672 292.685 76.5228 292.808 76.4863C292.931 76.4499 293.061 76.4316 293.197 76.4316C293.607 76.4316 293.91 76.5467 294.106 76.7769C294.302 77.0047 294.4 77.3203 294.4 77.7236V80H293.744V77.8774C293.744 77.2941 293.499 77.0024 293.009 77.0024C292.884 77.0024 292.771 77.0229 292.671 77.064C292.573 77.1027 292.492 77.1517 292.428 77.2109C292.364 77.2702 292.31 77.3477 292.264 77.4434C292.219 77.5368 292.184 77.6245 292.162 77.7065C292.139 77.7863 292.121 77.8831 292.107 77.9971C292.096 78.1087 292.089 78.1976 292.086 78.2637C292.084 78.3298 292.083 78.4095 292.083 78.5029V80ZM297.565 80H296.711C296.128 80 295.836 79.7152 295.836 79.1455V77.0742H295.046V76.5273H295.836V75.4438H296.496V76.5273H297.432V77.0742H296.496V79.0908C296.496 79.2093 296.522 79.2959 296.574 79.3506C296.629 79.4053 296.717 79.4326 296.837 79.4326H297.565V80ZM301.633 76.0317H301.202L301.551 75.0439H302.419L301.633 76.0317ZM301.438 80.0991C300.946 80.0991 300.555 79.9396 300.266 79.6206C299.979 79.3016 299.835 78.8538 299.835 78.2773C299.835 77.7191 299.982 77.2725 300.276 76.9375C300.572 76.6003 300.95 76.4316 301.411 76.4316C301.75 76.4316 302.043 76.5194 302.289 76.6948C302.537 76.8703 302.717 77.1095 302.829 77.4126C302.941 77.7157 302.976 78.0552 302.935 78.4312H300.495C300.508 78.8185 300.605 79.1011 300.785 79.2788C300.967 79.4565 301.192 79.5454 301.458 79.5454C301.88 79.5454 302.181 79.3232 302.361 78.8789L302.966 79.0977C302.84 79.4258 302.646 79.6753 302.381 79.8462C302.119 80.0148 301.805 80.0991 301.438 80.0991ZM300.508 77.9082H302.272C302.27 77.6097 302.185 77.3761 302.019 77.2075C301.855 77.0389 301.652 76.9546 301.411 76.9546C301.178 76.9546 300.977 77.0412 300.806 77.2144C300.635 77.3853 300.536 77.6165 300.508 77.9082ZM305.283 80.0991C304.773 80.0991 304.364 79.9328 304.056 79.6001C303.749 79.2674 303.595 78.8219 303.595 78.2637C303.595 77.7236 303.752 77.2839 304.066 76.9443C304.383 76.6025 304.786 76.4316 305.276 76.4316C305.652 76.4316 305.967 76.5262 306.22 76.7153C306.473 76.9045 306.646 77.1449 306.739 77.4365L306.121 77.6484C305.968 77.2132 305.684 76.9956 305.27 76.9956C304.985 76.9956 304.749 77.1061 304.562 77.3271C304.375 77.5459 304.282 77.8581 304.282 78.2637C304.282 78.6761 304.374 78.9906 304.559 79.207C304.745 79.4235 304.985 79.5317 305.276 79.5317C305.737 79.5317 306.044 79.2822 306.199 78.7832L306.821 78.9985C306.701 79.3335 306.508 79.6012 306.244 79.8018C305.982 80 305.661 80.0991 305.283 80.0991ZM308.964 80.0991C308.495 80.0991 308.102 79.9248 307.785 79.5762C307.471 79.2253 307.313 78.79 307.313 78.2705C307.313 77.7419 307.468 77.3032 307.778 76.9546C308.09 76.606 308.486 76.4316 308.964 76.4316C309.443 76.4316 309.837 76.606 310.147 76.9546C310.457 77.3009 310.612 77.7396 310.612 78.2705C310.612 78.7969 310.453 79.2332 310.137 79.5796C309.822 79.9259 309.431 80.0991 308.964 80.0991ZM308.964 79.5317C309.258 79.5317 309.492 79.4258 309.665 79.2139C309.838 78.9997 309.925 78.6875 309.925 78.2773C309.925 77.8626 309.838 77.5459 309.665 77.3271C309.492 77.1061 309.258 76.9956 308.964 76.9956C308.668 76.9956 308.433 77.105 308.26 77.3237C308.087 77.5425 308 77.8604 308 78.2773C308 78.6898 308.087 79.002 308.26 79.2139C308.433 79.4258 308.668 79.5317 308.964 79.5317ZM312.574 80.0991C312.193 80.0991 311.908 79.984 311.719 79.7539C311.53 79.5215 311.436 79.2048 311.436 78.8037V76.5273H312.092V78.6499C312.092 79.2332 312.33 79.5249 312.806 79.5249C312.927 79.5249 313.035 79.5067 313.131 79.4702C313.227 79.4315 313.305 79.3836 313.367 79.3267C313.428 79.2697 313.482 79.1968 313.527 79.1079C313.573 79.019 313.607 78.9347 313.63 78.855C313.655 78.7729 313.673 78.6784 313.685 78.5713C313.698 78.4619 313.706 78.3708 313.708 78.2979C313.713 78.2227 313.715 78.1372 313.715 78.0415V76.5273H314.375V80H313.729V79.4053C313.69 79.4736 313.646 79.5397 313.596 79.6035C313.546 79.6673 313.474 79.7414 313.38 79.8257C313.289 79.9077 313.173 79.9738 313.032 80.0239C312.893 80.0741 312.74 80.0991 312.574 80.0991ZM317.588 80H316.733C316.15 80 315.858 79.7152 315.858 79.1455V77.0742H315.069V76.5273H315.858V75.4438H316.518V76.5273H317.455V77.0742H316.518V79.0908C316.518 79.2093 316.544 79.2959 316.597 79.3506C316.651 79.4053 316.739 79.4326 316.86 79.4326H317.588V80ZM319.871 76.0317H319.44L319.789 75.0439H320.657L319.871 76.0317ZM319.676 80.0991C319.184 80.0991 318.793 79.9396 318.504 79.6206C318.217 79.3016 318.073 78.8538 318.073 78.2773C318.073 77.7191 318.22 77.2725 318.514 76.9375C318.81 76.6003 319.189 76.4316 319.649 76.4316C319.988 76.4316 320.281 76.5194 320.527 76.6948C320.776 76.8703 320.956 77.1095 321.067 77.4126C321.179 77.7157 321.214 78.0552 321.173 78.4312H318.733C318.747 78.8185 318.843 79.1011 319.023 79.2788C319.206 79.4565 319.43 79.5454 319.697 79.5454C320.118 79.5454 320.419 79.3232 320.599 78.8789L321.204 79.0977C321.079 79.4258 320.884 79.6753 320.62 79.8462C320.358 80.0148 320.043 80.0991 319.676 80.0991ZM318.747 77.9082H320.51C320.508 77.6097 320.424 77.3761 320.257 77.2075C320.093 77.0389 319.89 76.9546 319.649 76.9546C319.417 76.9546 319.215 77.0412 319.044 77.2144C318.873 77.3853 318.774 77.6165 318.747 77.9082ZM323.296 80.0991C322.915 80.0991 322.584 80.0125 322.301 79.8394C322.019 79.6662 321.842 79.4212 321.771 79.1045L322.394 78.8994C322.507 79.3392 322.811 79.5591 323.303 79.5591C323.542 79.5591 323.725 79.5181 323.853 79.436C323.981 79.3517 324.044 79.2321 324.044 79.0771C324.044 78.9473 323.998 78.8402 323.904 78.7559C323.811 78.6715 323.65 78.6077 323.422 78.5645L323.002 78.4893C322.838 78.4574 322.695 78.4186 322.575 78.373C322.456 78.3275 322.343 78.2671 322.236 78.1919C322.132 78.1167 322.051 78.0199 321.994 77.9014C321.939 77.7806 321.912 77.6405 321.912 77.481C321.912 77.1756 322.038 76.925 322.291 76.729C322.544 76.5308 322.854 76.4316 323.221 76.4316C323.428 76.4316 323.615 76.4567 323.781 76.5068C323.95 76.5547 324.089 76.6219 324.198 76.7085C324.31 76.7951 324.401 76.8885 324.472 76.9888C324.542 77.089 324.596 77.1973 324.632 77.3135L324.051 77.5356C323.912 77.1483 323.633 76.9546 323.214 76.9546C322.995 76.9546 322.828 76.999 322.711 77.0879C322.597 77.1745 322.541 77.2839 322.541 77.416C322.541 77.5368 322.58 77.6313 322.66 77.6997C322.742 77.7658 322.898 77.8205 323.128 77.8638L323.542 77.9424C324.321 78.1087 324.711 78.4676 324.711 79.019C324.711 79.3517 324.586 79.6149 324.335 79.8086C324.087 80.0023 323.74 80.0991 323.296 80.0991Z" fill="#F1EDE1"/>
<path d="M376.5 25.5L375.88 35.5251C375.722 38.0864 375.643 39.3671 375.001 40.2879C374.683 40.7431 374.275 41.1273 373.801 41.416C372.842 42 371.559 42 368.993 42C366.423 42 365.138 42 364.179 41.4149C363.705 41.1257 363.296 40.7408 362.979 40.2848C362.337 39.3626 362.259 38.0801 362.105 35.5152L361.5 25.5" stroke="#F1EDE1" stroke-width="1.5" stroke-linecap="round"/>
<path d="M360 25.5H378M373.056 25.5L372.373 24.0917C371.92 23.1563 371.693 22.6885 371.302 22.3968C371.215 22.3321 371.123 22.2745 371.027 22.2247C370.594 22 370.074 22 369.035 22C367.969 22 367.436 22 366.996 22.2341C366.898 22.286 366.805 22.3459 366.717 22.4132C366.322 22.7167 366.101 23.2015 365.659 24.1713L365.053 25.5" stroke="#F1EDE1" stroke-width="1.5" stroke-linecap="round"/>
<path d="M366.5 36.5V30.5" stroke="#F1EDE1" stroke-width="1.5" stroke-linecap="round"/>
<path d="M371.5 36.5V30.5" stroke="#F1EDE1" stroke-width="1.5" stroke-linecap="round"/>
<path d="M358.691 78H357.304V71.3896V70.0225C357.03 70.4782 356.654 70.8724 356.176 71.2051C355.702 71.5332 355.201 71.736 354.672 71.8135V70.3574C355.283 70.2116 355.841 69.9564 356.347 69.5918C356.853 69.2272 357.256 68.7624 357.557 68.1973H358.691V78ZM364.249 78.1982C363.233 78.1982 362.412 77.9271 361.788 77.3848C361.164 76.8424 360.817 76.1133 360.749 75.1973L362.219 74.8896C362.246 75.5277 362.442 76.0358 362.807 76.4141C363.176 76.7878 363.657 76.9746 364.249 76.9746C364.791 76.9746 365.238 76.8242 365.589 76.5234C365.94 76.2227 366.115 75.8193 366.115 75.3135C366.115 74.7894 365.94 74.377 365.589 74.0762C365.238 73.7708 364.782 73.6182 364.222 73.6182H363.524V72.4287H364.222C364.714 72.4287 365.126 72.2829 365.459 71.9912C365.792 71.695 365.958 71.3031 365.958 70.8154C365.958 70.3369 365.794 69.9518 365.466 69.6602C365.138 69.3685 364.732 69.2227 364.249 69.2227C363.729 69.2227 363.308 69.3844 362.984 69.708C362.665 70.027 362.481 70.4486 362.431 70.9727L360.988 70.7334C361.052 69.945 361.373 69.2933 361.952 68.7783C362.535 68.2633 363.301 68.0059 364.249 68.0059C365.215 68.0059 365.976 68.2497 366.532 68.7373C367.093 69.2204 367.373 69.8402 367.373 70.5967C367.373 71.18 367.209 71.6768 366.881 72.0869C366.557 72.4971 366.124 72.7887 365.582 72.9619C366.174 73.0986 366.651 73.3926 367.011 73.8438C367.371 74.2904 367.551 74.8395 367.551 75.4912C367.551 76.2568 367.252 76.8994 366.655 77.4189C366.058 77.9385 365.256 78.1982 364.249 78.1982ZM371.092 72.8594H369.301V71.041H371.092V72.8594ZM371.092 78H369.301V76.1816H371.092V78ZM376.451 78H375.063V71.3896V70.0225C374.79 70.4782 374.414 70.8724 373.936 71.2051C373.462 71.5332 372.96 71.736 372.432 71.8135V70.3574C373.042 70.2116 373.601 69.9564 374.106 69.5918C374.612 69.2272 375.016 68.7624 375.316 68.1973H376.451V78ZM382.303 78H380.915V71.3896V70.0225C380.642 70.4782 380.266 70.8724 379.787 71.2051C379.313 71.5332 378.812 71.736 378.283 71.8135V70.3574C378.894 70.2116 379.452 69.9564 379.958 69.5918C380.464 69.2272 380.867 68.7624 381.168 68.1973H382.303V78Z" fill="#F1EDE1"/>
<g style="mix-blend-mode:luminosity">
<line x1="2" y1="98.5" x2="402" y2="98.5" stroke="#590083"/>
</g>
</g>
<defs>
<linearGradient id="paint0_linear_5466_278" x1="13.0278" y1="102" x2="65.442" y2="-103.862" gradientUnits="userSpaceOnUse">
<stop stop-color="#081134"/>
<stop offset="0.899477" stop-color="#0A1D60"/>
</linearGradient>
<clipPath id="clip0_5466_278">
<rect width="402" height="102" fill="white"/>
</clipPath>
</defs>
</svg>
