<svg width="24" height="25" viewBox="0 0 24 25" fill="none" xmlns="http://www.w3.org/2000/svg">
<path d="M19.5 5.90002L18.8803 15.9251C18.7219 18.4864 18.6428 19.7671 18.0008 20.6879C17.6833 21.1431 17.2747 21.5273 16.8007 21.816C15.8421 22.4 14.559 22.4 11.9927 22.4C9.42312 22.4 8.1383 22.4 7.17905 21.8149C6.7048 21.5257 6.296 21.1408 5.97868 20.6848C5.33688 19.7626 5.25945 18.4801 5.10461 15.9152L4.5 5.90002" stroke="#1B170B" stroke-width="1.5" stroke-linecap="round"/>
<path d="M3 5.90002H21M16.0557 5.90002L15.3731 4.49175C14.9196 3.55628 14.6928 3.08854 14.3017 2.79683C14.215 2.73212 14.1231 2.67456 14.027 2.62472C13.5939 2.40002 13.0741 2.40002 12.0345 2.40002C10.9688 2.40002 10.436 2.40002 9.99568 2.63414C9.8981 2.68603 9.80498 2.74592 9.71729 2.81319C9.32164 3.11672 9.10063 3.60157 8.65861 4.57128L8.05292 5.90002" stroke="#1B170B" stroke-width="1.5" stroke-linecap="round"/>
<path d="M9.5 16.9V10.9" stroke="#1B170B" stroke-width="1.5" stroke-linecap="round"/>
<path d="M14.5 16.9V10.9" stroke="#1B170B" stroke-width="1.5" stroke-linecap="round"/>
</svg>
