<svg width="34" height="50" viewBox="0 0 34 50" fill="none" xmlns="http://www.w3.org/2000/svg">
<path fill-rule="evenodd" clip-rule="evenodd" d="M18.9716 1.90685C17.5395 1.83142 15.7755 1.77104 14.4074 1.82646C12.4329 1.90645 11.2549 2.13529 9.38528 2.78324C8.26996 3.16977 7.47043 3.45509 6.75615 3.85257C6.05489 4.2428 5.42184 4.75 4.67611 5.59404C4.01499 6.34232 3.48718 7.49809 3.11972 8.51012C2.93879 9.00845 2.80179 9.45743 2.71013 9.78154C2.66435 9.94341 2.63002 10.0736 2.6073 10.1627C2.59594 10.2072 2.58749 10.2414 2.58197 10.2641L2.5785 10.2785L2.57154 10.3266C2.56502 10.3723 2.55556 10.4404 2.54407 10.5286C2.52107 10.7051 2.48994 10.9616 2.45781 11.2791C2.39348 11.9148 2.32549 12.7917 2.3104 13.7578C2.29528 14.7252 2.3334 15.7725 2.47805 16.7517C2.62356 17.7366 2.87221 18.6191 3.25728 19.2793C4.94609 22.1743 6.57642 23.9241 8.77671 25.522C9.64348 26.1515 10.7793 26.7509 11.7134 27.1978C11.993 27.3315 12.2524 27.4506 12.4783 27.5517C12.577 27.5959 12.6884 27.525 12.6904 27.4169C12.7002 26.8751 12.6997 26.2179 12.6621 25.7152C12.4624 23.0465 12.0354 19.7221 11.1264 17.231C11.0928 17.139 11.0587 17.0484 11.024 16.9593C10.9415 16.7472 10.7199 16.6263 10.4957 16.6651L10.4377 16.6751C10.2973 16.6994 10.1632 16.7226 10.0374 16.7427C9.75375 16.7882 9.48489 16.8228 9.2266 16.8216C8.66547 16.8189 8.20854 16.6463 7.68384 16.2296C7.24164 15.8785 6.68476 15.2885 6.36977 14.7191C6.21818 14.4451 6.07669 14.0954 6.11294 13.7463C6.13262 13.5568 6.20531 13.3665 6.35212 13.2072C6.49531 13.0518 6.68048 12.9567 6.87609 12.9023C8.15821 12.5462 9.24385 12.8793 10.1133 13.6613C10.5402 14.0453 10.9121 14.5338 11.2372 15.0929C11.3793 15.3373 11.6527 15.4863 11.93 15.4314C11.937 15.43 11.944 15.4286 11.951 15.4272C12.4074 15.3346 12.3391 14.819 11.9697 14.5354C11.5432 14.2079 11.2003 13.7442 11.1852 13.1477C11.1723 12.6353 11.2633 12.0774 11.5137 11.6146C11.772 11.1373 12.2116 10.749 12.8541 10.6741C13.4294 10.607 13.8055 10.9822 14.0067 11.3635C14.2051 11.7397 14.3029 12.2259 14.3377 12.6999C14.3731 13.1827 14.3466 13.6995 14.264 14.1636C14.2443 14.2744 14.3173 14.3823 14.429 14.3956C14.7012 14.428 14.9737 14.4395 15.2325 14.429C15.7142 14.4095 16.1071 14.3155 16.3609 14.1756C16.7368 13.9684 16.6263 13.4505 16.35 13.1221C16.3278 13.0957 16.3064 13.069 16.2856 13.042C16.1203 12.8265 15.983 12.5647 15.9498 12.265C15.915 11.9525 15.9991 11.6463 16.1968 11.3701C16.4559 11.0085 16.7739 10.8711 17.0266 10.762C17.0635 10.7461 17.0991 10.7307 17.1328 10.7153C17.3698 10.6075 17.6386 10.5436 17.9055 10.6101C18.1944 10.682 18.3839 10.8813 18.4886 11.1018C18.5868 11.3084 18.6175 11.542 18.6178 11.7583C18.6182 11.9803 18.5866 12.2187 18.5327 12.4572C18.5193 12.5163 18.5045 12.576 18.4881 12.6362C18.3865 13.0108 18.528 13.4259 18.8898 13.5667C19.2382 13.7021 19.6199 13.5141 19.7709 13.1721C19.7954 13.1166 19.8203 13.061 19.8457 13.0053L19.9837 14.758C20.0098 15.0895 19.965 15.4218 19.8776 15.7427C19.373 17.5952 19.4054 19.7052 19.6813 21.655C19.9413 23.4926 20.4123 25.1513 20.8174 26.2571C20.9118 26.5148 20.79 26.8043 20.5359 26.9078C20.2817 27.0114 19.9913 26.8895 19.8964 26.632C19.4649 25.4614 18.9699 23.7207 18.6973 21.7943C18.3868 19.5994 18.3577 17.1146 19.0807 14.9455C19.0808 14.9453 19.0811 14.9451 19.0814 14.9452L19.5521 15.1027C19.0809 14.945 19.0814 14.9453 19.0814 14.9452L19.0813 14.9437L19.0824 14.9406L19.0862 14.9292L19.1007 14.8868C19.1133 14.8501 19.1317 14.797 19.1554 14.7302C19.1592 14.7193 19.1532 14.7074 19.1421 14.7041C18.8851 14.627 18.6316 14.536 18.3886 14.4366C18.0317 14.2905 17.6225 14.4025 17.3442 14.6694C17.1905 14.8167 17.0225 14.9457 16.8407 15.0459C16.4008 15.2884 15.8371 15.3991 15.2727 15.422C14.8476 15.4392 14.3984 15.4076 13.9614 15.3309C13.9011 15.3203 13.8407 15.3467 13.8046 15.3961C13.3923 15.9596 12.8788 16.2169 12.3501 16.3572C12.118 16.4188 11.9777 16.6647 12.06 16.8903C13.0184 19.5167 13.4522 22.9556 13.6531 25.6411C13.6943 26.192 13.6939 26.8874 13.684 27.4349C13.679 27.7108 13.6715 27.9532 13.6653 28.1268C13.6622 28.2136 13.6593 28.2833 13.6573 28.3315L13.6549 28.3871L13.654 28.4067C13.654 28.4068 13.6539 28.4072 13.1576 28.3835C12.973 28.8448 12.973 28.8448 12.9729 28.8448L12.9634 28.841L12.9377 28.8305C12.9154 28.8214 12.8827 28.8081 12.8408 28.7907C12.7569 28.756 12.6357 28.7051 12.4849 28.6401C12.1834 28.5101 11.7627 28.323 11.2846 28.0943C10.3342 27.6397 9.13356 27.0094 8.19274 26.3261C5.8749 24.6428 4.15328 22.7875 2.39888 19.78C1.92315 18.9645 1.64917 17.9409 1.49494 16.8969C1.33985 15.847 1.30112 14.7423 1.31674 13.7422C1.33239 12.7407 1.40275 11.8346 1.46908 11.1791C1.50228 10.851 1.53455 10.5849 1.55863 10.4002C1.57067 10.3078 1.58067 10.2356 1.58772 10.1862C1.59125 10.1615 1.59404 10.1424 1.59598 10.1294L1.59824 10.1142L1.59905 10.1089C1.59907 10.1088 1.59915 10.1083 2.09026 10.1839C1.60629 10.0713 1.60631 10.0712 1.60633 10.0711L1.60712 10.0677L1.60908 10.0595L1.61636 10.0292C1.62271 10.0031 1.63205 9.96533 1.64436 9.91707C1.66898 9.82057 1.70552 9.68203 1.75385 9.51111C1.85042 9.16966 1.99462 8.69698 2.18562 8.17096C2.56201 7.13431 3.14095 5.83067 3.93138 4.93604C4.73817 4.02289 5.45678 3.43835 6.27292 2.98419C7.07604 2.53727 7.95968 2.22554 9.05986 1.84425C11.019 1.16529 12.2929 0.917526 14.3672 0.833502C15.7838 0.776118 17.5861 0.838718 19.0239 0.914453C19.745 0.952435 20.3785 0.993952 20.8318 1.02598C21.0585 1.042 21.2403 1.05565 21.3656 1.06531C21.4282 1.07014 21.4768 1.07398 21.5097 1.07661L21.5602 1.0807C21.5603 1.0807 21.5605 1.08072 21.5196 1.57592L21.5524 1.17882C21.5569 1.12464 21.6044 1.08434 21.6586 1.08881C21.6745 1.09013 21.6899 1.09529 21.7033 1.10387L24.4872 2.87544L24.4895 2.87686L24.4918 2.87831L24.4951 2.88036L24.5156 2.89326C24.5333 2.90443 24.5589 2.9207 24.5916 2.94171C24.6569 2.98373 24.7505 3.04478 24.8656 3.122C25.0955 3.27627 25.4123 3.49601 25.7604 3.75836C26.4454 4.27452 27.2947 4.98714 27.8232 5.70944C28.5109 6.6493 28.9596 8.02045 29.2354 9.10635C29.3756 9.65851 29.4755 10.1549 29.5403 10.5135C29.5728 10.693 29.5965 10.8384 29.6123 10.9397C29.6202 10.9903 29.6261 11.0299 29.63 11.0572L29.6345 11.0888L29.6357 11.0974L29.6361 11.0999L29.6362 11.1006C29.6362 11.1007 29.6362 11.1011 29.1438 11.1676L29.5435 11.1136C29.5947 11.1067 29.6418 11.1426 29.6488 11.1938C29.6507 11.208 29.6493 11.2224 29.6448 11.236L29.2763 12.3414C29.1919 12.5948 29.1488 12.86 29.1488 13.1271V13.5686C29.1488 14.2536 29.4317 14.9083 29.9305 15.3778L33.1735 18.43C33.4366 18.6776 33.3559 19.115 33.0213 19.2516L33.0202 19.252L33.013 19.2551C33.006 19.258 32.9948 19.2629 32.98 19.2695C32.9502 19.2827 32.9059 19.3029 32.8516 19.3294C32.7421 19.383 32.5956 19.4605 32.4448 19.5566C32.2924 19.6538 32.1468 19.7631 32.0323 19.8779C31.9148 19.9956 31.8546 20.0944 31.8323 20.1672C31.8057 20.254 31.8096 20.3864 31.8878 20.5801C31.9651 20.7715 32.097 20.9768 32.2533 21.1748C32.4075 21.37 32.5721 21.5415 32.6998 21.6652C32.7632 21.7266 32.8163 21.7751 32.8528 21.8076C32.871 21.8239 32.8851 21.8361 32.8941 21.8439L32.9038 21.8522L32.9053 21.8535C33.0542 21.9777 33.1174 22.178 33.0665 22.3651L33.0661 22.3668L33.0641 22.3741L33.0561 22.4049C33.049 22.4324 33.0387 22.4732 33.0264 22.5245C33.0018 22.6273 32.9692 22.7713 32.9379 22.9349C32.873 23.2737 32.8219 23.6541 32.8372 23.929C32.8482 24.1275 32.9009 24.3995 32.9578 24.6407C32.9853 24.7573 33.012 24.8596 33.0319 24.9327C33.0418 24.9691 33.0499 24.998 33.0554 25.0175L33.0617 25.0393L33.0632 25.0445L33.0635 25.0455C33.1144 25.2178 33.0683 25.4045 32.9428 25.5331L32.9413 25.5346L32.9344 25.5419C32.9306 25.5458 32.9257 25.551 32.9196 25.5574C32.9152 25.562 32.9102 25.5674 32.9047 25.5733C32.8783 25.6016 32.8396 25.6438 32.7922 25.6975C32.6971 25.8052 32.5688 25.9574 32.4359 26.1347C32.1566 26.5075 31.9096 26.9233 31.8446 27.2506C31.7898 27.5265 31.9075 27.7531 32.1306 28.1824L32.1311 28.1833C32.326 28.5585 32.6248 29.1431 32.2974 29.8276C32.051 30.3429 31.7423 30.8728 30.9961 31.0763C29.8083 31.4003 28.5536 31.3239 27.3753 31.2521C27.1147 31.2362 26.8577 31.2206 26.6062 31.2095C25.1773 31.1468 23.8256 31.2147 22.5142 32.0061C21.8815 32.388 21.4724 32.8784 21.0257 33.4139C20.9386 33.5182 20.8497 33.6247 20.7578 33.7321C20.2044 34.3786 19.5524 35.0268 18.4247 35.2642C16.0696 35.76 13.5338 36.1309 11.5908 36.3776C11.2649 36.419 11.2078 36.8719 11.5142 36.9907L20.0063 40.2836C20.2621 40.3828 20.3891 40.6706 20.2899 40.9265C20.1907 41.1824 19.9029 41.3093 19.647 41.2101L8.05949 36.717C8.05943 36.717 8.05915 36.7169 8.23879 36.2536C8.21411 36.3173 8.11881 36.2924 8.12831 36.2248L8.19395 35.7588C8.19387 35.7588 8.19397 35.7587 8.19395 35.7588L8.20866 35.7574L8.25407 35.7532C8.29427 35.7494 8.35409 35.7437 8.43202 35.736C8.58788 35.7208 8.81616 35.6979 9.10487 35.6673C9.68236 35.6061 10.5013 35.5142 11.4657 35.3918C13.3963 35.1466 15.9023 34.7797 18.22 34.2917C19.0208 34.1231 19.4927 33.6819 20.0029 33.0858C20.0795 32.9963 20.1577 32.9021 20.2385 32.8047C20.6852 32.2665 21.2125 31.631 22.0007 31.1553C23.572 30.207 25.1716 30.1519 26.6497 30.2167C26.9405 30.2295 27.2236 30.2462 27.5003 30.2626C28.6681 30.3319 29.7202 30.3942 30.7346 30.1176C31.0368 30.0352 31.1785 29.8638 31.4009 29.3988C31.4961 29.1997 31.4536 29.0349 31.2492 28.6415C31.2355 28.6152 31.2209 28.5876 31.2056 28.5587C31.0235 28.215 30.7445 27.6885 30.8699 27.057C30.9814 26.4956 31.3493 25.9276 31.6407 25.5388C31.7365 25.411 31.8297 25.2952 31.9125 25.1964C31.9886 25.1056 32.0178 24.9842 31.9906 24.8688C31.9313 24.6175 31.861 24.2746 31.8449 23.9841C31.8225 23.5809 31.8944 23.1005 31.9619 22.748C31.9837 22.6342 32.0059 22.5293 32.0262 22.4387C32.0311 22.417 32.0243 22.3944 32.0083 22.3789C31.8601 22.2353 31.6629 22.0307 31.4734 21.7907C31.2861 21.5535 31.0924 21.2646 30.9663 20.9522C30.8412 20.6423 30.7638 20.2617 30.8822 19.8758C30.9699 19.59 31.1492 19.3558 31.329 19.1757C31.5118 18.9927 31.7213 18.8394 31.9104 18.7188C31.9465 18.6958 31.9517 18.6448 31.9206 18.6155L28.3114 15.2186C28.2116 15.1247 28.155 14.9937 28.155 14.8567V12.6433C28.155 12.5899 28.1636 12.5368 28.1805 12.4861L28.6253 11.1517C28.6317 11.1326 28.6334 11.1123 28.6303 11.0925C28.6157 10.9984 28.5933 10.861 28.5624 10.6903C28.5006 10.3486 28.4054 9.87553 28.2722 9.35098C28.0011 8.28345 27.589 7.07222 27.0212 6.29628C26.5839 5.69861 25.8346 5.05854 25.1624 4.55203C24.832 4.30304 24.5305 4.09393 24.3119 3.9472C24.2027 3.87392 24.1144 3.81642 24.0539 3.77752C24.0237 3.75807 24.0004 3.74329 23.985 3.73353L23.9678 3.72269L23.9637 3.72018L23.9629 3.71967L23.9582 3.71673L21.4145 2.09796C21.3768 2.07397 21.3337 2.05961 21.2892 2.05614C21.1658 2.04663 20.9862 2.03314 20.7618 2.01728C20.3129 1.98557 19.6855 1.94445 18.9716 1.90685ZM17.0741 12.437C17.2133 12.6185 17.4871 12.5431 17.5434 12.3213C17.5505 12.2934 17.5571 12.2656 17.5633 12.2382C17.6051 12.0532 17.6243 11.8906 17.624 11.7599C17.624 11.7232 17.6224 11.6912 17.6199 11.6636C17.6165 11.6262 17.5785 11.6044 17.5444 11.6199C17.4937 11.643 17.4487 11.6631 17.4086 11.6811C17.1592 11.7928 17.0964 11.8209 17.0047 11.9488C16.9387 12.041 16.9319 12.1049 16.9375 12.1554C16.9445 12.2187 16.9787 12.3127 17.0741 12.437ZM13.1424 14.0674C13.2043 14.0936 13.2738 14.0558 13.2856 13.9896C13.3535 13.6079 13.3761 13.174 13.3466 12.7727C13.3164 12.3624 13.2352 12.0309 13.1277 11.8271C13.0753 11.7277 13.0304 11.6851 13.0081 11.6698C12.9956 11.6612 12.9899 11.6587 12.9692 11.6612C12.7117 11.6912 12.525 11.8338 12.3877 12.0875C12.2426 12.3558 12.1687 12.7292 12.1787 13.1226C12.1836 13.3178 12.2922 13.5301 12.5749 13.7472C12.729 13.8655 12.9214 13.9736 13.1424 14.0674ZM10.3265 15.6858C10.3731 15.6778 10.3976 15.6259 10.3738 15.585C10.0921 15.1019 9.78397 14.7017 9.44879 14.4002C8.813 13.8284 8.07343 13.6011 7.14207 13.8598C7.11742 13.8667 7.10252 13.8907 7.10755 13.9158C7.12064 13.9812 7.1561 14.0876 7.23934 14.2381C7.47546 14.6649 7.93396 15.1592 8.30185 15.4514C8.68285 15.7539 8.92939 15.8264 9.2314 15.8278C9.40467 15.8286 9.60729 15.8052 9.88026 15.7615C9.99952 15.7424 10.127 15.7203 10.2685 15.6958L10.3265 15.6858Z" fill="#F10F47"/>
<path fill-rule="evenodd" clip-rule="evenodd" d="M19.8457 13.0053C19.9035 12.8782 19.9635 12.7507 20.0249 12.6258C20.281 12.1052 20.5952 11.557 20.9353 11.2342C21.0994 11.0783 21.3561 10.891 21.682 10.9004C22.0489 10.9109 22.2942 11.1566 22.4413 11.4101C22.6356 11.7451 22.7626 12.0714 22.8112 12.4245C22.8597 12.7758 22.8262 13.1226 22.7418 13.4918C22.6135 14.0535 22.2972 14.4562 21.8533 14.6941C21.4301 14.921 20.9315 14.9772 20.4495 14.9499C20.3969 14.9469 20.3439 14.9429 20.2906 14.9379C20.2038 14.9297 20.1212 14.9798 20.0921 15.062C20.0696 15.1256 20.0522 15.1758 20.0405 15.2098L20.0274 15.2482L20.0242 15.2577C20.024 15.2582 20.0233 15.2581 20.0233 15.2576L19.8457 13.0053ZM20.8773 13.1454C20.6886 13.5366 21.0009 14.0235 21.3837 13.8183C21.5648 13.7212 21.7062 13.563 21.773 13.2704C21.84 12.9775 21.8539 12.7572 21.8268 12.5602C21.7828 12.2411 21.4 12.1995 21.2341 12.4756C21.1316 12.646 21.0247 12.8447 20.9167 13.0644C20.9035 13.0913 20.8903 13.1183 20.8773 13.1454ZM21.5467 11.8577C21.5467 11.8577 21.5467 11.8577 21.5467 11.8577V11.8577Z" fill="#F10F47"/>
<path d="M2.09026 10.1839L1.61779 10.1112C1.60749 10.1096 1.60043 10.1 1.60202 10.0897C1.60438 10.0795 1.61451 10.0732 1.62466 10.0756L2.09026 10.1839Z" fill="#F10F47"/>
<path d="M13.1576 28.3835L13.3641 28.3934C13.5242 28.401 13.6477 28.537 13.6401 28.6971C13.6306 28.8963 13.4276 29.0267 13.2424 28.9526C13.0936 28.8931 13.0213 28.7242 13.0808 28.5754L13.1576 28.3835Z" fill="#F10F47"/>
<path d="M7.51601 39.6114C7.26377 39.5033 7.14693 39.2112 7.25503 38.959C7.36313 38.7067 7.65524 38.5899 7.90747 38.698L19.0452 43.4713C19.2974 43.5794 19.4142 43.8715 19.3061 44.1237C19.198 44.376 18.9059 44.4928 18.6537 44.3847L7.51601 39.6114Z" fill="#F10F47"/>
<path d="M6.03146 42.7884C6.48126 41.8738 7.62707 41.6759 8.5679 42.0679L15.7933 45.0785C17.3111 45.7109 17.8442 47.7247 16.4184 48.5436C16.232 48.6507 16.0454 48.7379 15.863 48.7966C15.6353 48.8698 15.4078 48.9594 15.1812 49.0485C14.407 49.3532 13.6427 49.654 12.9117 49.2885C11.3015 48.4834 10.3181 47.7137 9.09663 46.7577C8.82556 46.5455 8.54276 46.3242 8.23879 46.0913C7.92186 45.8484 7.58037 45.6668 7.25531 45.494C6.52839 45.1074 5.88361 44.7646 5.77938 43.8778C5.73844 43.5295 5.85538 43.1464 6.03146 42.7884Z" fill="#F10F47"/>
<path d="M19.8457 13.0053C19.8203 13.061 19.7954 13.1166 19.7709 13.1721C19.6199 13.5141 19.2382 13.7021 18.8898 13.5667C18.528 13.4259 18.3865 13.0108 18.4881 12.6362C18.5045 12.576 18.5193 12.5163 18.5327 12.4572C18.5866 12.2187 18.6182 11.9803 18.6178 11.7583C18.6175 11.542 18.5868 11.3084 18.4886 11.1018C18.3839 10.8813 18.1944 10.682 17.9055 10.6101C17.6386 10.5436 17.3698 10.6075 17.1328 10.7153C17.0991 10.7307 17.0635 10.7461 17.0266 10.762C16.7739 10.8711 16.4559 11.0085 16.1968 11.3701C15.9991 11.6463 15.915 11.9525 15.9498 12.265C15.983 12.5647 16.1203 12.8265 16.2856 13.042C16.3064 13.069 16.3278 13.0957 16.35 13.1221C16.6263 13.4505 16.7368 13.9684 16.3609 14.1756C16.1071 14.3155 15.7142 14.4095 15.2325 14.429C14.9737 14.4395 14.7012 14.428 14.429 14.3956C14.3173 14.3823 14.2443 14.2744 14.264 14.1636C14.3466 13.6995 14.3731 13.1827 14.3377 12.6999C14.3029 12.2259 14.2051 11.7397 14.0067 11.3635C13.8055 10.9822 13.4294 10.607 12.8541 10.6741C12.2116 10.749 11.772 11.1373 11.5137 11.6146C11.2633 12.0774 11.1723 12.6353 11.1852 13.1477C11.2003 13.7442 11.5432 14.2079 11.9697 14.5354C12.3391 14.819 12.4074 15.3346 11.951 15.4272C11.944 15.4286 11.937 15.43 11.93 15.4314C11.6527 15.4863 11.3793 15.3373 11.2372 15.0929C10.9121 14.5338 10.5402 14.0453 10.1133 13.6613C9.24385 12.8793 8.15821 12.5462 6.87609 12.9023C6.68048 12.9567 6.49531 13.0518 6.35212 13.2072C6.20531 13.3665 6.13262 13.5568 6.11294 13.7463C6.07669 14.0954 6.21818 14.4451 6.36977 14.7191C6.68476 15.2885 7.24164 15.8785 7.68384 16.2296C8.20854 16.6463 8.66547 16.8189 9.2266 16.8216C9.48489 16.8228 9.75375 16.7882 10.0374 16.7427C10.1632 16.7226 10.2973 16.6994 10.4377 16.6751L10.4957 16.6651C10.7199 16.6263 10.9415 16.7472 11.024 16.9593C11.0587 17.0484 11.0928 17.139 11.1264 17.231C12.0354 19.7221 12.4624 23.0465 12.6621 25.7152C12.6997 26.2179 12.7002 26.8751 12.6904 27.4169C12.6884 27.525 12.577 27.5959 12.4783 27.5517C12.2524 27.4506 11.993 27.3315 11.7134 27.1978C10.7793 26.7509 9.64348 26.1515 8.77671 25.522C6.57642 23.9241 4.94609 22.1743 3.25728 19.2793C2.87221 18.6191 2.62356 17.7366 2.47805 16.7517C2.3334 15.7725 2.29528 14.7252 2.3104 13.7578C2.32549 12.7917 2.39348 11.9148 2.45781 11.2791C2.48994 10.9616 2.52107 10.7051 2.54407 10.5286C2.55556 10.4404 2.56502 10.3723 2.57154 10.3266L2.5785 10.2785L2.58197 10.2641C2.58749 10.2414 2.59594 10.2072 2.6073 10.1627C2.63002 10.0736 2.66435 9.94341 2.71013 9.78154C2.80179 9.45743 2.93879 9.00845 3.11972 8.51012C3.48718 7.49809 4.01499 6.34232 4.67611 5.59404C5.42184 4.75 6.05489 4.2428 6.75615 3.85257C7.47043 3.45509 8.26996 3.16977 9.38528 2.78324C11.2549 2.13529 12.4329 1.90645 14.4074 1.82646C15.7755 1.77104 17.5395 1.83142 18.9716 1.90685C19.6855 1.94445 20.3129 1.98557 20.7618 2.01728C20.9862 2.03314 21.1658 2.04663 21.2892 2.05614C21.3337 2.05961 21.3768 2.07397 21.4145 2.09796L23.9582 3.71673L23.9629 3.71967L23.9637 3.72018L23.9678 3.72269L23.985 3.73353C24.0004 3.74329 24.0237 3.75807 24.0539 3.77752C24.1144 3.81642 24.2027 3.87392 24.3119 3.9472C24.5305 4.09393 24.832 4.30304 25.1624 4.55203C25.8346 5.05854 26.5839 5.69861 27.0212 6.29628C27.589 7.07222 28.0011 8.28345 28.2722 9.35098C28.4054 9.87553 28.5006 10.3486 28.5624 10.6903C28.5933 10.861 28.6157 10.9984 28.6303 11.0925C28.6334 11.1123 28.6317 11.1326 28.6253 11.1517L28.1805 12.4861C28.1636 12.5368 28.155 12.5899 28.155 12.6433V14.8567C28.155 14.9937 28.2116 15.1247 28.3114 15.2186L31.9206 18.6155C31.9517 18.6448 31.9465 18.6958 31.9104 18.7188C31.7213 18.8394 31.5118 18.9927 31.329 19.1757C31.1492 19.3558 30.9699 19.59 30.8822 19.8758C30.7638 20.2617 30.8412 20.6423 30.9663 20.9522C31.0924 21.2646 31.2861 21.5535 31.4734 21.7907C31.6629 22.0307 31.8601 22.2353 32.0083 22.3789C32.0243 22.3944 32.0311 22.417 32.0262 22.4387C32.0059 22.5293 31.9837 22.6342 31.9619 22.748C31.8944 23.1005 31.8225 23.5809 31.8449 23.9841C31.861 24.2746 31.9313 24.6175 31.9906 24.8688C32.0178 24.9842 31.9886 25.1056 31.9125 25.1964C31.8297 25.2952 31.7365 25.411 31.6407 25.5388C31.3493 25.9276 30.9814 26.4956 30.8699 27.057C30.7445 27.6885 31.0235 28.215 31.2056 28.5587C31.2209 28.5876 31.2355 28.6152 31.2492 28.6415C31.4536 29.0349 31.4961 29.1997 31.4009 29.3988C31.1785 29.8638 31.0368 30.0352 30.7346 30.1176C29.7202 30.3942 28.6681 30.3319 27.5003 30.2626C27.2236 30.2462 26.9405 30.2294 26.6497 30.2167C25.1716 30.1519 23.572 30.207 22.0007 31.1553C21.2125 31.631 20.6852 32.2665 20.2385 32.8047C20.1577 32.9021 20.0795 32.9963 20.0029 33.0858C19.4927 33.6819 19.0208 34.1231 18.22 34.2917C15.9023 34.7797 13.3963 35.1466 11.4657 35.3918C10.5013 35.5142 9.68236 35.6061 9.10487 35.6673C8.81616 35.6979 8.58788 35.7208 8.43202 35.736C8.35409 35.7437 8.29427 35.7494 8.25407 35.7532L8.20866 35.7574L8.19395 35.7588M19.8457 13.0053L19.9837 14.758C20.0098 15.0895 19.965 15.4218 19.8776 15.7427C19.373 17.5952 19.4054 19.7052 19.6813 21.655C19.9413 23.4926 20.4123 25.1513 20.8174 26.2571C20.9118 26.5148 20.79 26.8043 20.5359 26.9078C20.2817 27.0114 19.9913 26.8895 19.8964 26.632C19.4649 25.4614 18.9699 23.7207 18.6973 21.7943C18.3868 19.5994 18.3577 17.1146 19.0807 14.9455C19.0808 14.9453 19.0811 14.9451 19.0814 14.9452M19.8457 13.0053C19.9035 12.8782 19.9635 12.7507 20.0249 12.6258C20.281 12.1052 20.5952 11.557 20.9353 11.2342C21.0994 11.0783 21.3561 10.891 21.682 10.9004C22.0489 10.9109 22.2942 11.1566 22.4413 11.4101C22.6356 11.7451 22.7626 12.0714 22.8112 12.4245C22.8597 12.7758 22.8262 13.1226 22.7418 13.4918C22.6135 14.0535 22.2972 14.4562 21.8533 14.6941C21.4301 14.921 20.9315 14.9772 20.4495 14.9499C20.3969 14.9469 20.3439 14.9429 20.2907 14.9379C20.2038 14.9297 20.1212 14.9798 20.0921 15.062C20.0696 15.1256 20.0522 15.1758 20.0405 15.2098L20.0274 15.2482L20.0242 15.2577C20.024 15.2582 20.0233 15.2581 20.0233 15.2576L19.8457 13.0053ZM19.0814 14.9452L19.5521 15.1027C19.0809 14.945 19.0814 14.9453 19.0814 14.9452ZM19.0814 14.9452L19.0813 14.9437L19.0824 14.9406L19.0862 14.9292L19.1007 14.8868C19.1133 14.8501 19.1317 14.797 19.1554 14.7302C19.1592 14.7193 19.1532 14.7074 19.1421 14.7041C18.8851 14.627 18.6316 14.536 18.3886 14.4366C18.0317 14.2905 17.6225 14.4025 17.3442 14.6694C17.1905 14.8167 17.0225 14.9457 16.8407 15.0459C16.4008 15.2884 15.8371 15.3991 15.2727 15.422C14.8476 15.4392 14.3984 15.4076 13.9614 15.3309C13.9011 15.3203 13.8407 15.3467 13.8046 15.3961C13.3923 15.9596 12.8788 16.2169 12.3501 16.3572C12.118 16.4188 11.9777 16.6647 12.06 16.8903C13.0184 19.5167 13.4522 22.9556 13.6531 25.6411C13.6943 26.192 13.6939 26.8874 13.684 27.4349C13.679 27.7108 13.6715 27.9532 13.6653 28.1268C13.6622 28.2136 13.6593 28.2833 13.6573 28.3315L13.6549 28.3871L13.654 28.4067C13.654 28.4068 13.6539 28.4072 13.1576 28.3835M13.1576 28.3835C12.973 28.8448 12.973 28.8448 12.9729 28.8448L12.9634 28.841L12.9377 28.8305C12.9154 28.8214 12.8827 28.8081 12.8408 28.7907C12.7569 28.756 12.6357 28.7051 12.4849 28.6401C12.1834 28.5101 11.7627 28.323 11.2846 28.0943C10.3342 27.6397 9.13356 27.0094 8.19274 26.3261C5.8749 24.6428 4.15328 22.7875 2.39888 19.78C1.92315 18.9645 1.64917 17.9409 1.49494 16.8969C1.33985 15.847 1.30112 14.7423 1.31674 13.7422C1.33239 12.7407 1.40275 11.8346 1.46908 11.1791C1.50228 10.851 1.53455 10.5849 1.55863 10.4002C1.57067 10.3078 1.58067 10.2356 1.58772 10.1862C1.59125 10.1615 1.59404 10.1424 1.59598 10.1294L1.59824 10.1142L1.59905 10.1089C1.59907 10.1088 1.59915 10.1083 2.09026 10.1839M13.1576 28.3835L13.3641 28.3934C13.5242 28.401 13.6477 28.537 13.6401 28.6971C13.6306 28.8963 13.4276 29.0267 13.2424 28.9526C13.0936 28.8931 13.0213 28.7242 13.0808 28.5754L13.1576 28.3835ZM2.09026 10.1839C1.60629 10.0713 1.60631 10.0712 1.60633 10.0711L1.60712 10.0677L1.60908 10.0595L1.61636 10.0292C1.62271 10.0031 1.63205 9.96533 1.64436 9.91707C1.66898 9.82057 1.70552 9.68203 1.75385 9.51111C1.85042 9.16966 1.99462 8.69698 2.18562 8.17096C2.56201 7.13431 3.14095 5.83067 3.93138 4.93604C4.73817 4.02289 5.45678 3.43835 6.27292 2.98419C7.07604 2.53727 7.95968 2.22554 9.05986 1.84425C11.019 1.16529 12.2929 0.917526 14.3672 0.833502C15.7838 0.776118 17.5861 0.838718 19.0239 0.914453C19.745 0.952435 20.3785 0.993952 20.8318 1.02598C21.0585 1.042 21.2403 1.05565 21.3656 1.06531C21.4282 1.07014 21.4768 1.07398 21.5097 1.07661L21.5602 1.0807C21.5603 1.0807 21.5605 1.08072 21.5196 1.57592L21.5524 1.17882C21.5569 1.12464 21.6044 1.08434 21.6586 1.08881C21.6745 1.09013 21.6899 1.09529 21.7033 1.10387L24.4872 2.87544L24.4895 2.87686L24.4918 2.87831L24.4951 2.88036L24.5156 2.89326C24.5333 2.90443 24.5589 2.9207 24.5916 2.94171C24.6569 2.98373 24.7505 3.04478 24.8656 3.122C25.0955 3.27627 25.4123 3.496 25.7604 3.75836C26.4454 4.27452 27.2947 4.98714 27.8232 5.70945C28.5109 6.6493 28.9596 8.02045 29.2354 9.10635C29.3756 9.65851 29.4755 10.1549 29.5403 10.5135C29.5728 10.693 29.5965 10.8384 29.6123 10.9397C29.6202 10.9903 29.6261 11.0299 29.63 11.0572L29.6345 11.0888L29.6357 11.0974L29.6361 11.0999L29.6362 11.1006C29.6362 11.1007 29.6362 11.1011 29.1438 11.1676L29.5435 11.1136C29.5947 11.1067 29.6418 11.1426 29.6488 11.1938C29.6507 11.208 29.6493 11.2224 29.6448 11.236L29.2763 12.3414C29.1919 12.5948 29.1488 12.86 29.1488 13.1271V13.5686C29.1488 14.2536 29.4317 14.9083 29.9305 15.3778L33.1735 18.43C33.4366 18.6776 33.3559 19.115 33.0213 19.2516L33.0202 19.252L33.013 19.2551C33.006 19.258 32.9948 19.2629 32.98 19.2695C32.9502 19.2827 32.9059 19.3029 32.8516 19.3294C32.7421 19.383 32.5956 19.4605 32.4448 19.5566C32.2924 19.6538 32.1468 19.7631 32.0323 19.8779C31.9148 19.9956 31.8546 20.0944 31.8323 20.1672C31.8057 20.254 31.8096 20.3864 31.8878 20.5801C31.9651 20.7715 32.097 20.9768 32.2533 21.1748C32.4075 21.37 32.5721 21.5415 32.6998 21.6652C32.7632 21.7266 32.8163 21.7751 32.8528 21.8076C32.871 21.8239 32.8851 21.8361 32.8941 21.8439L32.9038 21.8522L32.9053 21.8535C33.0542 21.9777 33.1174 22.178 33.0665 22.3651L33.0661 22.3668L33.0641 22.3741L33.0561 22.4049C33.049 22.4324 33.0387 22.4732 33.0264 22.5245C33.0018 22.6273 32.9692 22.7713 32.9379 22.9349C32.873 23.2737 32.8219 23.6541 32.8372 23.929C32.8482 24.1275 32.9009 24.3995 32.9578 24.6407C32.9853 24.7573 33.012 24.8596 33.0319 24.9327C33.0418 24.9691 33.0499 24.998 33.0554 25.0175L33.0617 25.0393L33.0632 25.0445L33.0635 25.0455C33.1144 25.2178 33.0683 25.4045 32.9428 25.5331L32.9413 25.5346L32.9344 25.5419C32.9306 25.5458 32.9257 25.551 32.9196 25.5574C32.9152 25.5621 32.9102 25.5674 32.9047 25.5733C32.8783 25.6016 32.8396 25.6438 32.7922 25.6975C32.6971 25.8052 32.5688 25.9574 32.4359 26.1347C32.1566 26.5075 31.9096 26.9233 31.8446 27.2506C31.7898 27.5265 31.9075 27.7531 32.1306 28.1824L32.1311 28.1833C32.326 28.5585 32.6248 29.1431 32.2974 29.8276C32.051 30.3429 31.7423 30.8728 30.9961 31.0763C29.8083 31.4003 28.5536 31.3239 27.3753 31.2521C27.1147 31.2362 26.8577 31.2206 26.6062 31.2095C25.1773 31.1468 23.8256 31.2147 22.5142 32.0061C21.8815 32.388 21.4724 32.8784 21.0257 33.4139C20.9386 33.5182 20.8497 33.6247 20.7578 33.7321C20.2044 34.3786 19.5524 35.0268 18.4247 35.2642C16.0696 35.76 13.5338 36.1309 11.5908 36.3776C11.2649 36.419 11.2078 36.8719 11.5142 36.9907L20.0063 40.2836C20.2621 40.3828 20.3891 40.6706 20.2899 40.9265C20.1907 41.1824 19.9029 41.3093 19.647 41.2101L8.05949 36.717C8.05943 36.717 8.05915 36.7169 8.23879 36.2536C8.21411 36.3173 8.11881 36.2924 8.12831 36.2248L8.19395 35.7588M2.09026 10.1839L1.61779 10.1112C1.60749 10.1096 1.60043 10.1 1.60202 10.0897C1.60437 10.0795 1.61451 10.0732 1.62466 10.0756L2.09026 10.1839ZM8.19395 35.7588C8.19388 35.7588 8.19397 35.7587 8.19395 35.7588ZM21.5467 11.8577C21.5467 11.8577 21.5467 11.8577 21.5467 11.8577ZM21.5467 11.8577L21.5482 11.8592M17.0741 12.437C17.2133 12.6185 17.4871 12.5431 17.5434 12.3213C17.5505 12.2934 17.5571 12.2656 17.5633 12.2382C17.6051 12.0532 17.6243 11.8906 17.624 11.7599C17.624 11.7232 17.6224 11.6912 17.6199 11.6636C17.6165 11.6262 17.5785 11.6044 17.5444 11.6199C17.4937 11.643 17.4487 11.6631 17.4086 11.6811C17.1592 11.7928 17.0964 11.8209 17.0047 11.9489C16.9387 12.041 16.9319 12.1049 16.9375 12.1554C16.9445 12.2187 16.9787 12.3127 17.0741 12.437ZM13.1424 14.0674C13.2043 14.0936 13.2738 14.0558 13.2856 13.9896C13.3535 13.6079 13.3761 13.174 13.3466 12.7727C13.3164 12.3624 13.2352 12.0309 13.1277 11.8271C13.0753 11.7277 13.0304 11.6851 13.0081 11.6698C12.9956 11.6612 12.9899 11.6587 12.9692 11.6612C12.7117 11.6912 12.525 11.8338 12.3877 12.0875C12.2426 12.3558 12.1687 12.7292 12.1787 13.1226C12.1836 13.3178 12.2922 13.5301 12.5749 13.7472C12.729 13.8655 12.9214 13.9736 13.1424 14.0674ZM10.3265 15.6858C10.3731 15.6778 10.3976 15.6259 10.3738 15.585C10.0921 15.1019 9.78397 14.7017 9.44879 14.4002C8.813 13.8284 8.07343 13.6011 7.14207 13.8598C7.11742 13.8667 7.10252 13.8907 7.10755 13.9158C7.12064 13.9812 7.1561 14.0876 7.23934 14.2381C7.47546 14.6649 7.93396 15.1592 8.30185 15.4514C8.68285 15.7539 8.92939 15.8264 9.2314 15.8278C9.40467 15.8286 9.60729 15.8052 9.88026 15.7615C9.99952 15.7424 10.127 15.7203 10.2685 15.6958L10.3265 15.6858ZM20.8773 13.1454C20.6886 13.5366 21.0009 14.0235 21.3837 13.8183C21.5648 13.7212 21.7062 13.5629 21.773 13.2704C21.84 12.9775 21.8539 12.7572 21.8268 12.5602C21.7828 12.2411 21.4 12.1995 21.2341 12.4756C21.1316 12.646 21.0247 12.8447 20.9167 13.0644C20.9035 13.0913 20.8903 13.1183 20.8773 13.1454ZM7.51601 39.6114C7.26377 39.5033 7.14693 39.2112 7.25503 38.959C7.36313 38.7067 7.65524 38.5899 7.90747 38.698L19.0452 43.4713C19.2974 43.5794 19.4142 43.8715 19.3061 44.1237C19.198 44.376 18.9059 44.4928 18.6537 44.3847L7.51601 39.6114ZM6.03146 42.7884C6.48126 41.8738 7.62707 41.6759 8.5679 42.0679L15.7933 45.0785C17.3111 45.7109 17.8442 47.7247 16.4184 48.5436C16.232 48.6507 16.0454 48.7379 15.863 48.7966C15.6353 48.8698 15.4078 48.9594 15.1812 49.0485C14.407 49.3532 13.6427 49.654 12.9117 49.2885C11.3015 48.4834 10.3181 47.7137 9.09663 46.7577C8.82556 46.5455 8.54276 46.3242 8.23879 46.0913C7.92186 45.8484 7.58037 45.6668 7.25531 45.494C6.52839 45.1074 5.88361 44.7646 5.77938 43.8778C5.73844 43.5295 5.85538 43.1464 6.03146 42.7884Z" stroke="#F10F47" stroke-width="0.829607"/>
</svg>
