<svg width="29" height="29" viewBox="0 0 29 29" fill="none" xmlns="http://www.w3.org/2000/svg">
<path d="M10.7999 5.60004C6.60516 7.04128 3.59985 10.9301 3.59985 15.5014C3.59985 16.9495 3.90146 18.3292 4.44695 19.5841M17.9999 5.60004C22.1946 7.04128 25.1999 10.9301 25.1999 15.5014C25.1999 16.7284 24.9833 17.9063 24.5853 19.0009M19.7999 24.5956C18.2113 25.4888 16.367 26 14.3999 26C12.4327 26 10.5884 25.4888 8.99985 24.5956" stroke="white" stroke-width="1.8"/>
<path d="M17.9998 6.20004C17.9998 8.18826 16.3881 9.80004 14.3998 9.80004C12.4115 9.80004 10.7998 8.18826 10.7998 6.20004C10.7998 4.21182 12.4115 2.60004 14.3998 2.60004C16.3881 2.60004 17.9998 4.21182 17.9998 6.20004Z" fill="#11C54D" stroke="white" stroke-width="1.8"/>
<path d="M5.9999 26.6C7.98813 26.6 9.5999 24.9882 9.5999 23C9.5999 21.0118 7.98813 19.4 5.9999 19.4C4.01168 19.4 2.3999 21.0118 2.3999 23C2.3999 24.9882 4.01168 26.6 5.9999 26.6Z" fill="#D5B100" stroke="white" stroke-width="1.8"/>
<path d="M22.8 26.6C24.7882 26.6 26.4 24.9882 26.4 23C26.4 21.0118 24.7882 19.4 22.8 19.4C20.8117 19.4 19.2 21.0118 19.2 23C19.2 24.9882 20.8117 26.6 22.8 26.6Z" fill="#590083" stroke="white" stroke-width="1.8"/>
</svg>
